<svg width="371mm" height="242.382mm" viewBox="0 0 371 242.382" xmlns="http://www.w3.org/2000/svg"><g id="svgGroup" stroke-linecap="round" fill-rule="evenodd" font-size="9pt" stroke="#000" stroke-width="0.25mm" fill="none" style="stroke:#000;stroke-width:0.25mm;fill:none"><path d="M 318.75 182 L 371 182 L 371 200 L 318.75 200 L 318.75 182 Z M 0 67.5 L 42.75 67.5 L 42.75 85.5 L 0 85.5 L 0 67.5 Z M 318.75 163 L 361.5 163 L 361.5 181 L 318.75 181 L 318.75 163 Z M 197.126 201.018 L 206.961 237.723 L 189.574 242.382 L 179.739 205.677 L 197.126 201.018 Z M 139.339 111.823 L 149.174 75.118 L 166.561 79.777 L 156.726 116.482 L 139.339 111.823 Z M 318.75 125 L 356.75 125 L 356.75 143 L 318.75 143 L 318.75 125 Z M 9.5 48.5 L 42.75 48.5 L 42.75 66.5 L 9.5 66.5 L 9.5 48.5 Z M 14.25 29.5 L 42.75 29.5 L 42.75 47.5 L 14.25 47.5 L 14.25 29.5 Z M 337.75 144 L 366.25 144 L 366.25 162 L 337.75 162 L 337.75 144 Z M 19 86.5 L 42.75 86.5 L 42.75 104.5 L 19 104.5 L 19 86.5 Z M 42.75 83 L 66.5 83 L 66.5 101 L 42.75 101 L 42.75 83 Z M 66.5 79.5 L 90.25 79.5 L 90.25 97.5 L 66.5 97.5 L 66.5 79.5 Z M 90.25 79.5 L 114 79.5 L 114 97.5 L 90.25 97.5 L 90.25 79.5 Z M 114 83 L 137.75 83 L 137.75 101 L 114 101 L 114 83 Z M 4.75 10.5 L 23.75 10.5 L 23.75 28.5 L 4.75 28.5 L 4.75 10.5 Z M 23.75 10.5 L 42.75 10.5 L 42.75 28.5 L 23.75 28.5 L 23.75 10.5 Z M 42.75 64 L 61.75 64 L 61.75 82 L 42.75 82 L 42.75 64 Z M 42.75 45 L 61.75 45 L 61.75 63 L 42.75 63 L 42.75 45 Z M 42.75 26 L 61.75 26 L 61.75 44 L 42.75 44 L 42.75 26 Z M 42.75 7 L 61.75 7 L 61.75 25 L 42.75 25 L 42.75 7 Z M 61.75 60.5 L 80.75 60.5 L 80.75 78.5 L 61.75 78.5 L 61.75 60.5 Z M 61.75 41.5 L 80.75 41.5 L 80.75 59.5 L 61.75 59.5 L 61.75 41.5 Z M 61.75 22.5 L 80.75 22.5 L 80.75 40.5 L 61.75 40.5 L 61.75 22.5 Z M 61.75 3.5 L 80.75 3.5 L 80.75 21.5 L 61.75 21.5 L 61.75 3.5 Z M 80.75 57 L 99.75 57 L 99.75 75 L 80.75 75 L 80.75 57 Z M 80.75 38 L 99.75 38 L 99.75 56 L 80.75 56 L 80.75 38 Z M 80.75 19 L 99.75 19 L 99.75 37 L 80.75 37 L 80.75 19 Z M 80.75 0 L 99.75 0 L 99.75 18 L 80.75 18 L 80.75 0 Z M 99.75 60.5 L 118.75 60.5 L 118.75 78.5 L 99.75 78.5 L 99.75 60.5 Z M 99.75 41.5 L 118.75 41.5 L 118.75 59.5 L 99.75 59.5 L 99.75 41.5 Z M 99.75 22.5 L 118.75 22.5 L 118.75 40.5 L 99.75 40.5 L 99.75 22.5 Z M 99.75 3.5 L 118.75 3.5 L 118.75 21.5 L 99.75 21.5 L 99.75 3.5 Z M 118.75 64 L 137.75 64 L 137.75 82 L 118.75 82 L 118.75 64 Z M 118.75 45 L 137.75 45 L 137.75 63 L 118.75 63 L 118.75 45 Z M 118.75 26 L 137.75 26 L 137.75 44 L 118.75 44 L 118.75 26 Z M 118.75 7 L 137.75 7 L 137.75 25 L 118.75 25 L 118.75 7 Z M 0 86.5 L 19 86.5 L 19 104.5 L 0 104.5 L 0 86.5 Z M 204.75 197.5 L 223.75 197.5 L 223.75 215.5 L 204.75 215.5 L 204.75 197.5 Z M 204.75 178.5 L 223.75 178.5 L 223.75 196.5 L 204.75 196.5 L 204.75 178.5 Z M 204.75 159.5 L 223.75 159.5 L 223.75 177.5 L 204.75 177.5 L 204.75 159.5 Z M 204.75 140.5 L 223.75 140.5 L 223.75 158.5 L 204.75 158.5 L 204.75 140.5 Z M 204.75 121.5 L 223.75 121.5 L 223.75 139.5 L 204.75 139.5 L 204.75 121.5 Z M 223.75 194 L 242.75 194 L 242.75 212 L 223.75 212 L 223.75 194 Z M 223.75 175 L 242.75 175 L 242.75 193 L 223.75 193 L 223.75 175 Z M 223.75 156 L 242.75 156 L 242.75 174 L 223.75 174 L 223.75 156 Z M 223.75 137 L 242.75 137 L 242.75 155 L 223.75 155 L 223.75 137 Z M 223.75 118 L 242.75 118 L 242.75 136 L 223.75 136 L 223.75 118 Z M 242.75 190.5 L 261.75 190.5 L 261.75 208.5 L 242.75 208.5 L 242.75 190.5 Z M 242.75 171.5 L 261.75 171.5 L 261.75 189.5 L 242.75 189.5 L 242.75 171.5 Z M 242.75 152.5 L 261.75 152.5 L 261.75 170.5 L 242.75 170.5 L 242.75 152.5 Z M 242.75 133.5 L 261.75 133.5 L 261.75 151.5 L 242.75 151.5 L 242.75 133.5 Z M 242.75 114.5 L 261.75 114.5 L 261.75 132.5 L 242.75 132.5 L 242.75 114.5 Z M 261.75 194 L 280.75 194 L 280.75 212 L 261.75 212 L 261.75 194 Z M 261.75 175 L 280.75 175 L 280.75 193 L 261.75 193 L 261.75 175 Z M 261.75 156 L 280.75 156 L 280.75 174 L 261.75 174 L 261.75 156 Z M 261.75 137 L 280.75 137 L 280.75 155 L 261.75 155 L 261.75 137 Z M 261.75 118 L 280.75 118 L 280.75 136 L 261.75 136 L 261.75 118 Z M 280.75 197.5 L 299.75 197.5 L 299.75 215.5 L 280.75 215.5 L 280.75 197.5 Z M 280.75 178.5 L 299.75 178.5 L 299.75 196.5 L 280.75 196.5 L 280.75 178.5 Z M 280.75 159.5 L 299.75 159.5 L 299.75 177.5 L 280.75 177.5 L 280.75 159.5 Z M 280.75 140.5 L 299.75 140.5 L 299.75 158.5 L 280.75 158.5 L 280.75 140.5 Z M 280.75 121.5 L 299.75 121.5 L 299.75 139.5 L 280.75 139.5 L 280.75 121.5 Z M 299.75 201 L 318.75 201 L 318.75 219 L 299.75 219 L 299.75 201 Z M 318.75 201 L 337.75 201 L 337.75 219 L 318.75 219 L 318.75 201 Z M 299.75 182 L 318.75 182 L 318.75 200 L 299.75 200 L 299.75 182 Z M 299.75 163 L 318.75 163 L 318.75 181 L 299.75 181 L 299.75 163 Z M 299.75 144 L 318.75 144 L 318.75 162 L 299.75 162 L 299.75 144 Z M 318.75 144 L 337.75 144 L 337.75 162 L 318.75 162 L 318.75 144 Z M 299.75 125 L 318.75 125 L 318.75 143 L 299.75 143 L 299.75 125 Z" vector-effect="non-scaling-stroke"/></g></svg>