0
SECTION
2
HEADER
9
$INSUNITS
70
4
0
ENDSEC
0
SECTION
2
TABLES
0
TABLE
2
LTYPE
0
LTYPE
72
65
70
0
2
CONTINUOUS
3
______
73
0
40
0
0
LTYPE
72
65
70
0
2
DASHED
3
_ _ _ 
73
2
40
7.5
49
5
49
-2.5
0
LTYPE
72
65
70
0
2
DOTTED
3
. . . 
73
2
40
1.5
49
0.5
49
-1
0
ENDTAB
0
TABLE
2
LAYER
0
ENDTAB
0
ENDSEC
0
SECTION
2
ENTITIES
0
LINE
8
0
6
CONTINUOUS
10
-20.525
20
47.625
11
-10.475
21
47.625
0
LINE
8
0
6
CONTINUOUS
10
-20.525
20
66.675
11
19.575
21
66.675
0
LINE
8
0
6
CONTINUOUS
10
-20.525
20
66.675
11
-20.525
21
47.625
0
LINE
8
0
6
CONTINUOUS
10
-12.38125
20
-9.525
11
-12.38125
21
19.525
0
LINE
8
0
6
CONTINUOUS
10
-12.38125
20
19.525
11
-7.61875
21
19.525
0
LINE
8
0
6
CONTINUOUS
10
-7.61875
20
19.525
11
-7.61875
21
37.625
0
LINE
8
0
6
CONTINUOUS
10
-7.61875
20
37.625
11
-10.475
21
37.625
0
LINE
8
0
6
CONTINUOUS
10
-10.475
20
37.625
11
-10.475
21
47.625
0
LINE
8
0
6
CONTINUOUS
10
39.625
20
70.175
11
19.575
21
70.175
0
LINE
8
0
6
CONTINUOUS
10
19.575
20
70.175
11
19.575
21
66.675
0
LINE
8
0
6
CONTINUOUS
10
59.675
20
73.675
11
39.625
21
73.675
0
LINE
8
0
6
CONTINUOUS
10
39.625
20
73.675
11
39.625
21
70.175
0
LINE
8
0
6
CONTINUOUS
10
100.725
20
73.675
11
100.725
21
77.175
0
LINE
8
0
6
CONTINUOUS
10
100.725
20
77.175
11
59.675
21
77.175
0
LINE
8
0
6
CONTINUOUS
10
59.675
20
77.175
11
59.675
21
73.675
0
LINE
8
0
6
CONTINUOUS
10
120.775
20
70.175
11
120.775
21
73.675
0
LINE
8
0
6
CONTINUOUS
10
120.775
20
73.675
11
100.725
21
73.675
0
LINE
8
0
6
CONTINUOUS
10
138.31875
20
-6.025
11
140.0770969
21
-6.025
0
LINE
8
0
6
CONTINUOUS
10
140.825
20
-3.2337875
11
140.825
21
70.175
0
LINE
8
0
6
CONTINUOUS
10
140.825
20
70.175
11
120.775
21
70.175
0
LINE
8
0
6
CONTINUOUS
10
-25.5375
20
-28.575
11
38.06875
21
-28.575
0
LINE
8
0
6
CONTINUOUS
10
-25.5375
20
-9.525
11
-12.38125
21
-9.525
0
LINE
8
0
6
CONTINUOUS
10
-25.5375
20
-9.525
11
-25.5375
21
-28.575
0
LINE
8
0
6
CONTINUOUS
10
38.06875
20
-28.575
11
38.06875
21
-25.075
0
LINE
8
0
6
CONTINUOUS
10
38.06875
20
-25.075
11
63.13125
21
-25.075
0
LINE
8
0
6
CONTINUOUS
10
63.13125
20
-25.075
11
63.13125
21
-21.575
0
LINE
8
0
6
CONTINUOUS
10
63.13125
20
-21.575
11
97.26875
21
-21.575
0
LINE
8
0
6
CONTINUOUS
10
97.26875
20
-25.075
11
134.9726647
21
-25.075
0
LINE
8
0
6
CONTINUOUS
10
138.31875
20
-12.5872398
11
138.31875
21
-6.025
0
LINE
8
0
6
CONTINUOUS
10
97.26875
20
-21.575
11
97.26875
21
-25.075
0
LINE
8
0
6
CONTINUOUS
10
150.2531826
20
-41.650879
11
160.8777044
21
-1.9996238
0
LINE
8
0
6
CONTINUOUS
10
160.8777044
20
-1.9996238
11
142.4768174
21
2.930879
0
LINE
8
0
6
CONTINUOUS
10
142.4768174
20
2.930879
11
140.825
21
-3.2337875
0
LINE
8
0
6
CONTINUOUS
10
140.0770969
20
-6.025
11
138.31875
21
-12.5872398
0
LINE
8
0
6
CONTINUOUS
10
134.9726647
20
-25.075
11
131.8522956
21
-36.7203762
0
LINE
8
0
6
CONTINUOUS
10
131.8522956
20
-36.7203762
11
150.2531826
21
-41.650879
0
ENDSEC
0
EOF