0
SECTION
2
HEADER
9
$INSUNITS
70
4
0
ENDSEC
0
SECTION
2
TABLES
0
TABLE
2
LTYPE
0
LTYPE
72
65
70
0
2
CONTINUOUS
3
______
73
0
40
0
0
LTYPE
72
65
70
0
2
DASHED
3
_ _ _ 
73
2
40
7.5
49
5
49
-2.5
0
LTYPE
72
65
70
0
2
DOTTED
3
. . . 
73
2
40
1.5
49
0.5
49
-1
0
ENDTAB
0
TABLE
2
LAYER
0
ENDTAB
0
ENDSEC
0
SECTION
2
ENTITIES
0
LINE
8
0
6
CONTINUOUS
10
236.274676
20
-9.525
11
270.525
21
-9.525
0
LINE
8
0
6
CONTINUOUS
10
270.525
20
-9.525
11
270.525
21
-6.025
0
LINE
8
0
6
CONTINUOUS
10
229.475
20
6.4190059
11
229.475
21
85.725
0
LINE
8
0
6
CONTINUOUS
10
249.525
20
85.725
11
229.475
21
85.725
0
LINE
8
0
6
CONTINUOUS
10
270.525
20
-6.025
11
309.675
21
-6.025
0
LINE
8
0
6
CONTINUOUS
10
269.575
20
89.225
11
249.525
21
89.225
0
LINE
8
0
6
CONTINUOUS
10
249.525
20
89.225
11
249.525
21
85.725
0
LINE
8
0
6
CONTINUOUS
10
310.625
20
89.225
11
310.625
21
92.725
0
LINE
8
0
6
CONTINUOUS
10
310.625
20
92.725
11
269.575
21
92.725
0
LINE
8
0
6
CONTINUOUS
10
269.575
20
92.725
11
269.575
21
89.225
0
LINE
8
0
6
CONTINUOUS
10
330.675
20
85.725
11
330.675
21
89.225
0
LINE
8
0
6
CONTINUOUS
10
330.675
20
89.225
11
310.625
21
89.225
0
LINE
8
0
6
CONTINUOUS
10
309.675
20
-9.525
11
329.725
21
-9.525
0
LINE
8
0
6
CONTINUOUS
10
309.675
20
-6.025
11
309.675
21
-9.525
0
LINE
8
0
6
CONTINUOUS
10
350.725
20
82.225
11
350.725
21
85.725
0
LINE
8
0
6
CONTINUOUS
10
350.725
20
85.725
11
330.675
21
85.725
0
LINE
8
0
6
CONTINUOUS
10
329.725
20
-13.025
11
390.825
21
-13.025
0
LINE
8
0
6
CONTINUOUS
10
329.725
20
-9.525
11
329.725
21
-13.025
0
LINE
8
0
6
CONTINUOUS
10
350.725
20
82.225
11
400.35
21
82.225
0
LINE
8
0
6
CONTINUOUS
10
390.825
20
-13.025
11
390.825
21
-3.975
0
LINE
8
0
6
CONTINUOUS
10
407.49375
20
-3.975
11
407.49375
21
35.075
0
LINE
8
0
6
CONTINUOUS
10
402.73125
20
35.075
11
407.49375
21
35.075
0
LINE
8
0
6
CONTINUOUS
10
407.49375
20
-3.975
11
390.825
21
-3.975
0
LINE
8
0
6
CONTINUOUS
10
402.73125
20
35.075
11
402.73125
21
44.125
0
LINE
8
0
6
CONTINUOUS
10
400.35
20
73.175
11
400.825
21
73.175
0
LINE
8
0
6
CONTINUOUS
10
400.825
20
73.175
11
400.825
21
63.175
0
LINE
8
0
6
CONTINUOUS
10
400.35
20
73.175
11
400.35
21
82.225
0
LINE
8
0
6
CONTINUOUS
10
402.73125
20
44.125
11
415.6375
21
44.125
0
LINE
8
0
6
CONTINUOUS
10
415.6375
20
44.125
11
415.6375
21
63.175
0
LINE
8
0
6
CONTINUOUS
10
415.6375
20
63.175
11
400.825
21
63.175
0
LINE
8
0
6
CONTINUOUS
10
213.4322956
20
2.1203762
11
224.0568174
21
-37.530879
0
LINE
8
0
6
CONTINUOUS
10
224.0568174
20
-37.530879
11
242.4577044
21
-32.6003762
0
LINE
8
0
6
CONTINUOUS
10
242.4577044
20
-32.6003762
11
236.274676
21
-9.525
0
LINE
8
0
6
CONTINUOUS
10
229.475
20
6.4190059
11
213.4322956
21
2.1203762
0
ENDSEC
0
EOF