0
SECTION
2
HEADER
9
$INSUNITS
70
4
0
ENDSEC
0
SECTION
2
TABLES
0
TABLE
2
LTYPE
0
LTYPE
72
65
70
0
2
CONTINUOUS
3
______
73
0
40
0
0
LTYPE
72
65
70
0
2
DASHED
3
_ _ _ 
73
2
40
7.5
49
5
49
-2.5
0
LTYPE
72
65
70
0
2
DOTTED
3
. . . 
73
2
40
1.5
49
0.5
49
-1
0
ENDTAB
0
TABLE
2
LAYER
0
ENDTAB
0
ENDSEC
0
SECTION
2
ENTITIES
0
LINE
8
0
6
CONTINUOUS
10
236.274676
20
-9.525
11
270.525
21
-9.525
0
LINE
8
0
6
CONTINUOUS
10
270.525
20
-9.525
11
270.525
21
-6.025
0
LINE
8
0
6
CONTINUOUS
10
229.475
20
6.4190059
11
229.475
21
85.725
0
LINE
8
0
6
CONTINUOUS
10
249.525
20
85.725
11
229.475
21
85.725
0
LINE
8
0
6
CONTINUOUS
10
270.525
20
-6.025
11
309.675
21
-6.025
0
LINE
8
0
6
CONTINUOUS
10
269.575
20
89.225
11
249.525
21
89.225
0
LINE
8
0
6
CONTINUOUS
10
249.525
20
89.225
11
249.525
21
85.725
0
LINE
8
0
6
CONTINUOUS
10
310.625
20
89.225
11
310.625
21
92.725
0
LINE
8
0
6
CONTINUOUS
10
310.625
20
92.725
11
269.575
21
92.725
0
LINE
8
0
6
CONTINUOUS
10
269.575
20
92.725
11
269.575
21
89.225
0
LINE
8
0
6
CONTINUOUS
10
330.675
20
85.725
11
330.675
21
89.225
0
LINE
8
0
6
CONTINUOUS
10
330.675
20
89.225
11
310.625
21
89.225
0
LINE
8
0
6
CONTINUOUS
10
309.675
20
-9.525
11
329.725
21
-9.525
0
LINE
8
0
6
CONTINUOUS
10
309.675
20
-6.025
11
309.675
21
-9.525
0
LINE
8
0
6
CONTINUOUS
10
350.725
20
82.225
11
350.725
21
85.725
0
LINE
8
0
6
CONTINUOUS
10
350.725
20
85.725
11
330.675
21
85.725
0
LINE
8
0
6
CONTINUOUS
10
329.725
20
-13.025
11
390.825
21
-13.025
0
LINE
8
0
6
CONTINUOUS
10
329.725
20
-9.525
11
329.725
21
-13.025
0
LINE
8
0
6
CONTINUOUS
10
350.725
20
82.225
11
400.35
21
82.225
0
LINE
8
0
6
CONTINUOUS
10
390.825
20
-13.025
11
390.825
21
-3.975
0
LINE
8
0
6
CONTINUOUS
10
407.49375
20
-3.975
11
407.49375
21
35.075
0
LINE
8
0
6
CONTINUOUS
10
402.73125
20
35.075
11
407.49375
21
35.075
0
LINE
8
0
6
CONTINUOUS
10
407.49375
20
-3.975
11
390.825
21
-3.975
0
LINE
8
0
6
CONTINUOUS
10
402.73125
20
35.075
11
402.73125
21
44.125
0
LINE
8
0
6
CONTINUOUS
10
400.35
20
73.175
11
400.825
21
73.175
0
LINE
8
0
6
CONTINUOUS
10
400.825
20
73.175
11
400.825
21
63.175
0
LINE
8
0
6
CONTINUOUS
10
400.35
20
73.175
11
400.35
21
82.225
0
LINE
8
0
6
CONTINUOUS
10
402.73125
20
44.125
11
415.6375
21
44.125
0
LINE
8
0
6
CONTINUOUS
10
415.6375
20
44.125
11
415.6375
21
63.175
0
LINE
8
0
6
CONTINUOUS
10
415.6375
20
63.175
11
400.825
21
63.175
0
LINE
8
0
6
CONTINUOUS
10
213.4322956
20
2.1203762
11
224.0568174
21
-37.530879
0
LINE
8
0
6
CONTINUOUS
10
224.0568174
20
-37.530879
11
242.4577044
21
-32.6003762
0
LINE
8
0
6
CONTINUOUS
10
242.4577044
20
-32.6003762
11
236.274676
21
-9.525
0
LINE
8
0
6
CONTINUOUS
10
229.475
20
6.4190059
11
213.4322956
21
2.1203762
0
LINE
8
0
6
CONTINUOUS
10
243
20
-7
11
257
21
-7
0
LINE
8
0
6
CONTINUOUS
10
257
20
-7
11
257
21
7
0
LINE
8
0
6
CONTINUOUS
10
257
20
7
11
243
21
7
0
LINE
8
0
6
CONTINUOUS
10
243
20
7
11
243
21
-7
0
LINE
8
0
6
CONTINUOUS
10
243
20
12.05
11
257
21
12.05
0
LINE
8
0
6
CONTINUOUS
10
257
20
12.05
11
257
21
26.05
0
LINE
8
0
6
CONTINUOUS
10
257
20
26.05
11
243
21
26.05
0
LINE
8
0
6
CONTINUOUS
10
243
20
26.05
11
243
21
12.05
0
LINE
8
0
6
CONTINUOUS
10
243
20
31.1
11
257
21
31.1
0
LINE
8
0
6
CONTINUOUS
10
257
20
31.1
11
257
21
45.1
0
LINE
8
0
6
CONTINUOUS
10
257
20
45.1
11
243
21
45.1
0
LINE
8
0
6
CONTINUOUS
10
243
20
45.1
11
243
21
31.1
0
LINE
8
0
6
CONTINUOUS
10
243
20
50.15
11
257
21
50.15
0
LINE
8
0
6
CONTINUOUS
10
257
20
50.15
11
257
21
64.15
0
LINE
8
0
6
CONTINUOUS
10
257
20
64.15
11
243
21
64.15
0
LINE
8
0
6
CONTINUOUS
10
243
20
64.15
11
243
21
50.15
0
LINE
8
0
6
CONTINUOUS
10
243
20
69.2
11
257
21
69.2
0
LINE
8
0
6
CONTINUOUS
10
257
20
69.2
11
257
21
83.2
0
LINE
8
0
6
CONTINUOUS
10
257
20
83.2
11
243
21
83.2
0
LINE
8
0
6
CONTINUOUS
10
243
20
83.2
11
243
21
69.2
0
LINE
8
0
6
CONTINUOUS
10
263.05
20
-3.5
11
277.05
21
-3.5
0
LINE
8
0
6
CONTINUOUS
10
277.05
20
-3.5
11
277.05
21
10.5
0
LINE
8
0
6
CONTINUOUS
10
277.05
20
10.5
11
263.05
21
10.5
0
LINE
8
0
6
CONTINUOUS
10
263.05
20
10.5
11
263.05
21
-3.5
0
LINE
8
0
6
CONTINUOUS
10
263.05
20
15.55
11
277.05
21
15.55
0
LINE
8
0
6
CONTINUOUS
10
277.05
20
15.55
11
277.05
21
29.55
0
LINE
8
0
6
CONTINUOUS
10
277.05
20
29.55
11
263.05
21
29.55
0
LINE
8
0
6
CONTINUOUS
10
263.05
20
29.55
11
263.05
21
15.55
0
LINE
8
0
6
CONTINUOUS
10
263.05
20
34.6
11
277.05
21
34.6
0
LINE
8
0
6
CONTINUOUS
10
277.05
20
34.6
11
277.05
21
48.6
0
LINE
8
0
6
CONTINUOUS
10
277.05
20
48.6
11
263.05
21
48.6
0
LINE
8
0
6
CONTINUOUS
10
263.05
20
48.6
11
263.05
21
34.6
0
LINE
8
0
6
CONTINUOUS
10
263.05
20
53.65
11
277.05
21
53.65
0
LINE
8
0
6
CONTINUOUS
10
277.05
20
53.65
11
277.05
21
67.65
0
LINE
8
0
6
CONTINUOUS
10
277.05
20
67.65
11
263.05
21
67.65
0
LINE
8
0
6
CONTINUOUS
10
263.05
20
67.65
11
263.05
21
53.65
0
LINE
8
0
6
CONTINUOUS
10
263.05
20
72.7
11
277.05
21
72.7
0
LINE
8
0
6
CONTINUOUS
10
277.05
20
72.7
11
277.05
21
86.7
0
LINE
8
0
6
CONTINUOUS
10
277.05
20
86.7
11
263.05
21
86.7
0
LINE
8
0
6
CONTINUOUS
10
263.05
20
86.7
11
263.05
21
72.7
0
LINE
8
0
6
CONTINUOUS
10
283.1
20
0
11
297.1
21
0
0
LINE
8
0
6
CONTINUOUS
10
297.1
20
0
11
297.1
21
14
0
LINE
8
0
6
CONTINUOUS
10
297.1
20
14
11
283.1
21
14
0
LINE
8
0
6
CONTINUOUS
10
283.1
20
14
11
283.1
21
0
0
LINE
8
0
6
CONTINUOUS
10
283.1
20
19.05
11
297.1
21
19.05
0
LINE
8
0
6
CONTINUOUS
10
297.1
20
19.05
11
297.1
21
33.05
0
LINE
8
0
6
CONTINUOUS
10
297.1
20
33.05
11
283.1
21
33.05
0
LINE
8
0
6
CONTINUOUS
10
283.1
20
33.05
11
283.1
21
19.05
0
LINE
8
0
6
CONTINUOUS
10
283.1
20
38.1
11
297.1
21
38.1
0
LINE
8
0
6
CONTINUOUS
10
297.1
20
38.1
11
297.1
21
52.1
0
LINE
8
0
6
CONTINUOUS
10
297.1
20
52.1
11
283.1
21
52.1
0
LINE
8
0
6
CONTINUOUS
10
283.1
20
52.1
11
283.1
21
38.1
0
LINE
8
0
6
CONTINUOUS
10
283.1
20
57.15
11
297.1
21
57.15
0
LINE
8
0
6
CONTINUOUS
10
297.1
20
57.15
11
297.1
21
71.15
0
LINE
8
0
6
CONTINUOUS
10
297.1
20
71.15
11
283.1
21
71.15
0
LINE
8
0
6
CONTINUOUS
10
283.1
20
71.15
11
283.1
21
57.15
0
LINE
8
0
6
CONTINUOUS
10
283.1
20
76.2
11
297.1
21
76.2
0
LINE
8
0
6
CONTINUOUS
10
297.1
20
76.2
11
297.1
21
90.2
0
LINE
8
0
6
CONTINUOUS
10
297.1
20
90.2
11
283.1
21
90.2
0
LINE
8
0
6
CONTINUOUS
10
283.1
20
90.2
11
283.1
21
76.2
0
LINE
8
0
6
CONTINUOUS
10
303.15
20
-3.5
11
317.15
21
-3.5
0
LINE
8
0
6
CONTINUOUS
10
317.15
20
-3.5
11
317.15
21
10.5
0
LINE
8
0
6
CONTINUOUS
10
317.15
20
10.5
11
303.15
21
10.5
0
LINE
8
0
6
CONTINUOUS
10
303.15
20
10.5
11
303.15
21
-3.5
0
LINE
8
0
6
CONTINUOUS
10
303.15
20
15.55
11
317.15
21
15.55
0
LINE
8
0
6
CONTINUOUS
10
317.15
20
15.55
11
317.15
21
29.55
0
LINE
8
0
6
CONTINUOUS
10
317.15
20
29.55
11
303.15
21
29.55
0
LINE
8
0
6
CONTINUOUS
10
303.15
20
29.55
11
303.15
21
15.55
0
LINE
8
0
6
CONTINUOUS
10
303.15
20
34.6
11
317.15
21
34.6
0
LINE
8
0
6
CONTINUOUS
10
317.15
20
34.6
11
317.15
21
48.6
0
LINE
8
0
6
CONTINUOUS
10
317.15
20
48.6
11
303.15
21
48.6
0
LINE
8
0
6
CONTINUOUS
10
303.15
20
48.6
11
303.15
21
34.6
0
LINE
8
0
6
CONTINUOUS
10
303.15
20
53.65
11
317.15
21
53.65
0
LINE
8
0
6
CONTINUOUS
10
317.15
20
53.65
11
317.15
21
67.65
0
LINE
8
0
6
CONTINUOUS
10
317.15
20
67.65
11
303.15
21
67.65
0
LINE
8
0
6
CONTINUOUS
10
303.15
20
67.65
11
303.15
21
53.65
0
LINE
8
0
6
CONTINUOUS
10
303.15
20
72.7
11
317.15
21
72.7
0
LINE
8
0
6
CONTINUOUS
10
317.15
20
72.7
11
317.15
21
86.7
0
LINE
8
0
6
CONTINUOUS
10
317.15
20
86.7
11
303.15
21
86.7
0
LINE
8
0
6
CONTINUOUS
10
303.15
20
86.7
11
303.15
21
72.7
0
LINE
8
0
6
CONTINUOUS
10
323.2
20
-7
11
337.2
21
-7
0
LINE
8
0
6
CONTINUOUS
10
337.2
20
-7
11
337.2
21
7
0
LINE
8
0
6
CONTINUOUS
10
337.2
20
7
11
323.2
21
7
0
LINE
8
0
6
CONTINUOUS
10
323.2
20
7
11
323.2
21
-7
0
LINE
8
0
6
CONTINUOUS
10
323.2
20
12.05
11
337.2
21
12.05
0
LINE
8
0
6
CONTINUOUS
10
337.2
20
12.05
11
337.2
21
26.05
0
LINE
8
0
6
CONTINUOUS
10
337.2
20
26.05
11
323.2
21
26.05
0
LINE
8
0
6
CONTINUOUS
10
323.2
20
26.05
11
323.2
21
12.05
0
LINE
8
0
6
CONTINUOUS
10
323.2
20
31.1
11
337.2
21
31.1
0
LINE
8
0
6
CONTINUOUS
10
337.2
20
31.1
11
337.2
21
45.1
0
LINE
8
0
6
CONTINUOUS
10
337.2
20
45.1
11
323.2
21
45.1
0
LINE
8
0
6
CONTINUOUS
10
323.2
20
45.1
11
323.2
21
31.1
0
LINE
8
0
6
CONTINUOUS
10
323.2
20
50.15
11
337.2
21
50.15
0
LINE
8
0
6
CONTINUOUS
10
337.2
20
50.15
11
337.2
21
64.15
0
LINE
8
0
6
CONTINUOUS
10
337.2
20
64.15
11
323.2
21
64.15
0
LINE
8
0
6
CONTINUOUS
10
323.2
20
64.15
11
323.2
21
50.15
0
LINE
8
0
6
CONTINUOUS
10
323.2
20
69.2
11
337.2
21
69.2
0
LINE
8
0
6
CONTINUOUS
10
337.2
20
69.2
11
337.2
21
83.2
0
LINE
8
0
6
CONTINUOUS
10
337.2
20
83.2
11
323.2
21
83.2
0
LINE
8
0
6
CONTINUOUS
10
323.2
20
83.2
11
323.2
21
69.2
0
LINE
8
0
6
CONTINUOUS
10
343.25
20
-10.5
11
357.25
21
-10.5
0
LINE
8
0
6
CONTINUOUS
10
357.25
20
-10.5
11
357.25
21
3.5
0
LINE
8
0
6
CONTINUOUS
10
357.25
20
3.5
11
343.25
21
3.5
0
LINE
8
0
6
CONTINUOUS
10
343.25
20
3.5
11
343.25
21
-10.5
0
LINE
8
0
6
CONTINUOUS
10
343.25
20
8.55
11
357.25
21
8.55
0
LINE
8
0
6
CONTINUOUS
10
357.25
20
8.55
11
357.25
21
22.55
0
LINE
8
0
6
CONTINUOUS
10
357.25
20
22.55
11
343.25
21
22.55
0
LINE
8
0
6
CONTINUOUS
10
343.25
20
22.55
11
343.25
21
8.55
0
LINE
8
0
6
CONTINUOUS
10
343.25
20
27.6
11
357.25
21
27.6
0
LINE
8
0
6
CONTINUOUS
10
357.25
20
27.6
11
357.25
21
41.6
0
LINE
8
0
6
CONTINUOUS
10
357.25
20
41.6
11
343.25
21
41.6
0
LINE
8
0
6
CONTINUOUS
10
343.25
20
41.6
11
343.25
21
27.6
0
LINE
8
0
6
CONTINUOUS
10
343.25
20
46.65
11
357.25
21
46.65
0
LINE
8
0
6
CONTINUOUS
10
357.25
20
46.65
11
357.25
21
60.65
0
LINE
8
0
6
CONTINUOUS
10
357.25
20
60.65
11
343.25
21
60.65
0
LINE
8
0
6
CONTINUOUS
10
343.25
20
60.65
11
343.25
21
46.65
0
LINE
8
0
6
CONTINUOUS
10
343.25
20
65.7
11
357.25
21
65.7
0
LINE
8
0
6
CONTINUOUS
10
357.25
20
65.7
11
357.25
21
79.7
0
LINE
8
0
6
CONTINUOUS
10
357.25
20
79.7
11
343.25
21
79.7
0
LINE
8
0
6
CONTINUOUS
10
343.25
20
79.7
11
343.25
21
65.7
0
LINE
8
0
6
CONTINUOUS
10
363.3
20
-10.5
11
377.3
21
-10.5
0
LINE
8
0
6
CONTINUOUS
10
377.3
20
-10.5
11
377.3
21
3.5
0
LINE
8
0
6
CONTINUOUS
10
377.3
20
3.5
11
363.3
21
3.5
0
LINE
8
0
6
CONTINUOUS
10
363.3
20
3.5
11
363.3
21
-10.5
0
LINE
8
0
6
CONTINUOUS
10
379.96875
20
8.55
11
393.96875
21
8.55
0
LINE
8
0
6
CONTINUOUS
10
393.96875
20
8.55
11
393.96875
21
22.55
0
LINE
8
0
6
CONTINUOUS
10
393.96875
20
22.55
11
379.96875
21
22.55
0
LINE
8
0
6
CONTINUOUS
10
379.96875
20
22.55
11
379.96875
21
8.55
0
LINE
8
0
6
CONTINUOUS
10
375.20625
20
27.6
11
389.20625
21
27.6
0
LINE
8
0
6
CONTINUOUS
10
389.20625
20
27.6
11
389.20625
21
41.6
0
LINE
8
0
6
CONTINUOUS
10
389.20625
20
41.6
11
375.20625
21
41.6
0
LINE
8
0
6
CONTINUOUS
10
375.20625
20
41.6
11
375.20625
21
27.6
0
LINE
8
0
6
CONTINUOUS
10
363.3
20
46.65
11
377.3
21
46.65
0
LINE
8
0
6
CONTINUOUS
10
377.3
20
46.65
11
377.3
21
60.65
0
LINE
8
0
6
CONTINUOUS
10
377.3
20
60.65
11
363.3
21
60.65
0
LINE
8
0
6
CONTINUOUS
10
363.3
20
60.65
11
363.3
21
46.65
0
LINE
8
0
6
CONTINUOUS
10
372.825
20
65.7
11
386.825
21
65.7
0
LINE
8
0
6
CONTINUOUS
10
386.825
20
65.7
11
386.825
21
79.7
0
LINE
8
0
6
CONTINUOUS
10
386.825
20
79.7
11
372.825
21
79.7
0
LINE
8
0
6
CONTINUOUS
10
372.825
20
79.7
11
372.825
21
65.7
0
LINE
8
0
6
CONTINUOUS
10
388.1125
20
46.65
11
402.1125
21
46.65
0
LINE
8
0
6
CONTINUOUS
10
402.1125
20
46.65
11
402.1125
21
60.65
0
LINE
8
0
6
CONTINUOUS
10
402.1125
20
60.65
11
388.1125
21
60.65
0
LINE
8
0
6
CONTINUOUS
10
388.1125
20
60.65
11
388.1125
21
46.65
0
LINE
8
0
6
CONTINUOUS
10
219.3717859
20
-10.2902525
11
222.9952525
21
-23.8132141
0
LINE
8
0
6
CONTINUOUS
10
222.9952525
20
-23.8132141
11
236.5182141
21
-20.1897475
0
LINE
8
0
6
CONTINUOUS
10
236.5182141
20
-20.1897475
11
232.8947475
21
-6.6667859
0
LINE
8
0
6
CONTINUOUS
10
232.8947475
20
-6.6667859
11
219.3717859
21
-10.2902525
0
LINE
8
0
6
CONTINUOUS
10
397.89375
20
7.55
11
404.89375
21
7.55
0
LINE
8
0
6
CONTINUOUS
10
404.89375
20
7.55
11
404.89375
21
21.55
0
LINE
8
0
6
CONTINUOUS
10
404.89375
20
21.55
11
397.89375
21
21.55
0
LINE
8
0
6
CONTINUOUS
10
397.89375
20
21.55
11
397.89375
21
7.55
0
LINE
8
0
6
CONTINUOUS
10
393.13125
20
26.6
11
400.13125
21
26.6
0
LINE
8
0
6
CONTINUOUS
10
400.13125
20
26.6
11
400.13125
21
40.6
0
LINE
8
0
6
CONTINUOUS
10
400.13125
20
40.6
11
393.13125
21
40.6
0
LINE
8
0
6
CONTINUOUS
10
393.13125
20
40.6
11
393.13125
21
26.6
0
LINE
8
0
6
CONTINUOUS
10
390.75
20
64.7
11
397.75
21
64.7
0
LINE
8
0
6
CONTINUOUS
10
397.75
20
64.7
11
397.75
21
78.7
0
LINE
8
0
6
CONTINUOUS
10
397.75
20
78.7
11
390.75
21
78.7
0
LINE
8
0
6
CONTINUOUS
10
390.75
20
78.7
11
390.75
21
64.7
0
LINE
8
0
6
CONTINUOUS
10
223.0451915
20
-27.863292
11
224.8569248
21
-34.6247728
0
LINE
8
0
6
CONTINUOUS
10
224.8569248
20
-34.6247728
11
238.3798863
21
-31.0013062
0
LINE
8
0
6
CONTINUOUS
10
238.3798863
20
-31.0013062
11
236.568153
21
-24.2398254
0
LINE
8
0
6
CONTINUOUS
10
236.568153
20
-24.2398254
11
223.0451915
21
-27.863292
0
LINE
8
0
6
CONTINUOUS
10
369.04375
20
7.55
11
376.04375
21
7.55
0
LINE
8
0
6
CONTINUOUS
10
376.04375
20
7.55
11
376.04375
21
21.55
0
LINE
8
0
6
CONTINUOUS
10
376.04375
20
21.55
11
369.04375
21
21.55
0
LINE
8
0
6
CONTINUOUS
10
369.04375
20
21.55
11
369.04375
21
7.55
0
LINE
8
0
6
CONTINUOUS
10
364.28125
20
26.6
11
371.28125
21
26.6
0
LINE
8
0
6
CONTINUOUS
10
371.28125
20
26.6
11
371.28125
21
40.6
0
LINE
8
0
6
CONTINUOUS
10
371.28125
20
40.6
11
364.28125
21
40.6
0
LINE
8
0
6
CONTINUOUS
10
364.28125
20
40.6
11
364.28125
21
26.6
0
LINE
8
0
6
CONTINUOUS
10
361.9
20
64.7
11
368.9
21
64.7
0
LINE
8
0
6
CONTINUOUS
10
368.9
20
64.7
11
368.9
21
78.7
0
LINE
8
0
6
CONTINUOUS
10
368.9
20
78.7
11
361.9
21
78.7
0
LINE
8
0
6
CONTINUOUS
10
361.9
20
78.7
11
361.9
21
64.7
0
LINE
8
0
6
CONTINUOUS
10
215.578262
20
0.0036681
11
217.3899953
21
-6.7578127
0
LINE
8
0
6
CONTINUOUS
10
217.3899953
20
-6.7578127
11
230.9129568
21
-3.1343461
0
LINE
8
0
6
CONTINUOUS
10
230.9129568
20
-3.1343461
11
229.1012235
21
3.6271347
0
LINE
8
0
6
CONTINUOUS
10
229.1012235
20
3.6271347
11
215.578262
21
0.0036681
0
ENDSEC
0
EOF