0
SECTION
2
HEADER
9
$INSUNITS
70
4
0
ENDSEC
0
SECTION
2
TABLES
0
TABLE
2
LTYPE
0
LTYPE
72
65
70
0
2
CONTINUOUS
3
______
73
0
40
0
0
LTYPE
72
65
70
0
2
DASHED
3
_ _ _ 
73
2
40
7.5
49
5
49
-2.5
0
LTYPE
72
65
70
0
2
DOTTED
3
. . . 
73
2
40
1.5
49
0.5
49
-1
0
ENDTAB
0
TABLE
2
LAYER
0
ENDTAB
0
ENDSEC
0
SECTION
2
ENTITIES
0
LINE
8
0
6
CONTINUOUS
10
-20.525
20
47.625
11
-10.475
21
47.625
0
LINE
8
0
6
CONTINUOUS
10
-20.525
20
66.675
11
19.575
21
66.675
0
LINE
8
0
6
CONTINUOUS
10
-20.525
20
66.675
11
-20.525
21
47.625
0
LINE
8
0
6
CONTINUOUS
10
-12.38125
20
-9.525
11
-12.38125
21
19.525
0
LINE
8
0
6
CONTINUOUS
10
-12.38125
20
19.525
11
-7.61875
21
19.525
0
LINE
8
0
6
CONTINUOUS
10
-7.61875
20
19.525
11
-7.61875
21
37.625
0
LINE
8
0
6
CONTINUOUS
10
-7.61875
20
37.625
11
-10.475
21
37.625
0
LINE
8
0
6
CONTINUOUS
10
-10.475
20
37.625
11
-10.475
21
47.625
0
LINE
8
0
6
CONTINUOUS
10
39.625
20
70.175
11
19.575
21
70.175
0
LINE
8
0
6
CONTINUOUS
10
19.575
20
70.175
11
19.575
21
66.675
0
LINE
8
0
6
CONTINUOUS
10
59.675
20
73.675
11
39.625
21
73.675
0
LINE
8
0
6
CONTINUOUS
10
39.625
20
73.675
11
39.625
21
70.175
0
LINE
8
0
6
CONTINUOUS
10
100.725
20
73.675
11
100.725
21
77.175
0
LINE
8
0
6
CONTINUOUS
10
100.725
20
77.175
11
59.675
21
77.175
0
LINE
8
0
6
CONTINUOUS
10
59.675
20
77.175
11
59.675
21
73.675
0
LINE
8
0
6
CONTINUOUS
10
120.775
20
70.175
11
120.775
21
73.675
0
LINE
8
0
6
CONTINUOUS
10
120.775
20
73.675
11
100.725
21
73.675
0
LINE
8
0
6
CONTINUOUS
10
138.31875
20
-6.025
11
140.0770969
21
-6.025
0
LINE
8
0
6
CONTINUOUS
10
140.825
20
-3.2337875
11
140.825
21
70.175
0
LINE
8
0
6
CONTINUOUS
10
140.825
20
70.175
11
120.775
21
70.175
0
LINE
8
0
6
CONTINUOUS
10
-25.5375
20
-28.575
11
38.06875
21
-28.575
0
LINE
8
0
6
CONTINUOUS
10
-25.5375
20
-9.525
11
-12.38125
21
-9.525
0
LINE
8
0
6
CONTINUOUS
10
-25.5375
20
-9.525
11
-25.5375
21
-28.575
0
LINE
8
0
6
CONTINUOUS
10
38.06875
20
-28.575
11
38.06875
21
-25.075
0
LINE
8
0
6
CONTINUOUS
10
38.06875
20
-25.075
11
63.13125
21
-25.075
0
LINE
8
0
6
CONTINUOUS
10
63.13125
20
-25.075
11
63.13125
21
-21.575
0
LINE
8
0
6
CONTINUOUS
10
63.13125
20
-21.575
11
97.26875
21
-21.575
0
LINE
8
0
6
CONTINUOUS
10
97.26875
20
-25.075
11
134.9726647
21
-25.075
0
LINE
8
0
6
CONTINUOUS
10
138.31875
20
-12.5872398
11
138.31875
21
-6.025
0
LINE
8
0
6
CONTINUOUS
10
97.26875
20
-21.575
11
97.26875
21
-25.075
0
LINE
8
0
6
CONTINUOUS
10
150.2531826
20
-41.650879
11
160.8777044
21
-1.9996238
0
LINE
8
0
6
CONTINUOUS
10
160.8777044
20
-1.9996238
11
142.4768174
21
2.930879
0
LINE
8
0
6
CONTINUOUS
10
142.4768174
20
2.930879
11
140.825
21
-3.2337875
0
LINE
8
0
6
CONTINUOUS
10
140.0770969
20
-6.025
11
138.31875
21
-12.5872398
0
LINE
8
0
6
CONTINUOUS
10
134.9726647
20
-25.075
11
131.8522956
21
-36.7203762
0
LINE
8
0
6
CONTINUOUS
10
131.8522956
20
-36.7203762
11
150.2531826
21
-41.650879
0
LINE
8
0
6
CONTINUOUS
10
-7
20
50.15
11
7
21
50.15
0
LINE
8
0
6
CONTINUOUS
10
7
20
50.15
11
7
21
64.15
0
LINE
8
0
6
CONTINUOUS
10
7
20
64.15
11
-7
21
64.15
0
LINE
8
0
6
CONTINUOUS
10
-7
20
64.15
11
-7
21
50.15
0
LINE
8
0
6
CONTINUOUS
10
1.14375
20
-7
11
15.14375
21
-7
0
LINE
8
0
6
CONTINUOUS
10
15.14375
20
-7
11
15.14375
21
7
0
LINE
8
0
6
CONTINUOUS
10
15.14375
20
7
11
1.14375
21
7
0
LINE
8
0
6
CONTINUOUS
10
1.14375
20
7
11
1.14375
21
-7
0
LINE
8
0
6
CONTINUOUS
10
5.90625
20
12.05
11
19.90625
21
12.05
0
LINE
8
0
6
CONTINUOUS
10
19.90625
20
12.05
11
19.90625
21
26.05
0
LINE
8
0
6
CONTINUOUS
10
19.90625
20
26.05
11
5.90625
21
26.05
0
LINE
8
0
6
CONTINUOUS
10
5.90625
20
26.05
11
5.90625
21
12.05
0
LINE
8
0
6
CONTINUOUS
10
8.2875
20
31.1
11
22.2875
21
31.1
0
LINE
8
0
6
CONTINUOUS
10
22.2875
20
31.1
11
22.2875
21
45.1
0
LINE
8
0
6
CONTINUOUS
10
22.2875
20
45.1
11
8.2875
21
45.1
0
LINE
8
0
6
CONTINUOUS
10
8.2875
20
45.1
11
8.2875
21
31.1
0
LINE
8
0
6
CONTINUOUS
10
13.05
20
50.15
11
27.05
21
50.15
0
LINE
8
0
6
CONTINUOUS
10
27.05
20
50.15
11
27.05
21
64.15
0
LINE
8
0
6
CONTINUOUS
10
27.05
20
64.15
11
13.05
21
64.15
0
LINE
8
0
6
CONTINUOUS
10
13.05
20
64.15
11
13.05
21
50.15
0
LINE
8
0
6
CONTINUOUS
10
33.1
20
-3.5
11
47.1
21
-3.5
0
LINE
8
0
6
CONTINUOUS
10
47.1
20
-3.5
11
47.1
21
10.5
0
LINE
8
0
6
CONTINUOUS
10
47.1
20
10.5
11
33.1
21
10.5
0
LINE
8
0
6
CONTINUOUS
10
33.1
20
10.5
11
33.1
21
-3.5
0
LINE
8
0
6
CONTINUOUS
10
33.1
20
15.55
11
47.1
21
15.55
0
LINE
8
0
6
CONTINUOUS
10
47.1
20
15.55
11
47.1
21
29.55
0
LINE
8
0
6
CONTINUOUS
10
47.1
20
29.55
11
33.1
21
29.55
0
LINE
8
0
6
CONTINUOUS
10
33.1
20
29.55
11
33.1
21
15.55
0
LINE
8
0
6
CONTINUOUS
10
33.1
20
34.6
11
47.1
21
34.6
0
LINE
8
0
6
CONTINUOUS
10
47.1
20
34.6
11
47.1
21
48.6
0
LINE
8
0
6
CONTINUOUS
10
47.1
20
48.6
11
33.1
21
48.6
0
LINE
8
0
6
CONTINUOUS
10
33.1
20
48.6
11
33.1
21
34.6
0
LINE
8
0
6
CONTINUOUS
10
33.1
20
53.65
11
47.1
21
53.65
0
LINE
8
0
6
CONTINUOUS
10
47.1
20
53.65
11
47.1
21
67.65
0
LINE
8
0
6
CONTINUOUS
10
47.1
20
67.65
11
33.1
21
67.65
0
LINE
8
0
6
CONTINUOUS
10
33.1
20
67.65
11
33.1
21
53.65
0
LINE
8
0
6
CONTINUOUS
10
53.15
20
0
11
67.15
21
0
0
LINE
8
0
6
CONTINUOUS
10
67.15
20
0
11
67.15
21
14
0
LINE
8
0
6
CONTINUOUS
10
67.15
20
14
11
53.15
21
14
0
LINE
8
0
6
CONTINUOUS
10
53.15
20
14
11
53.15
21
0
0
LINE
8
0
6
CONTINUOUS
10
53.15
20
19.05
11
67.15
21
19.05
0
LINE
8
0
6
CONTINUOUS
10
67.15
20
19.05
11
67.15
21
33.05
0
LINE
8
0
6
CONTINUOUS
10
67.15
20
33.05
11
53.15
21
33.05
0
LINE
8
0
6
CONTINUOUS
10
53.15
20
33.05
11
53.15
21
19.05
0
LINE
8
0
6
CONTINUOUS
10
53.15
20
38.1
11
67.15
21
38.1
0
LINE
8
0
6
CONTINUOUS
10
67.15
20
38.1
11
67.15
21
52.1
0
LINE
8
0
6
CONTINUOUS
10
67.15
20
52.1
11
53.15
21
52.1
0
LINE
8
0
6
CONTINUOUS
10
53.15
20
52.1
11
53.15
21
38.1
0
LINE
8
0
6
CONTINUOUS
10
53.15
20
57.15
11
67.15
21
57.15
0
LINE
8
0
6
CONTINUOUS
10
67.15
20
57.15
11
67.15
21
71.15
0
LINE
8
0
6
CONTINUOUS
10
67.15
20
71.15
11
53.15
21
71.15
0
LINE
8
0
6
CONTINUOUS
10
53.15
20
71.15
11
53.15
21
57.15
0
LINE
8
0
6
CONTINUOUS
10
73.2
20
3.5
11
87.2
21
3.5
0
LINE
8
0
6
CONTINUOUS
10
87.2
20
3.5
11
87.2
21
17.5
0
LINE
8
0
6
CONTINUOUS
10
87.2
20
17.5
11
73.2
21
17.5
0
LINE
8
0
6
CONTINUOUS
10
73.2
20
17.5
11
73.2
21
3.5
0
LINE
8
0
6
CONTINUOUS
10
73.2
20
22.55
11
87.2
21
22.55
0
LINE
8
0
6
CONTINUOUS
10
87.2
20
22.55
11
87.2
21
36.55
0
LINE
8
0
6
CONTINUOUS
10
87.2
20
36.55
11
73.2
21
36.55
0
LINE
8
0
6
CONTINUOUS
10
73.2
20
36.55
11
73.2
21
22.55
0
LINE
8
0
6
CONTINUOUS
10
73.2
20
41.6
11
87.2
21
41.6
0
LINE
8
0
6
CONTINUOUS
10
87.2
20
41.6
11
87.2
21
55.6
0
LINE
8
0
6
CONTINUOUS
10
87.2
20
55.6
11
73.2
21
55.6
0
LINE
8
0
6
CONTINUOUS
10
73.2
20
55.6
11
73.2
21
41.6
0
LINE
8
0
6
CONTINUOUS
10
73.2
20
60.65
11
87.2
21
60.65
0
LINE
8
0
6
CONTINUOUS
10
87.2
20
60.65
11
87.2
21
74.65
0
LINE
8
0
6
CONTINUOUS
10
87.2
20
74.65
11
73.2
21
74.65
0
LINE
8
0
6
CONTINUOUS
10
73.2
20
74.65
11
73.2
21
60.65
0
LINE
8
0
6
CONTINUOUS
10
93.25
20
0
11
107.25
21
0
0
LINE
8
0
6
CONTINUOUS
10
107.25
20
0
11
107.25
21
14
0
LINE
8
0
6
CONTINUOUS
10
107.25
20
14
11
93.25
21
14
0
LINE
8
0
6
CONTINUOUS
10
93.25
20
14
11
93.25
21
0
0
LINE
8
0
6
CONTINUOUS
10
93.25
20
19.05
11
107.25
21
19.05
0
LINE
8
0
6
CONTINUOUS
10
107.25
20
19.05
11
107.25
21
33.05
0
LINE
8
0
6
CONTINUOUS
10
107.25
20
33.05
11
93.25
21
33.05
0
LINE
8
0
6
CONTINUOUS
10
93.25
20
33.05
11
93.25
21
19.05
0
LINE
8
0
6
CONTINUOUS
10
93.25
20
38.1
11
107.25
21
38.1
0
LINE
8
0
6
CONTINUOUS
10
107.25
20
38.1
11
107.25
21
52.1
0
LINE
8
0
6
CONTINUOUS
10
107.25
20
52.1
11
93.25
21
52.1
0
LINE
8
0
6
CONTINUOUS
10
93.25
20
52.1
11
93.25
21
38.1
0
LINE
8
0
6
CONTINUOUS
10
93.25
20
57.15
11
107.25
21
57.15
0
LINE
8
0
6
CONTINUOUS
10
107.25
20
57.15
11
107.25
21
71.15
0
LINE
8
0
6
CONTINUOUS
10
107.25
20
71.15
11
93.25
21
71.15
0
LINE
8
0
6
CONTINUOUS
10
93.25
20
71.15
11
93.25
21
57.15
0
LINE
8
0
6
CONTINUOUS
10
113.3
20
-3.5
11
127.3
21
-3.5
0
LINE
8
0
6
CONTINUOUS
10
127.3
20
-3.5
11
127.3
21
10.5
0
LINE
8
0
6
CONTINUOUS
10
127.3
20
10.5
11
113.3
21
10.5
0
LINE
8
0
6
CONTINUOUS
10
113.3
20
10.5
11
113.3
21
-3.5
0
LINE
8
0
6
CONTINUOUS
10
113.3
20
15.55
11
127.3
21
15.55
0
LINE
8
0
6
CONTINUOUS
10
127.3
20
15.55
11
127.3
21
29.55
0
LINE
8
0
6
CONTINUOUS
10
127.3
20
29.55
11
113.3
21
29.55
0
LINE
8
0
6
CONTINUOUS
10
113.3
20
29.55
11
113.3
21
15.55
0
LINE
8
0
6
CONTINUOUS
10
113.3
20
34.6
11
127.3
21
34.6
0
LINE
8
0
6
CONTINUOUS
10
127.3
20
34.6
11
127.3
21
48.6
0
LINE
8
0
6
CONTINUOUS
10
127.3
20
48.6
11
113.3
21
48.6
0
LINE
8
0
6
CONTINUOUS
10
113.3
20
48.6
11
113.3
21
34.6
0
LINE
8
0
6
CONTINUOUS
10
113.3
20
53.65
11
127.3
21
53.65
0
LINE
8
0
6
CONTINUOUS
10
127.3
20
53.65
11
127.3
21
67.65
0
LINE
8
0
6
CONTINUOUS
10
127.3
20
67.65
11
113.3
21
67.65
0
LINE
8
0
6
CONTINUOUS
10
113.3
20
67.65
11
113.3
21
53.65
0
LINE
8
0
6
CONTINUOUS
10
-12.0125
20
-26.05
11
1.9875
21
-26.05
0
LINE
8
0
6
CONTINUOUS
10
1.9875
20
-26.05
11
1.9875
21
-12.05
0
LINE
8
0
6
CONTINUOUS
10
1.9875
20
-12.05
11
-12.0125
21
-12.05
0
LINE
8
0
6
CONTINUOUS
10
-12.0125
20
-12.05
11
-12.0125
21
-26.05
0
LINE
8
0
6
CONTINUOUS
10
10.54375
20
-26.05
11
24.54375
21
-26.05
0
LINE
8
0
6
CONTINUOUS
10
24.54375
20
-26.05
11
24.54375
21
-12.05
0
LINE
8
0
6
CONTINUOUS
10
24.54375
20
-12.05
11
10.54375
21
-12.05
0
LINE
8
0
6
CONTINUOUS
10
10.54375
20
-12.05
11
10.54375
21
-26.05
0
LINE
8
0
6
CONTINUOUS
10
35.60625
20
-22.55
11
49.60625
21
-22.55
0
LINE
8
0
6
CONTINUOUS
10
49.60625
20
-22.55
11
49.60625
21
-8.55
0
LINE
8
0
6
CONTINUOUS
10
49.60625
20
-8.55
11
35.60625
21
-8.55
0
LINE
8
0
6
CONTINUOUS
10
35.60625
20
-8.55
11
35.60625
21
-22.55
0
LINE
8
0
6
CONTINUOUS
10
60.66875
20
-19.05
11
74.66875
21
-19.05
0
LINE
8
0
6
CONTINUOUS
10
74.66875
20
-19.05
11
74.66875
21
-5.05
0
LINE
8
0
6
CONTINUOUS
10
74.66875
20
-5.05
11
60.66875
21
-5.05
0
LINE
8
0
6
CONTINUOUS
10
60.66875
20
-5.05
11
60.66875
21
-19.05
0
LINE
8
0
6
CONTINUOUS
10
85.73125
20
-19.05
11
99.73125
21
-19.05
0
LINE
8
0
6
CONTINUOUS
10
99.73125
20
-19.05
11
99.73125
21
-5.05
0
LINE
8
0
6
CONTINUOUS
10
99.73125
20
-5.05
11
85.73125
21
-5.05
0
LINE
8
0
6
CONTINUOUS
10
85.73125
20
-5.05
11
85.73125
21
-19.05
0
LINE
8
0
6
CONTINUOUS
10
110.79375
20
-22.55
11
124.79375
21
-22.55
0
LINE
8
0
6
CONTINUOUS
10
124.79375
20
-22.55
11
124.79375
21
-8.55
0
LINE
8
0
6
CONTINUOUS
10
124.79375
20
-8.55
11
110.79375
21
-8.55
0
LINE
8
0
6
CONTINUOUS
10
110.79375
20
-8.55
11
110.79375
21
-22.55
0
LINE
8
0
6
CONTINUOUS
10
151.3147475
20
-27.9332141
11
154.9382141
21
-14.4102525
0
LINE
8
0
6
CONTINUOUS
10
154.9382141
20
-14.4102525
11
141.4152525
21
-10.7867859
0
LINE
8
0
6
CONTINUOUS
10
141.4152525
20
-10.7867859
11
137.7917859
21
-24.3097475
0
LINE
8
0
6
CONTINUOUS
10
137.7917859
20
-24.3097475
11
151.3147475
21
-27.9332141
0
LINE
8
0
6
CONTINUOUS
10
19.06875
20
-8
11
26.06875
21
-8
0
LINE
8
0
6
CONTINUOUS
10
26.06875
20
-8
11
26.06875
21
6
0
LINE
8
0
6
CONTINUOUS
10
26.06875
20
6
11
19.06875
21
6
0
LINE
8
0
6
CONTINUOUS
10
19.06875
20
6
11
19.06875
21
-8
0
LINE
8
0
6
CONTINUOUS
10
156.9200047
20
-10.8778127
11
158.731738
21
-4.1163319
0
LINE
8
0
6
CONTINUOUS
10
158.731738
20
-4.1163319
11
145.2087765
21
-0.4928653
0
LINE
8
0
6
CONTINUOUS
10
145.2087765
20
-0.4928653
11
143.3970432
21
-7.2543461
0
LINE
8
0
6
CONTINUOUS
10
143.3970432
20
-7.2543461
11
156.9200047
21
-10.8778127
0
LINE
8
0
6
CONTINUOUS
10
-9.78125
20
-8
11
-2.78125
21
-8
0
LINE
8
0
6
CONTINUOUS
10
-2.78125
20
-8
11
-2.78125
21
6
0
LINE
8
0
6
CONTINUOUS
10
-2.78125
20
6
11
-9.78125
21
6
0
LINE
8
0
6
CONTINUOUS
10
-9.78125
20
6
11
-9.78125
21
-8
0
LINE
8
0
6
CONTINUOUS
10
149.4530752
20
-38.7447728
11
151.2648085
21
-31.983292
0
LINE
8
0
6
CONTINUOUS
10
151.2648085
20
-31.983292
11
137.741847
21
-28.3598254
0
LINE
8
0
6
CONTINUOUS
10
137.741847
20
-28.3598254
11
135.9301137
21
-35.1213062
0
LINE
8
0
6
CONTINUOUS
10
135.9301137
20
-35.1213062
11
149.4530752
21
-38.7447728
0
ENDSEC
0
EOF