0
SECTION
2
HEADER
9
$INSUNITS
70
4
0
ENDSEC
0
SECTION
2
TABLES
0
TABLE
2
LTYPE
0
LTYPE
72
65
70
0
2
CONTINUOUS
3
______
73
0
40
0
0
LTYPE
72
65
70
0
2
DASHED
3
_ _ _ 
73
2
40
7.5
49
5
49
-2.5
0
LTYPE
72
65
70
0
2
DOTTED
3
. . . 
73
2
40
1.5
49
0.5
49
-1
0
ENDTAB
0
TABLE
2
LAYER
0
ENDTAB
0
ENDSEC
0
SECTION
2
ENTITIES
0
LINE
8
0
6
CONTINUOUS
10
-20.525
20
47.625
11
-10.475
21
47.625
0
LINE
8
0
6
CONTINUOUS
10
-20.525
20
66.675
11
19.575
21
66.675
0
LINE
8
0
6
CONTINUOUS
10
-20.525
20
66.675
11
-20.525
21
47.625
0
LINE
8
0
6
CONTINUOUS
10
-12.38125
20
-9.525
11
-12.38125
21
19.525
0
LINE
8
0
6
CONTINUOUS
10
-12.38125
20
19.525
11
-7.61875
21
19.525
0
LINE
8
0
6
CONTINUOUS
10
-7.61875
20
19.525
11
-7.61875
21
37.625
0
LINE
8
0
6
CONTINUOUS
10
-7.61875
20
37.625
11
-10.475
21
37.625
0
LINE
8
0
6
CONTINUOUS
10
-10.475
20
37.625
11
-10.475
21
47.625
0
LINE
8
0
6
CONTINUOUS
10
39.625
20
70.175
11
19.575
21
70.175
0
LINE
8
0
6
CONTINUOUS
10
19.575
20
70.175
11
19.575
21
66.675
0
LINE
8
0
6
CONTINUOUS
10
59.675
20
73.675
11
39.625
21
73.675
0
LINE
8
0
6
CONTINUOUS
10
39.625
20
73.675
11
39.625
21
70.175
0
LINE
8
0
6
CONTINUOUS
10
100.725
20
73.675
11
100.725
21
77.175
0
LINE
8
0
6
CONTINUOUS
10
100.725
20
77.175
11
59.675
21
77.175
0
LINE
8
0
6
CONTINUOUS
10
59.675
20
77.175
11
59.675
21
73.675
0
LINE
8
0
6
CONTINUOUS
10
120.775
20
70.175
11
120.775
21
73.675
0
LINE
8
0
6
CONTINUOUS
10
120.775
20
73.675
11
100.725
21
73.675
0
LINE
8
0
6
CONTINUOUS
10
138.31875
20
-6.025
11
140.0770969
21
-6.025
0
LINE
8
0
6
CONTINUOUS
10
140.825
20
-3.2337875
11
140.825
21
70.175
0
LINE
8
0
6
CONTINUOUS
10
140.825
20
70.175
11
120.775
21
70.175
0
LINE
8
0
6
CONTINUOUS
10
-25.5375
20
-28.575
11
38.06875
21
-28.575
0
LINE
8
0
6
CONTINUOUS
10
-25.5375
20
-9.525
11
-12.38125
21
-9.525
0
LINE
8
0
6
CONTINUOUS
10
-25.5375
20
-9.525
11
-25.5375
21
-28.575
0
LINE
8
0
6
CONTINUOUS
10
38.06875
20
-28.575
11
38.06875
21
-25.075
0
LINE
8
0
6
CONTINUOUS
10
38.06875
20
-25.075
11
63.13125
21
-25.075
0
LINE
8
0
6
CONTINUOUS
10
63.13125
20
-25.075
11
63.13125
21
-21.575
0
LINE
8
0
6
CONTINUOUS
10
63.13125
20
-21.575
11
97.26875
21
-21.575
0
LINE
8
0
6
CONTINUOUS
10
97.26875
20
-25.075
11
134.9726647
21
-25.075
0
LINE
8
0
6
CONTINUOUS
10
138.31875
20
-12.5872398
11
138.31875
21
-6.025
0
LINE
8
0
6
CONTINUOUS
10
97.26875
20
-21.575
11
97.26875
21
-25.075
0
LINE
8
0
6
CONTINUOUS
10
150.2531826
20
-41.650879
11
160.8777044
21
-1.9996238
0
LINE
8
0
6
CONTINUOUS
10
160.8777044
20
-1.9996238
11
142.4768174
21
2.930879
0
LINE
8
0
6
CONTINUOUS
10
142.4768174
20
2.930879
11
140.825
21
-3.2337875
0
LINE
8
0
6
CONTINUOUS
10
140.0770969
20
-6.025
11
138.31875
21
-12.5872398
0
LINE
8
0
6
CONTINUOUS
10
134.9726647
20
-25.075
11
131.8522956
21
-36.7203762
0
LINE
8
0
6
CONTINUOUS
10
131.8522956
20
-36.7203762
11
150.2531826
21
-41.650879
0
LINE
8
0
6
CONTINUOUS
10
-7
20
50.15
11
7
21
50.15
0
LINE
8
0
6
CONTINUOUS
10
7
20
50.15
11
7
21
64.15
0
LINE
8
0
6
CONTINUOUS
10
7
20
64.15
11
-7
21
64.15
0
LINE
8
0
6
CONTINUOUS
10
-7
20
64.15
11
-7
21
50.15
0
LINE
8
0
6
CONTINUOUS
10
1.14375
20
-7
11
15.14375
21
-7
0
LINE
8
0
6
CONTINUOUS
10
15.14375
20
-7
11
15.14375
21
7
0
LINE
8
0
6
CONTINUOUS
10
15.14375
20
7
11
1.14375
21
7
0
LINE
8
0
6
CONTINUOUS
10
1.14375
20
7
11
1.14375
21
-7
0
LINE
8
0
6
CONTINUOUS
10
5.90625
20
12.05
11
19.90625
21
12.05
0
LINE
8
0
6
CONTINUOUS
10
19.90625
20
12.05
11
19.90625
21
26.05
0
LINE
8
0
6
CONTINUOUS
10
19.90625
20
26.05
11
5.90625
21
26.05
0
LINE
8
0
6
CONTINUOUS
10
5.90625
20
26.05
11
5.90625
21
12.05
0
LINE
8
0
6
CONTINUOUS
10
8.2875
20
31.1
11
22.2875
21
31.1
0
LINE
8
0
6
CONTINUOUS
10
22.2875
20
31.1
11
22.2875
21
45.1
0
LINE
8
0
6
CONTINUOUS
10
22.2875
20
45.1
11
8.2875
21
45.1
0
LINE
8
0
6
CONTINUOUS
10
8.2875
20
45.1
11
8.2875
21
31.1
0
LINE
8
0
6
CONTINUOUS
10
13.05
20
50.15
11
27.05
21
50.15
0
LINE
8
0
6
CONTINUOUS
10
27.05
20
50.15
11
27.05
21
64.15
0
LINE
8
0
6
CONTINUOUS
10
27.05
20
64.15
11
13.05
21
64.15
0
LINE
8
0
6
CONTINUOUS
10
13.05
20
64.15
11
13.05
21
50.15
0
LINE
8
0
6
CONTINUOUS
10
33.1
20
-3.5
11
47.1
21
-3.5
0
LINE
8
0
6
CONTINUOUS
10
47.1
20
-3.5
11
47.1
21
10.5
0
LINE
8
0
6
CONTINUOUS
10
47.1
20
10.5
11
33.1
21
10.5
0
LINE
8
0
6
CONTINUOUS
10
33.1
20
10.5
11
33.1
21
-3.5
0
LINE
8
0
6
CONTINUOUS
10
33.1
20
15.55
11
47.1
21
15.55
0
LINE
8
0
6
CONTINUOUS
10
47.1
20
15.55
11
47.1
21
29.55
0
LINE
8
0
6
CONTINUOUS
10
47.1
20
29.55
11
33.1
21
29.55
0
LINE
8
0
6
CONTINUOUS
10
33.1
20
29.55
11
33.1
21
15.55
0
LINE
8
0
6
CONTINUOUS
10
33.1
20
34.6
11
47.1
21
34.6
0
LINE
8
0
6
CONTINUOUS
10
47.1
20
34.6
11
47.1
21
48.6
0
LINE
8
0
6
CONTINUOUS
10
47.1
20
48.6
11
33.1
21
48.6
0
LINE
8
0
6
CONTINUOUS
10
33.1
20
48.6
11
33.1
21
34.6
0
LINE
8
0
6
CONTINUOUS
10
33.1
20
53.65
11
47.1
21
53.65
0
LINE
8
0
6
CONTINUOUS
10
47.1
20
53.65
11
47.1
21
67.65
0
LINE
8
0
6
CONTINUOUS
10
47.1
20
67.65
11
33.1
21
67.65
0
LINE
8
0
6
CONTINUOUS
10
33.1
20
67.65
11
33.1
21
53.65
0
LINE
8
0
6
CONTINUOUS
10
53.15
20
0
11
67.15
21
0
0
LINE
8
0
6
CONTINUOUS
10
67.15
20
0
11
67.15
21
14
0
LINE
8
0
6
CONTINUOUS
10
67.15
20
14
11
53.15
21
14
0
LINE
8
0
6
CONTINUOUS
10
53.15
20
14
11
53.15
21
0
0
LINE
8
0
6
CONTINUOUS
10
53.15
20
19.05
11
67.15
21
19.05
0
LINE
8
0
6
CONTINUOUS
10
67.15
20
19.05
11
67.15
21
33.05
0
LINE
8
0
6
CONTINUOUS
10
67.15
20
33.05
11
53.15
21
33.05
0
LINE
8
0
6
CONTINUOUS
10
53.15
20
33.05
11
53.15
21
19.05
0
LINE
8
0
6
CONTINUOUS
10
53.15
20
38.1
11
67.15
21
38.1
0
LINE
8
0
6
CONTINUOUS
10
67.15
20
38.1
11
67.15
21
52.1
0
LINE
8
0
6
CONTINUOUS
10
67.15
20
52.1
11
53.15
21
52.1
0
LINE
8
0
6
CONTINUOUS
10
53.15
20
52.1
11
53.15
21
38.1
0
LINE
8
0
6
CONTINUOUS
10
53.15
20
57.15
11
67.15
21
57.15
0
LINE
8
0
6
CONTINUOUS
10
67.15
20
57.15
11
67.15
21
71.15
0
LINE
8
0
6
CONTINUOUS
10
67.15
20
71.15
11
53.15
21
71.15
0
LINE
8
0
6
CONTINUOUS
10
53.15
20
71.15
11
53.15
21
57.15
0
LINE
8
0
6
CONTINUOUS
10
73.2
20
3.5
11
87.2
21
3.5
0
LINE
8
0
6
CONTINUOUS
10
87.2
20
3.5
11
87.2
21
17.5
0
LINE
8
0
6
CONTINUOUS
10
87.2
20
17.5
11
73.2
21
17.5
0
LINE
8
0
6
CONTINUOUS
10
73.2
20
17.5
11
73.2
21
3.5
0
LINE
8
0
6
CONTINUOUS
10
73.2
20
22.55
11
87.2
21
22.55
0
LINE
8
0
6
CONTINUOUS
10
87.2
20
22.55
11
87.2
21
36.55
0
LINE
8
0
6
CONTINUOUS
10
87.2
20
36.55
11
73.2
21
36.55
0
LINE
8
0
6
CONTINUOUS
10
73.2
20
36.55
11
73.2
21
22.55
0
LINE
8
0
6
CONTINUOUS
10
73.2
20
41.6
11
87.2
21
41.6
0
LINE
8
0
6
CONTINUOUS
10
87.2
20
41.6
11
87.2
21
55.6
0
LINE
8
0
6
CONTINUOUS
10
87.2
20
55.6
11
73.2
21
55.6
0
LINE
8
0
6
CONTINUOUS
10
73.2
20
55.6
11
73.2
21
41.6
0
LINE
8
0
6
CONTINUOUS
10
73.2
20
60.65
11
87.2
21
60.65
0
LINE
8
0
6
CONTINUOUS
10
87.2
20
60.65
11
87.2
21
74.65
0
LINE
8
0
6
CONTINUOUS
10
87.2
20
74.65
11
73.2
21
74.65
0
LINE
8
0
6
CONTINUOUS
10
73.2
20
74.65
11
73.2
21
60.65
0
LINE
8
0
6
CONTINUOUS
10
93.25
20
0
11
107.25
21
0
0
LINE
8
0
6
CONTINUOUS
10
107.25
20
0
11
107.25
21
14
0
LINE
8
0
6
CONTINUOUS
10
107.25
20
14
11
93.25
21
14
0
LINE
8
0
6
CONTINUOUS
10
93.25
20
14
11
93.25
21
0
0
LINE
8
0
6
CONTINUOUS
10
93.25
20
19.05
11
107.25
21
19.05
0
LINE
8
0
6
CONTINUOUS
10
107.25
20
19.05
11
107.25
21
33.05
0
LINE
8
0
6
CONTINUOUS
10
107.25
20
33.05
11
93.25
21
33.05
0
LINE
8
0
6
CONTINUOUS
10
93.25
20
33.05
11
93.25
21
19.05
0
LINE
8
0
6
CONTINUOUS
10
93.25
20
38.1
11
107.25
21
38.1
0
LINE
8
0
6
CONTINUOUS
10
107.25
20
38.1
11
107.25
21
52.1
0
LINE
8
0
6
CONTINUOUS
10
107.25
20
52.1
11
93.25
21
52.1
0
LINE
8
0
6
CONTINUOUS
10
93.25
20
52.1
11
93.25
21
38.1
0
LINE
8
0
6
CONTINUOUS
10
93.25
20
57.15
11
107.25
21
57.15
0
LINE
8
0
6
CONTINUOUS
10
107.25
20
57.15
11
107.25
21
71.15
0
LINE
8
0
6
CONTINUOUS
10
107.25
20
71.15
11
93.25
21
71.15
0
LINE
8
0
6
CONTINUOUS
10
93.25
20
71.15
11
93.25
21
57.15
0
LINE
8
0
6
CONTINUOUS
10
113.3
20
-3.5
11
127.3
21
-3.5
0
LINE
8
0
6
CONTINUOUS
10
127.3
20
-3.5
11
127.3
21
10.5
0
LINE
8
0
6
CONTINUOUS
10
127.3
20
10.5
11
113.3
21
10.5
0
LINE
8
0
6
CONTINUOUS
10
113.3
20
10.5
11
113.3
21
-3.5
0
LINE
8
0
6
CONTINUOUS
10
113.3
20
15.55
11
127.3
21
15.55
0
LINE
8
0
6
CONTINUOUS
10
127.3
20
15.55
11
127.3
21
29.55
0
LINE
8
0
6
CONTINUOUS
10
127.3
20
29.55
11
113.3
21
29.55
0
LINE
8
0
6
CONTINUOUS
10
113.3
20
29.55
11
113.3
21
15.55
0
LINE
8
0
6
CONTINUOUS
10
113.3
20
34.6
11
127.3
21
34.6
0
LINE
8
0
6
CONTINUOUS
10
127.3
20
34.6
11
127.3
21
48.6
0
LINE
8
0
6
CONTINUOUS
10
127.3
20
48.6
11
113.3
21
48.6
0
LINE
8
0
6
CONTINUOUS
10
113.3
20
48.6
11
113.3
21
34.6
0
LINE
8
0
6
CONTINUOUS
10
113.3
20
53.65
11
127.3
21
53.65
0
LINE
8
0
6
CONTINUOUS
10
127.3
20
53.65
11
127.3
21
67.65
0
LINE
8
0
6
CONTINUOUS
10
127.3
20
67.65
11
113.3
21
67.65
0
LINE
8
0
6
CONTINUOUS
10
113.3
20
67.65
11
113.3
21
53.65
0
LINE
8
0
6
CONTINUOUS
10
-12.0125
20
-26.05
11
1.9875
21
-26.05
0
LINE
8
0
6
CONTINUOUS
10
1.9875
20
-26.05
11
1.9875
21
-12.05
0
LINE
8
0
6
CONTINUOUS
10
1.9875
20
-12.05
11
-12.0125
21
-12.05
0
LINE
8
0
6
CONTINUOUS
10
-12.0125
20
-12.05
11
-12.0125
21
-26.05
0
LINE
8
0
6
CONTINUOUS
10
10.54375
20
-26.05
11
24.54375
21
-26.05
0
LINE
8
0
6
CONTINUOUS
10
24.54375
20
-26.05
11
24.54375
21
-12.05
0
LINE
8
0
6
CONTINUOUS
10
24.54375
20
-12.05
11
10.54375
21
-12.05
0
LINE
8
0
6
CONTINUOUS
10
10.54375
20
-12.05
11
10.54375
21
-26.05
0
LINE
8
0
6
CONTINUOUS
10
35.60625
20
-22.55
11
49.60625
21
-22.55
0
LINE
8
0
6
CONTINUOUS
10
49.60625
20
-22.55
11
49.60625
21
-8.55
0
LINE
8
0
6
CONTINUOUS
10
49.60625
20
-8.55
11
35.60625
21
-8.55
0
LINE
8
0
6
CONTINUOUS
10
35.60625
20
-8.55
11
35.60625
21
-22.55
0
LINE
8
0
6
CONTINUOUS
10
60.66875
20
-19.05
11
74.66875
21
-19.05
0
LINE
8
0
6
CONTINUOUS
10
74.66875
20
-19.05
11
74.66875
21
-5.05
0
LINE
8
0
6
CONTINUOUS
10
74.66875
20
-5.05
11
60.66875
21
-5.05
0
LINE
8
0
6
CONTINUOUS
10
60.66875
20
-5.05
11
60.66875
21
-19.05
0
LINE
8
0
6
CONTINUOUS
10
85.73125
20
-19.05
11
99.73125
21
-19.05
0
LINE
8
0
6
CONTINUOUS
10
99.73125
20
-19.05
11
99.73125
21
-5.05
0
LINE
8
0
6
CONTINUOUS
10
99.73125
20
-5.05
11
85.73125
21
-5.05
0
LINE
8
0
6
CONTINUOUS
10
85.73125
20
-5.05
11
85.73125
21
-19.05
0
LINE
8
0
6
CONTINUOUS
10
110.79375
20
-22.55
11
124.79375
21
-22.55
0
LINE
8
0
6
CONTINUOUS
10
124.79375
20
-22.55
11
124.79375
21
-8.55
0
LINE
8
0
6
CONTINUOUS
10
124.79375
20
-8.55
11
110.79375
21
-8.55
0
LINE
8
0
6
CONTINUOUS
10
110.79375
20
-8.55
11
110.79375
21
-22.55
0
LINE
8
0
6
CONTINUOUS
10
151.3147475
20
-27.9332141
11
154.9382141
21
-14.4102525
0
LINE
8
0
6
CONTINUOUS
10
154.9382141
20
-14.4102525
11
141.4152525
21
-10.7867859
0
LINE
8
0
6
CONTINUOUS
10
141.4152525
20
-10.7867859
11
137.7917859
21
-24.3097475
0
LINE
8
0
6
CONTINUOUS
10
137.7917859
20
-24.3097475
11
151.3147475
21
-27.9332141
0
LINE
8
0
6
CONTINUOUS
10
19.06875
20
-8
11
26.06875
21
-8
0
LINE
8
0
6
CONTINUOUS
10
26.06875
20
-8
11
26.06875
21
6
0
LINE
8
0
6
CONTINUOUS
10
26.06875
20
6
11
19.06875
21
6
0
LINE
8
0
6
CONTINUOUS
10
19.06875
20
6
11
19.06875
21
-8
0
LINE
8
0
6
CONTINUOUS
10
156.9200047
20
-10.8778127
11
158.731738
21
-4.1163319
0
LINE
8
0
6
CONTINUOUS
10
158.731738
20
-4.1163319
11
145.2087765
21
-0.4928653
0
LINE
8
0
6
CONTINUOUS
10
145.2087765
20
-0.4928653
11
143.3970432
21
-7.2543461
0
LINE
8
0
6
CONTINUOUS
10
143.3970432
20
-7.2543461
11
156.9200047
21
-10.8778127
0
LINE
8
0
6
CONTINUOUS
10
-9.78125
20
-8
11
-2.78125
21
-8
0
LINE
8
0
6
CONTINUOUS
10
-2.78125
20
-8
11
-2.78125
21
6
0
LINE
8
0
6
CONTINUOUS
10
-2.78125
20
6
11
-9.78125
21
6
0
LINE
8
0
6
CONTINUOUS
10
-9.78125
20
6
11
-9.78125
21
-8
0
LINE
8
0
6
CONTINUOUS
10
149.4530752
20
-38.7447728
11
151.2648085
21
-31.983292
0
LINE
8
0
6
CONTINUOUS
10
151.2648085
20
-31.983292
11
137.741847
21
-28.3598254
0
LINE
8
0
6
CONTINUOUS
10
137.741847
20
-28.3598254
11
135.9301137
21
-35.1213062
0
LINE
8
0
6
CONTINUOUS
10
135.9301137
20
-35.1213062
11
149.4530752
21
-38.7447728
0
LINE
8
0
6
CONTINUOUS
10
236.274676
20
-9.525
11
270.525
21
-9.525
0
LINE
8
0
6
CONTINUOUS
10
270.525
20
-9.525
11
270.525
21
-6.025
0
LINE
8
0
6
CONTINUOUS
10
229.475
20
6.4190059
11
229.475
21
85.725
0
LINE
8
0
6
CONTINUOUS
10
249.525
20
85.725
11
229.475
21
85.725
0
LINE
8
0
6
CONTINUOUS
10
270.525
20
-6.025
11
309.675
21
-6.025
0
LINE
8
0
6
CONTINUOUS
10
269.575
20
89.225
11
249.525
21
89.225
0
LINE
8
0
6
CONTINUOUS
10
249.525
20
89.225
11
249.525
21
85.725
0
LINE
8
0
6
CONTINUOUS
10
310.625
20
89.225
11
310.625
21
92.725
0
LINE
8
0
6
CONTINUOUS
10
310.625
20
92.725
11
269.575
21
92.725
0
LINE
8
0
6
CONTINUOUS
10
269.575
20
92.725
11
269.575
21
89.225
0
LINE
8
0
6
CONTINUOUS
10
330.675
20
85.725
11
330.675
21
89.225
0
LINE
8
0
6
CONTINUOUS
10
330.675
20
89.225
11
310.625
21
89.225
0
LINE
8
0
6
CONTINUOUS
10
309.675
20
-9.525
11
329.725
21
-9.525
0
LINE
8
0
6
CONTINUOUS
10
309.675
20
-6.025
11
309.675
21
-9.525
0
LINE
8
0
6
CONTINUOUS
10
350.725
20
82.225
11
350.725
21
85.725
0
LINE
8
0
6
CONTINUOUS
10
350.725
20
85.725
11
330.675
21
85.725
0
LINE
8
0
6
CONTINUOUS
10
329.725
20
-13.025
11
390.825
21
-13.025
0
LINE
8
0
6
CONTINUOUS
10
329.725
20
-9.525
11
329.725
21
-13.025
0
LINE
8
0
6
CONTINUOUS
10
350.725
20
82.225
11
400.35
21
82.225
0
LINE
8
0
6
CONTINUOUS
10
390.825
20
-13.025
11
390.825
21
-3.975
0
LINE
8
0
6
CONTINUOUS
10
407.49375
20
-3.975
11
407.49375
21
35.075
0
LINE
8
0
6
CONTINUOUS
10
402.73125
20
35.075
11
407.49375
21
35.075
0
LINE
8
0
6
CONTINUOUS
10
407.49375
20
-3.975
11
390.825
21
-3.975
0
LINE
8
0
6
CONTINUOUS
10
402.73125
20
35.075
11
402.73125
21
44.125
0
LINE
8
0
6
CONTINUOUS
10
400.35
20
73.175
11
400.825
21
73.175
0
LINE
8
0
6
CONTINUOUS
10
400.825
20
73.175
11
400.825
21
63.175
0
LINE
8
0
6
CONTINUOUS
10
400.35
20
73.175
11
400.35
21
82.225
0
LINE
8
0
6
CONTINUOUS
10
402.73125
20
44.125
11
415.6375
21
44.125
0
LINE
8
0
6
CONTINUOUS
10
415.6375
20
44.125
11
415.6375
21
63.175
0
LINE
8
0
6
CONTINUOUS
10
415.6375
20
63.175
11
400.825
21
63.175
0
LINE
8
0
6
CONTINUOUS
10
213.4322956
20
2.1203762
11
224.0568174
21
-37.530879
0
LINE
8
0
6
CONTINUOUS
10
224.0568174
20
-37.530879
11
242.4577044
21
-32.6003762
0
LINE
8
0
6
CONTINUOUS
10
242.4577044
20
-32.6003762
11
236.274676
21
-9.525
0
LINE
8
0
6
CONTINUOUS
10
229.475
20
6.4190059
11
213.4322956
21
2.1203762
0
LINE
8
0
6
CONTINUOUS
10
243
20
-7
11
257
21
-7
0
LINE
8
0
6
CONTINUOUS
10
257
20
-7
11
257
21
7
0
LINE
8
0
6
CONTINUOUS
10
257
20
7
11
243
21
7
0
LINE
8
0
6
CONTINUOUS
10
243
20
7
11
243
21
-7
0
LINE
8
0
6
CONTINUOUS
10
243
20
12.05
11
257
21
12.05
0
LINE
8
0
6
CONTINUOUS
10
257
20
12.05
11
257
21
26.05
0
LINE
8
0
6
CONTINUOUS
10
257
20
26.05
11
243
21
26.05
0
LINE
8
0
6
CONTINUOUS
10
243
20
26.05
11
243
21
12.05
0
LINE
8
0
6
CONTINUOUS
10
243
20
31.1
11
257
21
31.1
0
LINE
8
0
6
CONTINUOUS
10
257
20
31.1
11
257
21
45.1
0
LINE
8
0
6
CONTINUOUS
10
257
20
45.1
11
243
21
45.1
0
LINE
8
0
6
CONTINUOUS
10
243
20
45.1
11
243
21
31.1
0
LINE
8
0
6
CONTINUOUS
10
243
20
50.15
11
257
21
50.15
0
LINE
8
0
6
CONTINUOUS
10
257
20
50.15
11
257
21
64.15
0
LINE
8
0
6
CONTINUOUS
10
257
20
64.15
11
243
21
64.15
0
LINE
8
0
6
CONTINUOUS
10
243
20
64.15
11
243
21
50.15
0
LINE
8
0
6
CONTINUOUS
10
243
20
69.2
11
257
21
69.2
0
LINE
8
0
6
CONTINUOUS
10
257
20
69.2
11
257
21
83.2
0
LINE
8
0
6
CONTINUOUS
10
257
20
83.2
11
243
21
83.2
0
LINE
8
0
6
CONTINUOUS
10
243
20
83.2
11
243
21
69.2
0
LINE
8
0
6
CONTINUOUS
10
263.05
20
-3.5
11
277.05
21
-3.5
0
LINE
8
0
6
CONTINUOUS
10
277.05
20
-3.5
11
277.05
21
10.5
0
LINE
8
0
6
CONTINUOUS
10
277.05
20
10.5
11
263.05
21
10.5
0
LINE
8
0
6
CONTINUOUS
10
263.05
20
10.5
11
263.05
21
-3.5
0
LINE
8
0
6
CONTINUOUS
10
263.05
20
15.55
11
277.05
21
15.55
0
LINE
8
0
6
CONTINUOUS
10
277.05
20
15.55
11
277.05
21
29.55
0
LINE
8
0
6
CONTINUOUS
10
277.05
20
29.55
11
263.05
21
29.55
0
LINE
8
0
6
CONTINUOUS
10
263.05
20
29.55
11
263.05
21
15.55
0
LINE
8
0
6
CONTINUOUS
10
263.05
20
34.6
11
277.05
21
34.6
0
LINE
8
0
6
CONTINUOUS
10
277.05
20
34.6
11
277.05
21
48.6
0
LINE
8
0
6
CONTINUOUS
10
277.05
20
48.6
11
263.05
21
48.6
0
LINE
8
0
6
CONTINUOUS
10
263.05
20
48.6
11
263.05
21
34.6
0
LINE
8
0
6
CONTINUOUS
10
263.05
20
53.65
11
277.05
21
53.65
0
LINE
8
0
6
CONTINUOUS
10
277.05
20
53.65
11
277.05
21
67.65
0
LINE
8
0
6
CONTINUOUS
10
277.05
20
67.65
11
263.05
21
67.65
0
LINE
8
0
6
CONTINUOUS
10
263.05
20
67.65
11
263.05
21
53.65
0
LINE
8
0
6
CONTINUOUS
10
263.05
20
72.7
11
277.05
21
72.7
0
LINE
8
0
6
CONTINUOUS
10
277.05
20
72.7
11
277.05
21
86.7
0
LINE
8
0
6
CONTINUOUS
10
277.05
20
86.7
11
263.05
21
86.7
0
LINE
8
0
6
CONTINUOUS
10
263.05
20
86.7
11
263.05
21
72.7
0
LINE
8
0
6
CONTINUOUS
10
283.1
20
0
11
297.1
21
0
0
LINE
8
0
6
CONTINUOUS
10
297.1
20
0
11
297.1
21
14
0
LINE
8
0
6
CONTINUOUS
10
297.1
20
14
11
283.1
21
14
0
LINE
8
0
6
CONTINUOUS
10
283.1
20
14
11
283.1
21
0
0
LINE
8
0
6
CONTINUOUS
10
283.1
20
19.05
11
297.1
21
19.05
0
LINE
8
0
6
CONTINUOUS
10
297.1
20
19.05
11
297.1
21
33.05
0
LINE
8
0
6
CONTINUOUS
10
297.1
20
33.05
11
283.1
21
33.05
0
LINE
8
0
6
CONTINUOUS
10
283.1
20
33.05
11
283.1
21
19.05
0
LINE
8
0
6
CONTINUOUS
10
283.1
20
38.1
11
297.1
21
38.1
0
LINE
8
0
6
CONTINUOUS
10
297.1
20
38.1
11
297.1
21
52.1
0
LINE
8
0
6
CONTINUOUS
10
297.1
20
52.1
11
283.1
21
52.1
0
LINE
8
0
6
CONTINUOUS
10
283.1
20
52.1
11
283.1
21
38.1
0
LINE
8
0
6
CONTINUOUS
10
283.1
20
57.15
11
297.1
21
57.15
0
LINE
8
0
6
CONTINUOUS
10
297.1
20
57.15
11
297.1
21
71.15
0
LINE
8
0
6
CONTINUOUS
10
297.1
20
71.15
11
283.1
21
71.15
0
LINE
8
0
6
CONTINUOUS
10
283.1
20
71.15
11
283.1
21
57.15
0
LINE
8
0
6
CONTINUOUS
10
283.1
20
76.2
11
297.1
21
76.2
0
LINE
8
0
6
CONTINUOUS
10
297.1
20
76.2
11
297.1
21
90.2
0
LINE
8
0
6
CONTINUOUS
10
297.1
20
90.2
11
283.1
21
90.2
0
LINE
8
0
6
CONTINUOUS
10
283.1
20
90.2
11
283.1
21
76.2
0
LINE
8
0
6
CONTINUOUS
10
303.15
20
-3.5
11
317.15
21
-3.5
0
LINE
8
0
6
CONTINUOUS
10
317.15
20
-3.5
11
317.15
21
10.5
0
LINE
8
0
6
CONTINUOUS
10
317.15
20
10.5
11
303.15
21
10.5
0
LINE
8
0
6
CONTINUOUS
10
303.15
20
10.5
11
303.15
21
-3.5
0
LINE
8
0
6
CONTINUOUS
10
303.15
20
15.55
11
317.15
21
15.55
0
LINE
8
0
6
CONTINUOUS
10
317.15
20
15.55
11
317.15
21
29.55
0
LINE
8
0
6
CONTINUOUS
10
317.15
20
29.55
11
303.15
21
29.55
0
LINE
8
0
6
CONTINUOUS
10
303.15
20
29.55
11
303.15
21
15.55
0
LINE
8
0
6
CONTINUOUS
10
303.15
20
34.6
11
317.15
21
34.6
0
LINE
8
0
6
CONTINUOUS
10
317.15
20
34.6
11
317.15
21
48.6
0
LINE
8
0
6
CONTINUOUS
10
317.15
20
48.6
11
303.15
21
48.6
0
LINE
8
0
6
CONTINUOUS
10
303.15
20
48.6
11
303.15
21
34.6
0
LINE
8
0
6
CONTINUOUS
10
303.15
20
53.65
11
317.15
21
53.65
0
LINE
8
0
6
CONTINUOUS
10
317.15
20
53.65
11
317.15
21
67.65
0
LINE
8
0
6
CONTINUOUS
10
317.15
20
67.65
11
303.15
21
67.65
0
LINE
8
0
6
CONTINUOUS
10
303.15
20
67.65
11
303.15
21
53.65
0
LINE
8
0
6
CONTINUOUS
10
303.15
20
72.7
11
317.15
21
72.7
0
LINE
8
0
6
CONTINUOUS
10
317.15
20
72.7
11
317.15
21
86.7
0
LINE
8
0
6
CONTINUOUS
10
317.15
20
86.7
11
303.15
21
86.7
0
LINE
8
0
6
CONTINUOUS
10
303.15
20
86.7
11
303.15
21
72.7
0
LINE
8
0
6
CONTINUOUS
10
323.2
20
-7
11
337.2
21
-7
0
LINE
8
0
6
CONTINUOUS
10
337.2
20
-7
11
337.2
21
7
0
LINE
8
0
6
CONTINUOUS
10
337.2
20
7
11
323.2
21
7
0
LINE
8
0
6
CONTINUOUS
10
323.2
20
7
11
323.2
21
-7
0
LINE
8
0
6
CONTINUOUS
10
323.2
20
12.05
11
337.2
21
12.05
0
LINE
8
0
6
CONTINUOUS
10
337.2
20
12.05
11
337.2
21
26.05
0
LINE
8
0
6
CONTINUOUS
10
337.2
20
26.05
11
323.2
21
26.05
0
LINE
8
0
6
CONTINUOUS
10
323.2
20
26.05
11
323.2
21
12.05
0
LINE
8
0
6
CONTINUOUS
10
323.2
20
31.1
11
337.2
21
31.1
0
LINE
8
0
6
CONTINUOUS
10
337.2
20
31.1
11
337.2
21
45.1
0
LINE
8
0
6
CONTINUOUS
10
337.2
20
45.1
11
323.2
21
45.1
0
LINE
8
0
6
CONTINUOUS
10
323.2
20
45.1
11
323.2
21
31.1
0
LINE
8
0
6
CONTINUOUS
10
323.2
20
50.15
11
337.2
21
50.15
0
LINE
8
0
6
CONTINUOUS
10
337.2
20
50.15
11
337.2
21
64.15
0
LINE
8
0
6
CONTINUOUS
10
337.2
20
64.15
11
323.2
21
64.15
0
LINE
8
0
6
CONTINUOUS
10
323.2
20
64.15
11
323.2
21
50.15
0
LINE
8
0
6
CONTINUOUS
10
323.2
20
69.2
11
337.2
21
69.2
0
LINE
8
0
6
CONTINUOUS
10
337.2
20
69.2
11
337.2
21
83.2
0
LINE
8
0
6
CONTINUOUS
10
337.2
20
83.2
11
323.2
21
83.2
0
LINE
8
0
6
CONTINUOUS
10
323.2
20
83.2
11
323.2
21
69.2
0
LINE
8
0
6
CONTINUOUS
10
343.25
20
-10.5
11
357.25
21
-10.5
0
LINE
8
0
6
CONTINUOUS
10
357.25
20
-10.5
11
357.25
21
3.5
0
LINE
8
0
6
CONTINUOUS
10
357.25
20
3.5
11
343.25
21
3.5
0
LINE
8
0
6
CONTINUOUS
10
343.25
20
3.5
11
343.25
21
-10.5
0
LINE
8
0
6
CONTINUOUS
10
343.25
20
8.55
11
357.25
21
8.55
0
LINE
8
0
6
CONTINUOUS
10
357.25
20
8.55
11
357.25
21
22.55
0
LINE
8
0
6
CONTINUOUS
10
357.25
20
22.55
11
343.25
21
22.55
0
LINE
8
0
6
CONTINUOUS
10
343.25
20
22.55
11
343.25
21
8.55
0
LINE
8
0
6
CONTINUOUS
10
343.25
20
27.6
11
357.25
21
27.6
0
LINE
8
0
6
CONTINUOUS
10
357.25
20
27.6
11
357.25
21
41.6
0
LINE
8
0
6
CONTINUOUS
10
357.25
20
41.6
11
343.25
21
41.6
0
LINE
8
0
6
CONTINUOUS
10
343.25
20
41.6
11
343.25
21
27.6
0
LINE
8
0
6
CONTINUOUS
10
343.25
20
46.65
11
357.25
21
46.65
0
LINE
8
0
6
CONTINUOUS
10
357.25
20
46.65
11
357.25
21
60.65
0
LINE
8
0
6
CONTINUOUS
10
357.25
20
60.65
11
343.25
21
60.65
0
LINE
8
0
6
CONTINUOUS
10
343.25
20
60.65
11
343.25
21
46.65
0
LINE
8
0
6
CONTINUOUS
10
343.25
20
65.7
11
357.25
21
65.7
0
LINE
8
0
6
CONTINUOUS
10
357.25
20
65.7
11
357.25
21
79.7
0
LINE
8
0
6
CONTINUOUS
10
357.25
20
79.7
11
343.25
21
79.7
0
LINE
8
0
6
CONTINUOUS
10
343.25
20
79.7
11
343.25
21
65.7
0
LINE
8
0
6
CONTINUOUS
10
363.3
20
-10.5
11
377.3
21
-10.5
0
LINE
8
0
6
CONTINUOUS
10
377.3
20
-10.5
11
377.3
21
3.5
0
LINE
8
0
6
CONTINUOUS
10
377.3
20
3.5
11
363.3
21
3.5
0
LINE
8
0
6
CONTINUOUS
10
363.3
20
3.5
11
363.3
21
-10.5
0
LINE
8
0
6
CONTINUOUS
10
379.96875
20
8.55
11
393.96875
21
8.55
0
LINE
8
0
6
CONTINUOUS
10
393.96875
20
8.55
11
393.96875
21
22.55
0
LINE
8
0
6
CONTINUOUS
10
393.96875
20
22.55
11
379.96875
21
22.55
0
LINE
8
0
6
CONTINUOUS
10
379.96875
20
22.55
11
379.96875
21
8.55
0
LINE
8
0
6
CONTINUOUS
10
375.20625
20
27.6
11
389.20625
21
27.6
0
LINE
8
0
6
CONTINUOUS
10
389.20625
20
27.6
11
389.20625
21
41.6
0
LINE
8
0
6
CONTINUOUS
10
389.20625
20
41.6
11
375.20625
21
41.6
0
LINE
8
0
6
CONTINUOUS
10
375.20625
20
41.6
11
375.20625
21
27.6
0
LINE
8
0
6
CONTINUOUS
10
363.3
20
46.65
11
377.3
21
46.65
0
LINE
8
0
6
CONTINUOUS
10
377.3
20
46.65
11
377.3
21
60.65
0
LINE
8
0
6
CONTINUOUS
10
377.3
20
60.65
11
363.3
21
60.65
0
LINE
8
0
6
CONTINUOUS
10
363.3
20
60.65
11
363.3
21
46.65
0
LINE
8
0
6
CONTINUOUS
10
372.825
20
65.7
11
386.825
21
65.7
0
LINE
8
0
6
CONTINUOUS
10
386.825
20
65.7
11
386.825
21
79.7
0
LINE
8
0
6
CONTINUOUS
10
386.825
20
79.7
11
372.825
21
79.7
0
LINE
8
0
6
CONTINUOUS
10
372.825
20
79.7
11
372.825
21
65.7
0
LINE
8
0
6
CONTINUOUS
10
388.1125
20
46.65
11
402.1125
21
46.65
0
LINE
8
0
6
CONTINUOUS
10
402.1125
20
46.65
11
402.1125
21
60.65
0
LINE
8
0
6
CONTINUOUS
10
402.1125
20
60.65
11
388.1125
21
60.65
0
LINE
8
0
6
CONTINUOUS
10
388.1125
20
60.65
11
388.1125
21
46.65
0
LINE
8
0
6
CONTINUOUS
10
219.3717859
20
-10.2902525
11
222.9952525
21
-23.8132141
0
LINE
8
0
6
CONTINUOUS
10
222.9952525
20
-23.8132141
11
236.5182141
21
-20.1897475
0
LINE
8
0
6
CONTINUOUS
10
236.5182141
20
-20.1897475
11
232.8947475
21
-6.6667859
0
LINE
8
0
6
CONTINUOUS
10
232.8947475
20
-6.6667859
11
219.3717859
21
-10.2902525
0
LINE
8
0
6
CONTINUOUS
10
397.89375
20
7.55
11
404.89375
21
7.55
0
LINE
8
0
6
CONTINUOUS
10
404.89375
20
7.55
11
404.89375
21
21.55
0
LINE
8
0
6
CONTINUOUS
10
404.89375
20
21.55
11
397.89375
21
21.55
0
LINE
8
0
6
CONTINUOUS
10
397.89375
20
21.55
11
397.89375
21
7.55
0
LINE
8
0
6
CONTINUOUS
10
393.13125
20
26.6
11
400.13125
21
26.6
0
LINE
8
0
6
CONTINUOUS
10
400.13125
20
26.6
11
400.13125
21
40.6
0
LINE
8
0
6
CONTINUOUS
10
400.13125
20
40.6
11
393.13125
21
40.6
0
LINE
8
0
6
CONTINUOUS
10
393.13125
20
40.6
11
393.13125
21
26.6
0
LINE
8
0
6
CONTINUOUS
10
390.75
20
64.7
11
397.75
21
64.7
0
LINE
8
0
6
CONTINUOUS
10
397.75
20
64.7
11
397.75
21
78.7
0
LINE
8
0
6
CONTINUOUS
10
397.75
20
78.7
11
390.75
21
78.7
0
LINE
8
0
6
CONTINUOUS
10
390.75
20
78.7
11
390.75
21
64.7
0
LINE
8
0
6
CONTINUOUS
10
223.0451915
20
-27.863292
11
224.8569248
21
-34.6247728
0
LINE
8
0
6
CONTINUOUS
10
224.8569248
20
-34.6247728
11
238.3798863
21
-31.0013062
0
LINE
8
0
6
CONTINUOUS
10
238.3798863
20
-31.0013062
11
236.568153
21
-24.2398254
0
LINE
8
0
6
CONTINUOUS
10
236.568153
20
-24.2398254
11
223.0451915
21
-27.863292
0
LINE
8
0
6
CONTINUOUS
10
369.04375
20
7.55
11
376.04375
21
7.55
0
LINE
8
0
6
CONTINUOUS
10
376.04375
20
7.55
11
376.04375
21
21.55
0
LINE
8
0
6
CONTINUOUS
10
376.04375
20
21.55
11
369.04375
21
21.55
0
LINE
8
0
6
CONTINUOUS
10
369.04375
20
21.55
11
369.04375
21
7.55
0
LINE
8
0
6
CONTINUOUS
10
364.28125
20
26.6
11
371.28125
21
26.6
0
LINE
8
0
6
CONTINUOUS
10
371.28125
20
26.6
11
371.28125
21
40.6
0
LINE
8
0
6
CONTINUOUS
10
371.28125
20
40.6
11
364.28125
21
40.6
0
LINE
8
0
6
CONTINUOUS
10
364.28125
20
40.6
11
364.28125
21
26.6
0
LINE
8
0
6
CONTINUOUS
10
361.9
20
64.7
11
368.9
21
64.7
0
LINE
8
0
6
CONTINUOUS
10
368.9
20
64.7
11
368.9
21
78.7
0
LINE
8
0
6
CONTINUOUS
10
368.9
20
78.7
11
361.9
21
78.7
0
LINE
8
0
6
CONTINUOUS
10
361.9
20
78.7
11
361.9
21
64.7
0
LINE
8
0
6
CONTINUOUS
10
215.578262
20
0.0036681
11
217.3899953
21
-6.7578127
0
LINE
8
0
6
CONTINUOUS
10
217.3899953
20
-6.7578127
11
230.9129568
21
-3.1343461
0
LINE
8
0
6
CONTINUOUS
10
230.9129568
20
-3.1343461
11
229.1012235
21
3.6271347
0
LINE
8
0
6
CONTINUOUS
10
229.1012235
20
3.6271347
11
215.578262
21
0.0036681
0
ENDSEC
0
EOF