0
SECTION
2
HEADER
9
$INSUNITS
70
4
0
ENDSEC
0
SECTION
2
TABLES
0
TABLE
2
LTYPE
0
LTYPE
72
65
70
0
2
CONTINUOUS
3
______
73
0
40
0
0
LTYPE
72
65
70
0
2
DASHED
3
_ _ _ 
73
2
40
7.5
49
5
49
-2.5
0
LTYPE
72
65
70
0
2
DOTTED
3
. . . 
73
2
40
1.5
49
0.5
49
-1
0
ENDTAB
0
TABLE
2
LAYER
0
ENDTAB
0
ENDSEC
0
SECTION
2
ENTITIES
0
LINE
8
0
6
CONTINUOUS
10
-10.025
20
47.625
11
5.2625
21
47.625
0
LINE
8
0
6
CONTINUOUS
10
-10.025
20
66.675
11
30.075
21
66.675
0
LINE
8
0
6
CONTINUOUS
10
-10.025
20
66.675
11
-10.025
21
47.625
0
LINE
8
0
6
CONTINUOUS
10
5.0125
20
-9.525
11
7.51875
21
-9.525
0
LINE
8
0
6
CONTINUOUS
10
18.16875
20
-9.525
11
18.16875
21
9.525
0
LINE
8
0
6
CONTINUOUS
10
2.88125
20
9.525
11
-1.88125
21
9.525
0
LINE
8
0
6
CONTINUOUS
10
-1.88125
20
9.525
11
-1.88125
21
-9.525
0
LINE
8
0
6
CONTINUOUS
10
18.16875
20
9.525
11
22.93125
21
9.525
0
LINE
8
0
6
CONTINUOUS
10
22.93125
20
9.525
11
22.93125
21
28.575
0
LINE
8
0
6
CONTINUOUS
10
5.2625
20
28.575
11
2.88125
21
28.575
0
LINE
8
0
6
CONTINUOUS
10
2.88125
20
28.575
11
2.88125
21
9.525
0
LINE
8
0
6
CONTINUOUS
10
22.93125
20
28.575
11
25.3125
21
28.575
0
LINE
8
0
6
CONTINUOUS
10
25.3125
20
28.575
11
25.3125
21
47.625
0
LINE
8
0
6
CONTINUOUS
10
5.2625
20
47.625
11
5.2625
21
28.575
0
LINE
8
0
6
CONTINUOUS
10
25.3125
20
47.625
11
30.075
21
47.625
0
LINE
8
0
6
CONTINUOUS
10
30.075
20
-6.025
11
32.58125
21
-6.025
0
LINE
8
0
6
CONTINUOUS
10
50.125
20
-6.025
11
50.125
21
-2.525
0
LINE
8
0
6
CONTINUOUS
10
30.075
20
-6.025
11
30.075
21
47.625
0
LINE
8
0
6
CONTINUOUS
10
50.125
20
70.175
11
30.075
21
70.175
0
LINE
8
0
6
CONTINUOUS
10
30.075
20
70.175
11
30.075
21
66.675
0
LINE
8
0
6
CONTINUOUS
10
50.125
20
-2.525
11
57.64375
21
-2.525
0
LINE
8
0
6
CONTINUOUS
10
70.175
20
-2.525
11
70.175
21
0.975
0
LINE
8
0
6
CONTINUOUS
10
70.175
20
73.675
11
50.125
21
73.675
0
LINE
8
0
6
CONTINUOUS
10
50.125
20
73.675
11
50.125
21
70.175
0
LINE
8
0
6
CONTINUOUS
10
70.175
20
0.975
11
90.225
21
0.975
0
LINE
8
0
6
CONTINUOUS
10
90.225
20
73.675
11
90.225
21
77.175
0
LINE
8
0
6
CONTINUOUS
10
90.225
20
77.175
11
70.175
21
77.175
0
LINE
8
0
6
CONTINUOUS
10
70.175
20
77.175
11
70.175
21
73.675
0
LINE
8
0
6
CONTINUOUS
10
102.75625
20
-2.525
11
110.275
21
-2.525
0
LINE
8
0
6
CONTINUOUS
10
90.225
20
0.975
11
90.225
21
-2.525
0
LINE
8
0
6
CONTINUOUS
10
110.275
20
70.175
11
110.275
21
73.675
0
LINE
8
0
6
CONTINUOUS
10
110.275
20
73.675
11
90.225
21
73.675
0
LINE
8
0
6
CONTINUOUS
10
127.81875
20
-6.025
11
130.325
21
-6.025
0
LINE
8
0
6
CONTINUOUS
10
130.325
20
-6.025
11
130.325
21
70.175
0
LINE
8
0
6
CONTINUOUS
10
110.275
20
-2.525
11
110.275
21
-6.025
0
LINE
8
0
6
CONTINUOUS
10
130.325
20
70.175
11
110.275
21
70.175
0
LINE
8
0
6
CONTINUOUS
10
-15.0375
20
-28.575
11
5.0125
21
-28.575
0
LINE
8
0
6
CONTINUOUS
10
5.0125
20
-28.575
11
5.0125
21
-9.525
0
LINE
8
0
6
CONTINUOUS
10
-1.88125
20
-9.525
11
-15.0375
21
-9.525
0
LINE
8
0
6
CONTINUOUS
10
-15.0375
20
-9.525
11
-15.0375
21
-28.575
0
LINE
8
0
6
CONTINUOUS
10
7.51875
20
-28.575
11
27.56875
21
-28.575
0
LINE
8
0
6
CONTINUOUS
10
27.56875
20
-28.575
11
27.56875
21
-9.525
0
LINE
8
0
6
CONTINUOUS
10
27.56875
20
-9.525
11
18.16875
21
-9.525
0
LINE
8
0
6
CONTINUOUS
10
7.51875
20
-9.525
11
7.51875
21
-28.575
0
LINE
8
0
6
CONTINUOUS
10
32.58125
20
-25.075
11
52.63125
21
-25.075
0
LINE
8
0
6
CONTINUOUS
10
52.63125
20
-25.075
11
52.63125
21
-6.025
0
LINE
8
0
6
CONTINUOUS
10
52.63125
20
-6.025
11
50.125
21
-6.025
0
LINE
8
0
6
CONTINUOUS
10
32.58125
20
-6.025
11
32.58125
21
-25.075
0
LINE
8
0
6
CONTINUOUS
10
57.64375
20
-21.575
11
77.69375
21
-21.575
0
LINE
8
0
6
CONTINUOUS
10
77.69375
20
-21.575
11
77.69375
21
-2.525
0
LINE
8
0
6
CONTINUOUS
10
77.69375
20
-2.525
11
70.175
21
-2.525
0
LINE
8
0
6
CONTINUOUS
10
57.64375
20
-2.525
11
57.64375
21
-21.575
0
LINE
8
0
6
CONTINUOUS
10
82.70625
20
-21.575
11
102.75625
21
-21.575
0
LINE
8
0
6
CONTINUOUS
10
102.75625
20
-21.575
11
102.75625
21
-2.525
0
LINE
8
0
6
CONTINUOUS
10
90.225
20
-2.525
11
82.70625
21
-2.525
0
LINE
8
0
6
CONTINUOUS
10
82.70625
20
-2.525
11
82.70625
21
-21.575
0
LINE
8
0
6
CONTINUOUS
10
107.76875
20
-25.075
11
127.81875
21
-25.075
0
LINE
8
0
6
CONTINUOUS
10
127.81875
20
-25.075
11
127.81875
21
-6.025
0
LINE
8
0
6
CONTINUOUS
10
110.275
20
-6.025
11
107.76875
21
-6.025
0
LINE
8
0
6
CONTINUOUS
10
107.76875
20
-6.025
11
107.76875
21
-25.075
0
LINE
8
0
6
CONTINUOUS
10
152.9707826
20
-31.5086578
11
158.1601044
21
-12.141845
0
LINE
8
0
6
CONTINUOUS
10
158.1601044
20
-12.141845
11
139.7592174
21
-7.2113422
0
LINE
8
0
6
CONTINUOUS
10
139.7592174
20
-7.2113422
11
134.5698956
21
-26.578155
0
LINE
8
0
6
CONTINUOUS
10
134.5698956
20
-26.578155
11
152.9707826
21
-31.5086578
0
LINE
8
0
6
CONTINUOUS
10
239.975
20
-9.525
11
260.025
21
-9.525
0
LINE
8
0
6
CONTINUOUS
10
260.025
20
-9.525
11
260.025
21
-6.025
0
LINE
8
0
6
CONTINUOUS
10
239.975
20
-9.525
11
239.975
21
85.725
0
LINE
8
0
6
CONTINUOUS
10
260.025
20
85.725
11
239.975
21
85.725
0
LINE
8
0
6
CONTINUOUS
10
260.025
20
-6.025
11
280.075
21
-6.025
0
LINE
8
0
6
CONTINUOUS
10
280.075
20
-6.025
11
280.075
21
-2.525
0
LINE
8
0
6
CONTINUOUS
10
280.075
20
89.225
11
260.025
21
89.225
0
LINE
8
0
6
CONTINUOUS
10
260.025
20
89.225
11
260.025
21
85.725
0
LINE
8
0
6
CONTINUOUS
10
280.075
20
-2.525
11
300.125
21
-2.525
0
LINE
8
0
6
CONTINUOUS
10
300.125
20
89.225
11
300.125
21
92.725
0
LINE
8
0
6
CONTINUOUS
10
300.125
20
92.725
11
280.075
21
92.725
0
LINE
8
0
6
CONTINUOUS
10
280.075
20
92.725
11
280.075
21
89.225
0
LINE
8
0
6
CONTINUOUS
10
300.125
20
-6.025
11
320.175
21
-6.025
0
LINE
8
0
6
CONTINUOUS
10
300.125
20
-2.525
11
300.125
21
-6.025
0
LINE
8
0
6
CONTINUOUS
10
320.175
20
85.725
11
320.175
21
89.225
0
LINE
8
0
6
CONTINUOUS
10
320.175
20
89.225
11
300.125
21
89.225
0
LINE
8
0
6
CONTINUOUS
10
320.175
20
-9.525
11
340.225
21
-9.525
0
LINE
8
0
6
CONTINUOUS
10
320.175
20
-6.025
11
320.175
21
-9.525
0
LINE
8
0
6
CONTINUOUS
10
340.225
20
82.225
11
340.225
21
85.725
0
LINE
8
0
6
CONTINUOUS
10
340.225
20
85.725
11
320.175
21
85.725
0
LINE
8
0
6
CONTINUOUS
10
340.225
20
-13.025
11
380.325
21
-13.025
0
LINE
8
0
6
CONTINUOUS
10
340.225
20
-9.525
11
340.225
21
-13.025
0
LINE
8
0
6
CONTINUOUS
10
360.275
20
6.025
11
360.275
21
44.125
0
LINE
8
0
6
CONTINUOUS
10
360.275
20
63.175
11
360.275
21
82.225
0
LINE
8
0
6
CONTINUOUS
10
360.275
20
82.225
11
340.225
21
82.225
0
LINE
8
0
6
CONTINUOUS
10
380.325
20
-13.025
11
380.325
21
6.025
0
LINE
8
0
6
CONTINUOUS
10
376.94375
20
6.025
11
360.275
21
6.025
0
LINE
8
0
6
CONTINUOUS
10
380.325
20
6.025
11
396.99375
21
6.025
0
LINE
8
0
6
CONTINUOUS
10
396.99375
20
6.025
11
396.99375
21
25.075
0
LINE
8
0
6
CONTINUOUS
10
396.99375
20
25.075
11
392.23125
21
25.075
0
LINE
8
0
6
CONTINUOUS
10
376.94375
20
25.075
11
376.94375
21
6.025
0
LINE
8
0
6
CONTINUOUS
10
372.18125
20
25.075
11
376.94375
21
25.075
0
LINE
8
0
6
CONTINUOUS
10
392.23125
20
25.075
11
392.23125
21
44.125
0
LINE
8
0
6
CONTINUOUS
10
385.0875
20
44.125
11
380.325
21
44.125
0
LINE
8
0
6
CONTINUOUS
10
372.18125
20
44.125
11
372.18125
21
25.075
0
LINE
8
0
6
CONTINUOUS
10
360.275
20
44.125
11
372.18125
21
44.125
0
LINE
8
0
6
CONTINUOUS
10
380.325
20
44.125
11
380.325
21
63.175
0
LINE
8
0
6
CONTINUOUS
10
369.8
20
63.175
11
360.275
21
63.175
0
LINE
8
0
6
CONTINUOUS
10
380.325
20
63.175
11
385.0875
21
63.175
0
LINE
8
0
6
CONTINUOUS
10
389.85
20
63.175
11
389.85
21
82.225
0
LINE
8
0
6
CONTINUOUS
10
389.85
20
82.225
11
369.8
21
82.225
0
LINE
8
0
6
CONTINUOUS
10
369.8
20
82.225
11
369.8
21
63.175
0
LINE
8
0
6
CONTINUOUS
10
392.23125
20
44.125
11
405.1375
21
44.125
0
LINE
8
0
6
CONTINUOUS
10
405.1375
20
44.125
11
405.1375
21
63.175
0
LINE
8
0
6
CONTINUOUS
10
405.1375
20
63.175
11
389.85
21
63.175
0
LINE
8
0
6
CONTINUOUS
10
385.0875
20
63.175
11
385.0875
21
44.125
0
LINE
8
0
6
CONTINUOUS
10
216.1498956
20
-8.021845
11
221.3392174
21
-27.3886578
0
LINE
8
0
6
CONTINUOUS
10
221.3392174
20
-27.3886578
11
239.7401044
21
-22.458155
0
LINE
8
0
6
CONTINUOUS
10
239.7401044
20
-22.458155
11
234.5507826
21
-3.0913422
0
LINE
8
0
6
CONTINUOUS
10
234.5507826
20
-3.0913422
11
216.1498956
21
-8.021845
0
ENDSEC
0
EOF