0
SECTION
2
HEADER
9
$INSUNITS
70
4
0
ENDSEC
0
SECTION
2
TABLES
0
TABLE
2
LTYPE
0
LTYPE
72
65
70
0
2
CONTINUOUS
3
______
73
0
40
0
0
LTYPE
72
65
70
0
2
DASHED
3
_ _ _ 
73
2
40
7.5
49
5
49
-2.5
0
LTYPE
72
65
70
0
2
DOTTED
3
. . . 
73
2
40
1.5
49
0.5
49
-1
0
ENDTAB
0
TABLE
2
LAYER
0
ENDTAB
0
ENDSEC
0
SECTION
2
ENTITIES
0
LINE
8
0
6
CONTINUOUS
10
19.06875
20
-8
11
26.06875
21
-8
0
LINE
8
0
6
CONTINUOUS
10
26.06875
20
-8
11
26.06875
21
6
0
LINE
8
0
6
CONTINUOUS
10
26.06875
20
6
11
19.06875
21
6
0
LINE
8
0
6
CONTINUOUS
10
19.06875
20
6
11
19.06875
21
-8
0
LINE
8
0
6
CONTINUOUS
10
156.9200047
20
-10.8778127
11
158.731738
21
-4.1163319
0
LINE
8
0
6
CONTINUOUS
10
158.731738
20
-4.1163319
11
145.2087765
21
-0.4928653
0
LINE
8
0
6
CONTINUOUS
10
145.2087765
20
-0.4928653
11
143.3970432
21
-7.2543461
0
LINE
8
0
6
CONTINUOUS
10
143.3970432
20
-7.2543461
11
156.9200047
21
-10.8778127
0
LINE
8
0
6
CONTINUOUS
10
397.89375
20
7.55
11
404.89375
21
7.55
0
LINE
8
0
6
CONTINUOUS
10
404.89375
20
7.55
11
404.89375
21
21.55
0
LINE
8
0
6
CONTINUOUS
10
404.89375
20
21.55
11
397.89375
21
21.55
0
LINE
8
0
6
CONTINUOUS
10
397.89375
20
21.55
11
397.89375
21
7.55
0
LINE
8
0
6
CONTINUOUS
10
393.13125
20
26.6
11
400.13125
21
26.6
0
LINE
8
0
6
CONTINUOUS
10
400.13125
20
26.6
11
400.13125
21
40.6
0
LINE
8
0
6
CONTINUOUS
10
400.13125
20
40.6
11
393.13125
21
40.6
0
LINE
8
0
6
CONTINUOUS
10
393.13125
20
40.6
11
393.13125
21
26.6
0
LINE
8
0
6
CONTINUOUS
10
390.75
20
64.7
11
397.75
21
64.7
0
LINE
8
0
6
CONTINUOUS
10
397.75
20
64.7
11
397.75
21
78.7
0
LINE
8
0
6
CONTINUOUS
10
397.75
20
78.7
11
390.75
21
78.7
0
LINE
8
0
6
CONTINUOUS
10
390.75
20
78.7
11
390.75
21
64.7
0
LINE
8
0
6
CONTINUOUS
10
223.0451915
20
-27.863292
11
224.8569248
21
-34.6247728
0
LINE
8
0
6
CONTINUOUS
10
224.8569248
20
-34.6247728
11
238.3798863
21
-31.0013062
0
LINE
8
0
6
CONTINUOUS
10
238.3798863
20
-31.0013062
11
236.568153
21
-24.2398254
0
LINE
8
0
6
CONTINUOUS
10
236.568153
20
-24.2398254
11
223.0451915
21
-27.863292
0
LINE
8
0
6
CONTINUOUS
10
-9.78125
20
-8
11
-2.78125
21
-8
0
LINE
8
0
6
CONTINUOUS
10
-2.78125
20
-8
11
-2.78125
21
6
0
LINE
8
0
6
CONTINUOUS
10
-2.78125
20
6
11
-9.78125
21
6
0
LINE
8
0
6
CONTINUOUS
10
-9.78125
20
6
11
-9.78125
21
-8
0
LINE
8
0
6
CONTINUOUS
10
149.4530752
20
-38.7447728
11
151.2648085
21
-31.983292
0
LINE
8
0
6
CONTINUOUS
10
151.2648085
20
-31.983292
11
137.741847
21
-28.3598254
0
LINE
8
0
6
CONTINUOUS
10
137.741847
20
-28.3598254
11
135.9301137
21
-35.1213062
0
LINE
8
0
6
CONTINUOUS
10
135.9301137
20
-35.1213062
11
149.4530752
21
-38.7447728
0
LINE
8
0
6
CONTINUOUS
10
369.04375
20
7.55
11
376.04375
21
7.55
0
LINE
8
0
6
CONTINUOUS
10
376.04375
20
7.55
11
376.04375
21
21.55
0
LINE
8
0
6
CONTINUOUS
10
376.04375
20
21.55
11
369.04375
21
21.55
0
LINE
8
0
6
CONTINUOUS
10
369.04375
20
21.55
11
369.04375
21
7.55
0
LINE
8
0
6
CONTINUOUS
10
364.28125
20
26.6
11
371.28125
21
26.6
0
LINE
8
0
6
CONTINUOUS
10
371.28125
20
26.6
11
371.28125
21
40.6
0
LINE
8
0
6
CONTINUOUS
10
371.28125
20
40.6
11
364.28125
21
40.6
0
LINE
8
0
6
CONTINUOUS
10
364.28125
20
40.6
11
364.28125
21
26.6
0
LINE
8
0
6
CONTINUOUS
10
361.9
20
64.7
11
368.9
21
64.7
0
LINE
8
0
6
CONTINUOUS
10
368.9
20
64.7
11
368.9
21
78.7
0
LINE
8
0
6
CONTINUOUS
10
368.9
20
78.7
11
361.9
21
78.7
0
LINE
8
0
6
CONTINUOUS
10
361.9
20
78.7
11
361.9
21
64.7
0
LINE
8
0
6
CONTINUOUS
10
215.578262
20
0.0036681
11
217.3899953
21
-6.7578127
0
LINE
8
0
6
CONTINUOUS
10
217.3899953
20
-6.7578127
11
230.9129568
21
-3.1343461
0
LINE
8
0
6
CONTINUOUS
10
230.9129568
20
-3.1343461
11
229.1012235
21
3.6271347
0
LINE
8
0
6
CONTINUOUS
10
229.1012235
20
3.6271347
11
215.578262
21
0.0036681
0
ENDSEC
0
EOF