0
SECTION
2
HEADER
9
$INSUNITS
70
4
0
ENDSEC
0
SECTION
2
TABLES
0
TABLE
2
LTYPE
0
LTYPE
72
65
70
64
2
CONTINUOUS
3
______
73
0
40
0
0
ENDTAB
0
TABLE
2
LAYER
0
ENDTAB
0
ENDSEC
0
SECTION
2
ENTITIES
0
LINE
8
0
10
248.0465179
20
-241.5
11
265
21
-241.5
0
ARC
8
0
10
265
20
-239.5
40
2
50
270
51
360
0
LINE
8
0
10
267
20
-239.5
11
267
21
-238
0
LINE
8
0
10
267
20
-238
11
299
21
-238
0
LINE
8
0
10
299
20
-238
11
299
21
-239.5
0
ARC
8
0
10
301
20
-239.5
40
2
50
180
51
270
0
LINE
8
0
10
301
20
-241.5
11
318
21
-241.5
0
LINE
8
0
10
318
20
-241.5
11
318
21
-243
0
ARC
8
0
10
320
20
-243
40
2
50
180
51
270
0
LINE
8
0
10
320
20
-245
11
379
21
-245
0
ARC
8
0
10
379
20
-243
40
2
50
270
51
360
0
LINE
8
0
10
381
20
-243
11
381
21
-236
0
LINE
8
0
10
395.625
20
-236
11
381
21
-236
0
ARC
8
0
10
395.625
20
-234
40
2
50
270
51
0
0
LINE
8
0
10
397.625
20
-234
11
397.625
21
-195
0
ARC
8
0
10
395.625
20
-195
40
2
50
0
51
90
0
LINE
8
0
10
392.875
20
-193
11
395.625
21
-193
0
LINE
8
0
10
392.875
20
-193
11
392.875
21
-188
0
LINE
8
0
10
392.875
20
-188
11
402.75
21
-188
0
ARC
8
0
10
402.75
20
-186
40
2
50
270
51
360
0
LINE
8
0
10
404.75
20
-186
11
404.75
21
-167
0
ARC
8
0
10
402.75
20
-167
40
2
50
0
51
90
0
LINE
8
0
10
402.75
20
-165
11
391
21
-165
0
LINE
8
0
10
391
20
-157
11
391
21
-165
0
ARC
8
0
10
389
20
-157
40
2
50
360
51
401.4096231
0
LINE
8
0
10
390.5
20
-155.6771243
11
390.5
21
-148
0
ARC
8
0
10
388.5
20
-148
40
2
50
360
51
90
0
LINE
8
0
10
343
20
-146
11
388.5
21
-146
0
LINE
8
0
10
343
20
-146
11
343
21
-144.5
0
ARC
8
0
10
341
20
-144.5
40
2
50
0
51
90
0
LINE
8
0
10
341
20
-142.5
11
324
21
-142.5
0
LINE
8
0
10
324
20
-142.5
11
324
21
-141
0
ARC
8
0
10
322
20
-141
40
2
50
0
51
90
0
LINE
8
0
10
322
20
-139
11
305
21
-139
0
LINE
8
0
10
305
20
-139
11
305
21
-137.5
0
ARC
8
0
10
303
20
-137.5
40
2
50
0
51
90
0
LINE
8
0
10
303
20
-135.5
11
263
21
-135.5
0
ARC
8
0
10
263
20
-137.5
40
2
50
90
51
180
0
LINE
8
0
10
261
20
-137.5
11
261
21
-139
0
LINE
8
0
10
261
20
-139
11
244
21
-139
0
ARC
8
0
10
244
20
-141
40
2
50
90
51
180
0
LINE
8
0
10
242
20
-141
11
242
21
-142.5
0
LINE
8
0
10
211.11
20
-142.5
11
242
21
-142.5
0
ARC
8
0
10
211.11
20
-144.5
40
2
50
90
51
180
0
LINE
8
0
10
209.11
20
-144.5
11
209.11
21
-183.5
0
ARC
8
0
10
211.11
20
-183.5
40
2
50
180
51
270
0
LINE
8
0
10
211.11
20
-185.5
11
213
21
-185.5
0
LINE
8
0
10
223
20
-215.0453983
11
223
21
-195.5
0
LINE
8
0
10
215.588191
20
-224.7046563
11
209.2296856
21
-226.4084128
0
ARC
8
0
10
209.7473237
20
-228.3402644
40
2
50
105.0000004
51
195.0000001
0
LINE
8
0
10
207.815472
20
-228.8579025
11
218.1682339
21
-267.4949356
0
ARC
8
0
10
220.1000856
20
-266.9772975
40
2
50
195.0000001
51
284.9999999
0
LINE
8
0
10
220.6177237
20
-268.9091492
11
238.9703144
21
-263.9915873
0
ARC
8
0
10
238.4526763
20
-262.0597356
40
2
50
285.0000001
51
374.9999999
0
LINE
8
0
10
240.384528
20
-261.5420975
11
238.3872595
21
-254.0881901
0
ARC
8
0
10
213
20
-195.5
40
10
50
0
51
90
0
ARC
8
0
10
213
20
-215.0453983
40
10
50
285.0000034
51
0
0
ARC
8
0
10
248.0465179
20
-251.5
40
10
50
90
51
194.9999979
0
LINE
8
0
10
238
20
-237
11
252
21
-237
0
LINE
8
0
10
252
20
-237
11
252
21
-223
0
LINE
8
0
10
252
20
-223
11
238
21
-223
0
LINE
8
0
10
238
20
-223
11
238
21
-237
0
LINE
8
0
10
238
20
-218
11
252
21
-218
0
LINE
8
0
10
252
20
-218
11
252
21
-204
0
LINE
8
0
10
252
20
-204
11
238
21
-204
0
LINE
8
0
10
238
20
-204
11
238
21
-218
0
LINE
8
0
10
238
20
-199
11
252
21
-199
0
LINE
8
0
10
252
20
-199
11
252
21
-185
0
LINE
8
0
10
252
20
-185
11
238
21
-185
0
LINE
8
0
10
238
20
-185
11
238
21
-199
0
LINE
8
0
10
238
20
-180
11
252
21
-180
0
LINE
8
0
10
252
20
-180
11
252
21
-166
0
LINE
8
0
10
252
20
-166
11
238
21
-166
0
LINE
8
0
10
238
20
-166
11
238
21
-180
0
LINE
8
0
10
238
20
-161
11
252
21
-161
0
LINE
8
0
10
252
20
-161
11
252
21
-147
0
LINE
8
0
10
252
20
-147
11
238
21
-147
0
LINE
8
0
10
238
20
-147
11
238
21
-161
0
LINE
8
0
10
257
20
-233.5
11
271
21
-233.5
0
LINE
8
0
10
271
20
-233.5
11
271
21
-219.5
0
LINE
8
0
10
271
20
-219.5
11
257
21
-219.5
0
LINE
8
0
10
257
20
-219.5
11
257
21
-233.5
0
LINE
8
0
10
257
20
-214.5
11
271
21
-214.5
0
LINE
8
0
10
271
20
-214.5
11
271
21
-200.5
0
LINE
8
0
10
271
20
-200.5
11
257
21
-200.5
0
LINE
8
0
10
257
20
-200.5
11
257
21
-214.5
0
LINE
8
0
10
257
20
-195.5
11
271
21
-195.5
0
LINE
8
0
10
271
20
-195.5
11
271
21
-181.5
0
LINE
8
0
10
271
20
-181.5
11
257
21
-181.5
0
LINE
8
0
10
257
20
-181.5
11
257
21
-195.5
0
LINE
8
0
10
257
20
-176.5
11
271
21
-176.5
0
LINE
8
0
10
271
20
-176.5
11
271
21
-162.5
0
LINE
8
0
10
271
20
-162.5
11
257
21
-162.5
0
LINE
8
0
10
257
20
-162.5
11
257
21
-176.5
0
LINE
8
0
10
257
20
-157.5
11
271
21
-157.5
0
LINE
8
0
10
271
20
-157.5
11
271
21
-143.5
0
LINE
8
0
10
271
20
-143.5
11
257
21
-143.5
0
LINE
8
0
10
257
20
-143.5
11
257
21
-157.5
0
LINE
8
0
10
276
20
-230
11
290
21
-230
0
LINE
8
0
10
290
20
-230
11
290
21
-216
0
LINE
8
0
10
290
20
-216
11
276
21
-216
0
LINE
8
0
10
276
20
-216
11
276
21
-230
0
LINE
8
0
10
276
20
-211
11
290
21
-211
0
LINE
8
0
10
290
20
-211
11
290
21
-197
0
LINE
8
0
10
290
20
-197
11
276
21
-197
0
LINE
8
0
10
276
20
-197
11
276
21
-211
0
LINE
8
0
10
276
20
-192
11
290
21
-192
0
LINE
8
0
10
290
20
-192
11
290
21
-178
0
LINE
8
0
10
290
20
-178
11
276
21
-178
0
LINE
8
0
10
276
20
-178
11
276
21
-192
0
LINE
8
0
10
276
20
-173
11
290
21
-173
0
LINE
8
0
10
290
20
-173
11
290
21
-159
0
LINE
8
0
10
290
20
-159
11
276
21
-159
0
LINE
8
0
10
276
20
-159
11
276
21
-173
0
LINE
8
0
10
276
20
-154
11
290
21
-154
0
LINE
8
0
10
290
20
-154
11
290
21
-140
0
LINE
8
0
10
290
20
-140
11
276
21
-140
0
LINE
8
0
10
276
20
-140
11
276
21
-154
0
LINE
8
0
10
295
20
-233.5
11
309
21
-233.5
0
LINE
8
0
10
309
20
-233.5
11
309
21
-219.5
0
LINE
8
0
10
309
20
-219.5
11
295
21
-219.5
0
LINE
8
0
10
295
20
-219.5
11
295
21
-233.5
0
LINE
8
0
10
295
20
-214.5
11
309
21
-214.5
0
LINE
8
0
10
309
20
-214.5
11
309
21
-200.5
0
LINE
8
0
10
309
20
-200.5
11
295
21
-200.5
0
LINE
8
0
10
295
20
-200.5
11
295
21
-214.5
0
LINE
8
0
10
295
20
-195.5
11
309
21
-195.5
0
LINE
8
0
10
309
20
-195.5
11
309
21
-181.5
0
LINE
8
0
10
309
20
-181.5
11
295
21
-181.5
0
LINE
8
0
10
295
20
-181.5
11
295
21
-195.5
0
LINE
8
0
10
295
20
-176.5
11
309
21
-176.5
0
LINE
8
0
10
309
20
-176.5
11
309
21
-162.5
0
LINE
8
0
10
309
20
-162.5
11
295
21
-162.5
0
LINE
8
0
10
295
20
-162.5
11
295
21
-176.5
0
LINE
8
0
10
295
20
-157.5
11
309
21
-157.5
0
LINE
8
0
10
309
20
-157.5
11
309
21
-143.5
0
LINE
8
0
10
309
20
-143.5
11
295
21
-143.5
0
LINE
8
0
10
295
20
-143.5
11
295
21
-157.5
0
LINE
8
0
10
314
20
-237
11
328
21
-237
0
LINE
8
0
10
328
20
-237
11
328
21
-223
0
LINE
8
0
10
328
20
-223
11
314
21
-223
0
LINE
8
0
10
314
20
-223
11
314
21
-237
0
LINE
8
0
10
314
20
-218
11
328
21
-218
0
LINE
8
0
10
328
20
-218
11
328
21
-204
0
LINE
8
0
10
328
20
-204
11
314
21
-204
0
LINE
8
0
10
314
20
-204
11
314
21
-218
0
LINE
8
0
10
314
20
-199
11
328
21
-199
0
LINE
8
0
10
328
20
-199
11
328
21
-185
0
LINE
8
0
10
328
20
-185
11
314
21
-185
0
LINE
8
0
10
314
20
-185
11
314
21
-199
0
LINE
8
0
10
314
20
-180
11
328
21
-180
0
LINE
8
0
10
328
20
-180
11
328
21
-166
0
LINE
8
0
10
328
20
-166
11
314
21
-166
0
LINE
8
0
10
314
20
-166
11
314
21
-180
0
LINE
8
0
10
314
20
-161
11
328
21
-161
0
LINE
8
0
10
328
20
-161
11
328
21
-147
0
LINE
8
0
10
328
20
-147
11
314
21
-147
0
LINE
8
0
10
314
20
-147
11
314
21
-161
0
LINE
8
0
10
333
20
-240.5
11
347
21
-240.5
0
LINE
8
0
10
347
20
-240.5
11
347
21
-226.5
0
LINE
8
0
10
347
20
-226.5
11
333
21
-226.5
0
LINE
8
0
10
333
20
-226.5
11
333
21
-240.5
0
LINE
8
0
10
333
20
-221.5
11
347
21
-221.5
0
LINE
8
0
10
347
20
-221.5
11
347
21
-207.5
0
LINE
8
0
10
347
20
-207.5
11
333
21
-207.5
0
LINE
8
0
10
333
20
-207.5
11
333
21
-221.5
0
LINE
8
0
10
333
20
-202.5
11
347
21
-202.5
0
LINE
8
0
10
347
20
-202.5
11
347
21
-188.5
0
LINE
8
0
10
347
20
-188.5
11
333
21
-188.5
0
LINE
8
0
10
333
20
-188.5
11
333
21
-202.5
0
LINE
8
0
10
333
20
-183.5
11
347
21
-183.5
0
LINE
8
0
10
347
20
-183.5
11
347
21
-169.5
0
LINE
8
0
10
347
20
-169.5
11
333
21
-169.5
0
LINE
8
0
10
333
20
-169.5
11
333
21
-183.5
0
LINE
8
0
10
333
20
-164.5
11
347
21
-164.5
0
LINE
8
0
10
347
20
-164.5
11
347
21
-150.5
0
LINE
8
0
10
347
20
-150.5
11
333
21
-150.5
0
LINE
8
0
10
333
20
-150.5
11
333
21
-164.5
0
LINE
8
0
10
352
20
-240.5
11
366
21
-240.5
0
LINE
8
0
10
366
20
-240.5
11
366
21
-226.5
0
LINE
8
0
10
366
20
-226.5
11
352
21
-226.5
0
LINE
8
0
10
352
20
-226.5
11
352
21
-240.5
0
LINE
8
0
10
368.625
20
-221.5
11
382.625
21
-221.5
0
LINE
8
0
10
382.625
20
-221.5
11
382.625
21
-207.5
0
LINE
8
0
10
382.625
20
-207.5
11
368.625
21
-207.5
0
LINE
8
0
10
368.625
20
-207.5
11
368.625
21
-221.5
0
LINE
8
0
10
363.875
20
-202.5
11
377.875
21
-202.5
0
LINE
8
0
10
377.875
20
-202.5
11
377.875
21
-188.5
0
LINE
8
0
10
377.875
20
-188.5
11
363.875
21
-188.5
0
LINE
8
0
10
363.875
20
-188.5
11
363.875
21
-202.5
0
LINE
8
0
10
352
20
-183.5
11
366
21
-183.5
0
LINE
8
0
10
366
20
-183.5
11
366
21
-169.5
0
LINE
8
0
10
366
20
-169.5
11
352
21
-169.5
0
LINE
8
0
10
352
20
-169.5
11
352
21
-183.5
0
LINE
8
0
10
361.5
20
-164.5
11
375.5
21
-164.5
0
LINE
8
0
10
375.5
20
-164.5
11
375.5
21
-150.5
0
LINE
8
0
10
375.5
20
-150.5
11
361.5
21
-150.5
0
LINE
8
0
10
361.5
20
-150.5
11
361.5
21
-164.5
0
LINE
8
0
10
375.75
20
-183.5
11
389.75
21
-183.5
0
LINE
8
0
10
389.75
20
-183.5
11
389.75
21
-169.5
0
LINE
8
0
10
389.75
20
-169.5
11
375.75
21
-169.5
0
LINE
8
0
10
375.75
20
-169.5
11
375.75
21
-183.5
0
LINE
8
0
10
215.5267859
20
-240.2502525
11
219.1502525
21
-253.7732141
0
LINE
8
0
10
219.1502525
20
-253.7732141
11
232.6732141
21
-250.1497475
0
LINE
8
0
10
232.6732141
20
-250.1497475
11
229.0497475
21
-236.6267859
0
LINE
8
0
10
229.0497475
20
-236.6267859
11
215.5267859
21
-240.2502525
0
LINE
8
0
10
386.525
20
-222.5
11
393.525
21
-222.5
0
LINE
8
0
10
393.525
20
-222.5
11
393.525
21
-208.5
0
LINE
8
0
10
393.525
20
-208.5
11
386.525
21
-208.5
0
LINE
8
0
10
386.525
20
-208.5
11
386.525
21
-222.5
0
LINE
8
0
10
381.775
20
-203.5
11
388.775
21
-203.5
0
LINE
8
0
10
388.775
20
-203.5
11
388.775
21
-189.5
0
LINE
8
0
10
388.775
20
-189.5
11
381.775
21
-189.5
0
LINE
8
0
10
381.775
20
-189.5
11
381.775
21
-203.5
0
LINE
8
0
10
379.4
20
-165.5
11
386.4
21
-165.5
0
LINE
8
0
10
386.4
20
-165.5
11
386.4
21
-151.5
0
LINE
8
0
10
386.4
20
-151.5
11
379.4
21
-151.5
0
LINE
8
0
10
379.4
20
-151.5
11
379.4
21
-165.5
0
LINE
8
0
10
219.193721
20
-257.7991438
11
221.0054543
21
-264.5606246
0
LINE
8
0
10
221.0054543
20
-264.5606246
11
234.5284158
21
-260.937158
0
LINE
8
0
10
234.5284158
20
-260.937158
11
232.7166825
21
-254.1756772
0
LINE
8
0
10
232.7166825
20
-254.1756772
11
219.193721
21
-257.7991438
0
LINE
8
0
10
357.725
20
-222.5
11
364.725
21
-222.5
0
LINE
8
0
10
364.725
20
-222.5
11
364.725
21
-208.5
0
LINE
8
0
10
364.725
20
-208.5
11
357.725
21
-208.5
0
LINE
8
0
10
357.725
20
-208.5
11
357.725
21
-222.5
0
LINE
8
0
10
352.975
20
-203.5
11
359.975
21
-203.5
0
LINE
8
0
10
359.975
20
-203.5
11
359.975
21
-189.5
0
LINE
8
0
10
359.975
20
-189.5
11
352.975
21
-189.5
0
LINE
8
0
10
352.975
20
-189.5
11
352.975
21
-203.5
0
LINE
8
0
10
350.6
20
-165.5
11
357.6
21
-165.5
0
LINE
8
0
10
357.6
20
-165.5
11
357.6
21
-151.5
0
LINE
8
0
10
357.6
20
-151.5
11
350.6
21
-151.5
0
LINE
8
0
10
350.6
20
-151.5
11
350.6
21
-165.5
0
LINE
8
0
10
211.7397325
20
-229.98048
11
213.5514658
21
-236.7419608
0
LINE
8
0
10
213.5514658
20
-236.7419608
11
227.0744273
21
-233.1184942
0
LINE
8
0
10
227.0744273
20
-233.1184942
11
225.262694
21
-226.3570134
0
LINE
8
0
10
225.262694
20
-226.3570134
11
211.7397325
21
-229.98048
0
LINE
8
0
10
214.11
20
-180.5
11
231.89
21
-180.5
0
LINE
8
0
10
231.89
20
-180.5
11
231.89
21
-147.5
0
LINE
8
0
10
231.89
20
-147.5
11
214.11
21
-147.5
0
LINE
8
0
10
214.11
20
-147.5
11
214.11
21
-180.5
0
ENDSEC
0
EOF