0
SECTION
2
HEADER
9
$INSUNITS
70
4
0
ENDSEC
0
SECTION
2
TABLES
0
TABLE
2
LTYPE
0
LTYPE
72
65
70
64
2
CONTINUOUS
3
______
73
0
40
0
0
ENDTAB
0
TABLE
2
LAYER
0
ENDTAB
0
ENDSEC
0
SECTION
2
ENTITIES
0
LINE
8
0
10
25
20
-54.5
11
32
21
-54.5
0
LINE
8
0
10
32
20
-62.5
11
32
21
-54.5
0
ARC
8
0
10
34
20
-62.5
40
2
50
180
51
270
0
LINE
8
0
10
34.875
20
-64.5
11
34
21
-64.5
0
LINE
8
0
10
34.875
20
-78.5
11
34.875
21
-64.5
0
LINE
8
0
10
32.125
20
-78.5
11
34.875
21
-78.5
0
ARC
8
0
10
32.125
20
-80.5
40
2
50
90
51
180
0
LINE
8
0
10
30.125
20
-107.5
11
30.125
21
-80.5
0
LINE
8
0
10
20.25
20
-107.5
11
30.125
21
-107.5
0
ARC
8
0
10
20.25
20
-109.5
40
2
50
90
51
180
0
LINE
8
0
10
18.25
20
-109.5
11
18.25
21
-128.5
0
ARC
8
0
10
20.25
20
-128.5
40
2
50
180
51
270
0
LINE
8
0
10
20.25
20
-130.5
11
81.625
21
-130.5
0
ARC
8
0
10
81.625
20
-128.5
40
2
50
270
51
360
0
LINE
8
0
10
83.625
20
-128.5
11
83.625
21
-127
0
LINE
8
0
10
83.625
20
-127
11
105.375
21
-127
0
ARC
8
0
10
105.375
20
-125
40
2
50
270
51
360
0
LINE
8
0
10
107.375
20
-125
11
107.375
21
-123.5
0
LINE
8
0
10
107.375
20
-123.5
11
134.625
21
-123.5
0
LINE
8
0
10
134.625
20
-123.5
11
134.625
21
-125
0
ARC
8
0
10
136.625
20
-125
40
2
50
180
51
270
0
LINE
8
0
10
136.625
20
-127
11
169.7311151
21
-127
0
LINE
8
0
10
169.7311151
20
-127
11
167.4154721
21
-135.6420975
0
ARC
8
0
10
169.3473237
20
-136.1597356
40
2
50
164.9999999
51
255.000001
0
LINE
8
0
10
168.8296856
20
-138.0915873
11
187.1822763
21
-143.0091492
0
ARC
8
0
10
187.6999144
20
-141.0772975
40
2
50
255.0000001
51
344.9999999
0
LINE
8
0
10
189.6317661
20
-141.5949356
11
199.984528
21
-102.9579025
0
ARC
8
0
10
198.0526763
20
-102.4402644
40
2
50
344.9999999
51
435.0000001
0
LINE
8
0
10
198.5703144
20
-100.5084127
11
188.4118099
21
-97.7864496
0
LINE
8
0
10
181
20
-88.1271912
11
181
21
-81
0
LINE
8
0
10
191
20
-71
11
192.89
21
-71
0
ARC
8
0
10
192.89
20
-69
40
2
50
270
51
360
0
LINE
8
0
10
194.89
20
-69
11
194.89
21
-30
0
ARC
8
0
10
192.89
20
-30
40
2
50
0
51
90
0
LINE
8
0
10
162
20
-28
11
192.89
21
-28
0
LINE
8
0
10
162
20
-28
11
162
21
-26.5
0
ARC
8
0
10
160
20
-26.5
40
2
50
0
51
90
0
LINE
8
0
10
160
20
-24.5
11
143
21
-24.5
0
LINE
8
0
10
143
20
-24.5
11
143
21
-23
0
ARC
8
0
10
141
20
-23
40
2
50
0
51
90
0
LINE
8
0
10
141
20
-21
11
101
21
-21
0
ARC
8
0
10
101
20
-23
40
2
50
90
51
180
0
LINE
8
0
10
99
20
-23
11
99
21
-24.5
0
LINE
8
0
10
99
20
-24.5
11
82
21
-24.5
0
ARC
8
0
10
82
20
-26.5
40
2
50
90
51
180
0
LINE
8
0
10
80
20
-26.5
11
80
21
-28
0
LINE
8
0
10
80
20
-28
11
63
21
-28
0
ARC
8
0
10
63
20
-30
40
2
50
90
51
180
0
LINE
8
0
10
61
20
-30
11
61
21
-31.5
0
LINE
8
0
10
25
20
-31.5
11
61
21
-31.5
0
ARC
8
0
10
25
20
-33.5
40
2
50
90
51
180
0
LINE
8
0
10
23
20
-33.5
11
23
21
-52.5
0
ARC
8
0
10
25
20
-52.5
40
2
50
180
51
270
0
ARC
8
0
10
191
20
-88.1271912
40
10
50
180
51
255.0000021
0
ARC
8
0
10
191
20
-81
40
10
50
90
51
180
0
LINE
8
0
10
38
20
-50
11
52
21
-50
0
LINE
8
0
10
52
20
-50
11
52
21
-36
0
LINE
8
0
10
52
20
-36
11
38
21
-36
0
LINE
8
0
10
38
20
-36
11
38
21
-50
0
LINE
8
0
10
45.125
20
-107
11
59.125
21
-107
0
LINE
8
0
10
59.125
20
-107
11
59.125
21
-93
0
LINE
8
0
10
59.125
20
-93
11
45.125
21
-93
0
LINE
8
0
10
45.125
20
-93
11
45.125
21
-107
0
LINE
8
0
10
49.875
20
-88
11
63.875
21
-88
0
LINE
8
0
10
63.875
20
-88
11
63.875
21
-74
0
LINE
8
0
10
63.875
20
-74
11
49.875
21
-74
0
LINE
8
0
10
49.875
20
-74
11
49.875
21
-88
0
LINE
8
0
10
52.25
20
-69
11
66.25
21
-69
0
LINE
8
0
10
66.25
20
-69
11
66.25
21
-55
0
LINE
8
0
10
66.25
20
-55
11
52.25
21
-55
0
LINE
8
0
10
52.25
20
-55
11
52.25
21
-69
0
LINE
8
0
10
57
20
-50
11
71
21
-50
0
LINE
8
0
10
71
20
-50
11
71
21
-36
0
LINE
8
0
10
71
20
-36
11
57
21
-36
0
LINE
8
0
10
57
20
-36
11
57
21
-50
0
LINE
8
0
10
76
20
-103.5
11
90
21
-103.5
0
LINE
8
0
10
90
20
-103.5
11
90
21
-89.5
0
LINE
8
0
10
90
20
-89.5
11
76
21
-89.5
0
LINE
8
0
10
76
20
-89.5
11
76
21
-103.5
0
LINE
8
0
10
76
20
-84.5
11
90
21
-84.5
0
LINE
8
0
10
90
20
-84.5
11
90
21
-70.5
0
LINE
8
0
10
90
20
-70.5
11
76
21
-70.5
0
LINE
8
0
10
76
20
-70.5
11
76
21
-84.5
0
LINE
8
0
10
76
20
-65.5
11
90
21
-65.5
0
LINE
8
0
10
90
20
-65.5
11
90
21
-51.5
0
LINE
8
0
10
90
20
-51.5
11
76
21
-51.5
0
LINE
8
0
10
76
20
-51.5
11
76
21
-65.5
0
LINE
8
0
10
76
20
-46.5
11
90
21
-46.5
0
LINE
8
0
10
90
20
-46.5
11
90
21
-32.5
0
LINE
8
0
10
90
20
-32.5
11
76
21
-32.5
0
LINE
8
0
10
76
20
-32.5
11
76
21
-46.5
0
LINE
8
0
10
95
20
-100
11
109
21
-100
0
LINE
8
0
10
109
20
-100
11
109
21
-86
0
LINE
8
0
10
109
20
-86
11
95
21
-86
0
LINE
8
0
10
95
20
-86
11
95
21
-100
0
LINE
8
0
10
95
20
-81
11
109
21
-81
0
LINE
8
0
10
109
20
-81
11
109
21
-67
0
LINE
8
0
10
109
20
-67
11
95
21
-67
0
LINE
8
0
10
95
20
-67
11
95
21
-81
0
LINE
8
0
10
95
20
-62
11
109
21
-62
0
LINE
8
0
10
109
20
-62
11
109
21
-48
0
LINE
8
0
10
109
20
-48
11
95
21
-48
0
LINE
8
0
10
95
20
-48
11
95
21
-62
0
LINE
8
0
10
95
20
-43
11
109
21
-43
0
LINE
8
0
10
109
20
-43
11
109
21
-29
0
LINE
8
0
10
109
20
-29
11
95
21
-29
0
LINE
8
0
10
95
20
-29
11
95
21
-43
0
LINE
8
0
10
114
20
-96.5
11
128
21
-96.5
0
LINE
8
0
10
128
20
-96.5
11
128
21
-82.5
0
LINE
8
0
10
128
20
-82.5
11
114
21
-82.5
0
LINE
8
0
10
114
20
-82.5
11
114
21
-96.5
0
LINE
8
0
10
114
20
-77.5
11
128
21
-77.5
0
LINE
8
0
10
128
20
-77.5
11
128
21
-63.5
0
LINE
8
0
10
128
20
-63.5
11
114
21
-63.5
0
LINE
8
0
10
114
20
-63.5
11
114
21
-77.5
0
LINE
8
0
10
114
20
-58.5
11
128
21
-58.5
0
LINE
8
0
10
128
20
-58.5
11
128
21
-44.5
0
LINE
8
0
10
128
20
-44.5
11
114
21
-44.5
0
LINE
8
0
10
114
20
-44.5
11
114
21
-58.5
0
LINE
8
0
10
114
20
-39.5
11
128
21
-39.5
0
LINE
8
0
10
128
20
-39.5
11
128
21
-25.5
0
LINE
8
0
10
128
20
-25.5
11
114
21
-25.5
0
LINE
8
0
10
114
20
-25.5
11
114
21
-39.5
0
LINE
8
0
10
133
20
-100
11
147
21
-100
0
LINE
8
0
10
147
20
-100
11
147
21
-86
0
LINE
8
0
10
147
20
-86
11
133
21
-86
0
LINE
8
0
10
133
20
-86
11
133
21
-100
0
LINE
8
0
10
133
20
-81
11
147
21
-81
0
LINE
8
0
10
147
20
-81
11
147
21
-67
0
LINE
8
0
10
147
20
-67
11
133
21
-67
0
LINE
8
0
10
133
20
-67
11
133
21
-81
0
LINE
8
0
10
133
20
-62
11
147
21
-62
0
LINE
8
0
10
147
20
-62
11
147
21
-48
0
LINE
8
0
10
147
20
-48
11
133
21
-48
0
LINE
8
0
10
133
20
-48
11
133
21
-62
0
LINE
8
0
10
133
20
-43
11
147
21
-43
0
LINE
8
0
10
147
20
-43
11
147
21
-29
0
LINE
8
0
10
147
20
-29
11
133
21
-29
0
LINE
8
0
10
133
20
-29
11
133
21
-43
0
LINE
8
0
10
152
20
-103.5
11
166
21
-103.5
0
LINE
8
0
10
166
20
-103.5
11
166
21
-89.5
0
LINE
8
0
10
166
20
-89.5
11
152
21
-89.5
0
LINE
8
0
10
152
20
-89.5
11
152
21
-103.5
0
LINE
8
0
10
152
20
-84.5
11
166
21
-84.5
0
LINE
8
0
10
166
20
-84.5
11
166
21
-70.5
0
LINE
8
0
10
166
20
-70.5
11
152
21
-70.5
0
LINE
8
0
10
152
20
-70.5
11
152
21
-84.5
0
LINE
8
0
10
152
20
-65.5
11
166
21
-65.5
0
LINE
8
0
10
166
20
-65.5
11
166
21
-51.5
0
LINE
8
0
10
166
20
-51.5
11
152
21
-51.5
0
LINE
8
0
10
152
20
-51.5
11
152
21
-65.5
0
LINE
8
0
10
152
20
-46.5
11
166
21
-46.5
0
LINE
8
0
10
166
20
-46.5
11
166
21
-32.5
0
LINE
8
0
10
166
20
-32.5
11
152
21
-32.5
0
LINE
8
0
10
152
20
-32.5
11
152
21
-46.5
0
LINE
8
0
10
33.25
20
-126
11
47.25
21
-126
0
LINE
8
0
10
47.25
20
-126
11
47.25
21
-112
0
LINE
8
0
10
47.25
20
-112
11
33.25
21
-112
0
LINE
8
0
10
33.25
20
-112
11
33.25
21
-126
0
LINE
8
0
10
54.625
20
-126
11
68.625
21
-126
0
LINE
8
0
10
68.625
20
-126
11
68.625
21
-112
0
LINE
8
0
10
68.625
20
-112
11
54.625
21
-112
0
LINE
8
0
10
54.625
20
-112
11
54.625
21
-126
0
LINE
8
0
10
78.375
20
-122.5
11
92.375
21
-122.5
0
LINE
8
0
10
92.375
20
-122.5
11
92.375
21
-108.5
0
LINE
8
0
10
92.375
20
-108.5
11
78.375
21
-108.5
0
LINE
8
0
10
78.375
20
-108.5
11
78.375
21
-122.5
0
LINE
8
0
10
102.125
20
-119
11
116.125
21
-119
0
LINE
8
0
10
116.125
20
-119
11
116.125
21
-105
0
LINE
8
0
10
116.125
20
-105
11
102.125
21
-105
0
LINE
8
0
10
102.125
20
-105
11
102.125
21
-119
0
LINE
8
0
10
125.875
20
-119
11
139.875
21
-119
0
LINE
8
0
10
139.875
20
-119
11
139.875
21
-105
0
LINE
8
0
10
139.875
20
-105
11
125.875
21
-105
0
LINE
8
0
10
125.875
20
-105
11
125.875
21
-119
0
LINE
8
0
10
149.625
20
-122.5
11
163.625
21
-122.5
0
LINE
8
0
10
163.625
20
-122.5
11
163.625
21
-108.5
0
LINE
8
0
10
163.625
20
-108.5
11
149.625
21
-108.5
0
LINE
8
0
10
149.625
20
-108.5
11
149.625
21
-122.5
0
LINE
8
0
10
188.6497475
20
-127.8732141
11
192.2732141
21
-114.3502525
0
LINE
8
0
10
192.2732141
20
-114.3502525
11
178.7502525
21
-110.7267859
0
LINE
8
0
10
178.7502525
20
-110.7267859
11
175.1267859
21
-124.2497475
0
LINE
8
0
10
175.1267859
20
-124.2497475
11
188.6497475
21
-127.8732141
0
LINE
8
0
10
63.025
20
-108
11
70.025
21
-108
0
LINE
8
0
10
70.025
20
-108
11
70.025
21
-94
0
LINE
8
0
10
70.025
20
-94
11
63.025
21
-94
0
LINE
8
0
10
63.025
20
-94
11
63.025
21
-108
0
LINE
8
0
10
194.2485342
20
-110.8419608
11
196.0602675
21
-104.08048
0
LINE
8
0
10
196.0602675
20
-104.08048
11
182.537306
21
-100.4570134
0
LINE
8
0
10
182.537306
20
-100.4570134
11
180.7255727
21
-107.2184942
0
LINE
8
0
10
180.7255727
20
-107.2184942
11
194.2485342
21
-110.8419608
0
LINE
8
0
10
34.225
20
-108
11
41.225
21
-108
0
LINE
8
0
10
41.225
20
-108
11
41.225
21
-94
0
LINE
8
0
10
41.225
20
-94
11
34.225
21
-94
0
LINE
8
0
10
34.225
20
-94
11
34.225
21
-108
0
LINE
8
0
10
186.7945457
20
-138.6606246
11
188.606279
21
-131.8991438
0
LINE
8
0
10
188.606279
20
-131.8991438
11
175.0833175
21
-128.2756772
0
LINE
8
0
10
175.0833175
20
-128.2756772
11
173.2715842
21
-135.037158
0
LINE
8
0
10
173.2715842
20
-135.037158
11
186.7945457
21
-138.6606246
0
LINE
8
0
10
172.11
20
-66
11
189.89
21
-66
0
LINE
8
0
10
189.89
20
-66
11
189.89
21
-33
0
LINE
8
0
10
189.89
20
-33
11
172.11
21
-33
0
LINE
8
0
10
172.11
20
-33
11
172.11
21
-66
0
ENDSEC
0
EOF