<svg width="181.803mm" height="122.077mm" viewBox="0 0 181.803 122.077" xmlns="http://www.w3.org/2000/svg"><g id="svgGroup" stroke-linecap="round" fill-rule="evenodd" font-size="9pt" stroke="#000" stroke-width="0.25mm" fill="none" style="stroke:#000;stroke-width:0.25mm;fill:none"><path d="M 6.75 33.5 L 13.75 33.5 L 13.75 41.5 A 2 2 0 0 0 15.75 43.5 L 16.625 43.5 L 16.625 57.5 L 13.875 57.5 A 2 2 0 0 0 11.875 59.5 L 11.875 86.5 L 2 86.5 A 2 2 0 0 0 0 88.5 L 0 107.5 A 2 2 0 0 0 2 109.5 L 63.375 109.5 A 2 2 0 0 0 65.375 107.5 L 65.375 106 L 87.125 106 A 2 2 0 0 0 89.125 104 L 89.125 102.5 L 116.375 102.5 L 116.375 104 A 2 2 0 0 0 118.375 106 L 151.481 106 L 149.165 114.642 A 2 2 0 0 0 150.58 117.092 L 168.932 122.009 A 2 2 0 0 0 171.382 120.595 L 181.735 81.958 A 2 2 0 0 0 180.32 79.508 L 170.162 76.786 A 10 10 0 0 1 162.75 67.127 L 162.75 60 A 10 10 0 0 1 172.75 50 L 174.64 50 A 2 2 0 0 0 176.64 48 L 176.64 9 A 2 2 0 0 0 174.64 7 L 143.75 7 L 143.75 5.5 A 2 2 0 0 0 141.75 3.5 L 124.75 3.5 L 124.75 2 A 2 2 0 0 0 122.75 0 L 82.75 0 A 2 2 0 0 0 80.75 2 L 80.75 3.5 L 63.75 3.5 A 2 2 0 0 0 61.75 5.5 L 61.75 7 L 44.75 7 A 2 2 0 0 0 42.75 9 L 42.75 10.5 L 6.75 10.5 A 2 2 0 0 0 4.75 12.5 L 4.75 31.5 A 2 2 0 0 0 6.75 33.5 Z M 153.86 45 L 171.64 45 L 171.64 12 L 153.86 12 L 153.86 45 Z M 170.4 106.873 L 174.023 93.35 L 160.5 89.727 L 156.877 103.25 L 170.4 106.873 Z M 19.75 29 L 33.75 29 L 33.75 15 L 19.75 15 L 19.75 29 Z M 26.875 86 L 40.875 86 L 40.875 72 L 26.875 72 L 26.875 86 Z M 31.625 67 L 45.625 67 L 45.625 53 L 31.625 53 L 31.625 67 Z M 34 48 L 48 48 L 48 34 L 34 34 L 34 48 Z M 38.75 29 L 52.75 29 L 52.75 15 L 38.75 15 L 38.75 29 Z M 57.75 82.5 L 71.75 82.5 L 71.75 68.5 L 57.75 68.5 L 57.75 82.5 Z M 57.75 63.5 L 71.75 63.5 L 71.75 49.5 L 57.75 49.5 L 57.75 63.5 Z M 57.75 44.5 L 71.75 44.5 L 71.75 30.5 L 57.75 30.5 L 57.75 44.5 Z M 57.75 25.5 L 71.75 25.5 L 71.75 11.5 L 57.75 11.5 L 57.75 25.5 Z M 76.75 79 L 90.75 79 L 90.75 65 L 76.75 65 L 76.75 79 Z M 76.75 60 L 90.75 60 L 90.75 46 L 76.75 46 L 76.75 60 Z M 76.75 41 L 90.75 41 L 90.75 27 L 76.75 27 L 76.75 41 Z M 76.75 22 L 90.75 22 L 90.75 8 L 76.75 8 L 76.75 22 Z M 95.75 75.5 L 109.75 75.5 L 109.75 61.5 L 95.75 61.5 L 95.75 75.5 Z M 95.75 56.5 L 109.75 56.5 L 109.75 42.5 L 95.75 42.5 L 95.75 56.5 Z M 95.75 37.5 L 109.75 37.5 L 109.75 23.5 L 95.75 23.5 L 95.75 37.5 Z M 95.75 18.5 L 109.75 18.5 L 109.75 4.5 L 95.75 4.5 L 95.75 18.5 Z M 114.75 79 L 128.75 79 L 128.75 65 L 114.75 65 L 114.75 79 Z M 114.75 60 L 128.75 60 L 128.75 46 L 114.75 46 L 114.75 60 Z M 114.75 41 L 128.75 41 L 128.75 27 L 114.75 27 L 114.75 41 Z M 114.75 22 L 128.75 22 L 128.75 8 L 114.75 8 L 114.75 22 Z M 133.75 82.5 L 147.75 82.5 L 147.75 68.5 L 133.75 68.5 L 133.75 82.5 Z M 133.75 63.5 L 147.75 63.5 L 147.75 49.5 L 133.75 49.5 L 133.75 63.5 Z M 133.75 44.5 L 147.75 44.5 L 147.75 30.5 L 133.75 30.5 L 133.75 44.5 Z M 133.75 25.5 L 147.75 25.5 L 147.75 11.5 L 133.75 11.5 L 133.75 25.5 Z M 15 105 L 29 105 L 29 91 L 15 91 L 15 105 Z M 36.375 105 L 50.375 105 L 50.375 91 L 36.375 91 L 36.375 105 Z M 60.125 101.5 L 74.125 101.5 L 74.125 87.5 L 60.125 87.5 L 60.125 101.5 Z M 83.875 98 L 97.875 98 L 97.875 84 L 83.875 84 L 83.875 98 Z M 107.625 98 L 121.625 98 L 121.625 84 L 107.625 84 L 107.625 98 Z M 131.375 101.5 L 145.375 101.5 L 145.375 87.5 L 131.375 87.5 L 131.375 101.5 Z M 44.775 87 L 51.775 87 L 51.775 73 L 44.775 73 L 44.775 87 Z M 15.975 87 L 22.975 87 L 22.975 73 L 15.975 73 L 15.975 87 Z M 175.999 89.842 L 177.81 83.08 L 164.287 79.457 L 162.476 86.218 L 175.999 89.842 Z M 168.545 117.661 L 170.356 110.899 L 156.833 107.276 L 155.022 114.037 L 168.545 117.661 Z" vector-effect="non-scaling-stroke"/></g></svg>