0
SECTION
2
HEADER
9
$INSUNITS
70
4
0
ENDSEC
0
SECTION
2
TABLES
0
TABLE
2
LTYPE
0
LTYPE
72
65
70
0
2
CONTINUOUS
3
______
73
0
40
0
0
LTYPE
72
65
70
0
2
DASHED
3
_ _ _ 
73
2
40
7.5
49
5
49
-2.5
0
LTYPE
72
65
70
0
2
DOTTED
3
. . . 
73
2
40
1.5
49
0.5
49
-1
0
ENDTAB
0
TABLE
2
LAYER
0
ENDTAB
0
ENDSEC
0
SECTION
2
ENTITIES
0
LINE
8
0
6
CONTINUOUS
10
253.0465179
20
-11.5
11
270
21
-11.5
0
ARC
8
0
6
CONTINUOUS
10
270
20
-9.5
40
2
50
270
51
360
0
LINE
8
0
6
CONTINUOUS
10
272
20
-9.5
11
272
21
-8
0
LINE
8
0
6
CONTINUOUS
10
272
20
-8
11
304
21
-8
0
LINE
8
0
6
CONTINUOUS
10
304
20
-8
11
304
21
-9.5
0
ARC
8
0
6
CONTINUOUS
10
306
20
-9.5
40
2
50
180
51
270
0
LINE
8
0
6
CONTINUOUS
10
306
20
-11.5
11
323
21
-11.5
0
LINE
8
0
6
CONTINUOUS
10
323
20
-11.5
11
323
21
-13
0
ARC
8
0
6
CONTINUOUS
10
325
20
-13
40
2
50
180
51
270
0
LINE
8
0
6
CONTINUOUS
10
325
20
-15
11
384
21
-15
0
ARC
8
0
6
CONTINUOUS
10
384
20
-13
40
2
50
270
51
360
0
LINE
8
0
6
CONTINUOUS
10
386
20
-13
11
386
21
-6
0
LINE
8
0
6
CONTINUOUS
10
400.625
20
-6
11
386
21
-6
0
ARC
8
0
6
CONTINUOUS
10
400.625
20
-4
40
2
50
270
51
0
0
LINE
8
0
6
CONTINUOUS
10
402.625
20
-4
11
402.625
21
35
0
ARC
8
0
6
CONTINUOUS
10
400.625
20
35
40
2
50
0
51
90
0
LINE
8
0
6
CONTINUOUS
10
397.875
20
37
11
400.625
21
37
0
LINE
8
0
6
CONTINUOUS
10
397.875
20
37
11
397.875
21
42
0
LINE
8
0
6
CONTINUOUS
10
397.875
20
42
11
407.75
21
42
0
ARC
8
0
6
CONTINUOUS
10
407.75
20
44
40
2
50
270
51
360
0
LINE
8
0
6
CONTINUOUS
10
409.75
20
44
11
409.75
21
63
0
ARC
8
0
6
CONTINUOUS
10
407.75
20
63
40
2
50
0
51
90
0
LINE
8
0
6
CONTINUOUS
10
407.75
20
65
11
396
21
65
0
LINE
8
0
6
CONTINUOUS
10
396
20
73
11
396
21
65
0
ARC
8
0
6
CONTINUOUS
10
394
20
73
40
2
50
360
51
401.4096231
0
LINE
8
0
6
CONTINUOUS
10
395.5
20
74.3228757
11
395.5
21
82
0
ARC
8
0
6
CONTINUOUS
10
393.5
20
82
40
2
50
360
51
90
0
LINE
8
0
6
CONTINUOUS
10
348
20
84
11
393.5
21
84
0
LINE
8
0
6
CONTINUOUS
10
348
20
84
11
348
21
85.5
0
ARC
8
0
6
CONTINUOUS
10
346
20
85.5
40
2
50
0
51
90
0
LINE
8
0
6
CONTINUOUS
10
346
20
87.5
11
329
21
87.5
0
LINE
8
0
6
CONTINUOUS
10
329
20
87.5
11
329
21
89
0
ARC
8
0
6
CONTINUOUS
10
327
20
89
40
2
50
0
51
90
0
LINE
8
0
6
CONTINUOUS
10
327
20
91
11
310
21
91
0
LINE
8
0
6
CONTINUOUS
10
310
20
91
11
310
21
92.5
0
ARC
8
0
6
CONTINUOUS
10
308
20
92.5
40
2
50
0
51
90
0
LINE
8
0
6
CONTINUOUS
10
308
20
94.5
11
268
21
94.5
0
ARC
8
0
6
CONTINUOUS
10
268
20
92.5
40
2
50
90
51
180
0
LINE
8
0
6
CONTINUOUS
10
266
20
92.5
11
266
21
91
0
LINE
8
0
6
CONTINUOUS
10
266
20
91
11
249
21
91
0
ARC
8
0
6
CONTINUOUS
10
249
20
89
40
2
50
90
51
180
0
LINE
8
0
6
CONTINUOUS
10
247
20
89
11
247
21
87.5
0
LINE
8
0
6
CONTINUOUS
10
216.11
20
87.5
11
247
21
87.5
0
ARC
8
0
6
CONTINUOUS
10
216.11
20
85.5
40
2
50
90
51
180
0
LINE
8
0
6
CONTINUOUS
10
214.11
20
85.5
11
214.11
21
46.5
0
ARC
8
0
6
CONTINUOUS
10
216.11
20
46.5
40
2
50
180
51
270
0
LINE
8
0
6
CONTINUOUS
10
216.11
20
44.5
11
218
21
44.5
0
LINE
8
0
6
CONTINUOUS
10
228
20
14.9546017
11
228
21
34.5
0
LINE
8
0
6
CONTINUOUS
10
220.588191
20
5.2953437
11
214.2296856
21
3.5915872
0
ARC
8
0
6
CONTINUOUS
10
214.7473237
20
1.6597356
40
2
50
105.0000004
51
195.0000001
0
LINE
8
0
6
CONTINUOUS
10
212.815472
20
1.1420975
11
223.1682339
21
-37.4949356
0
ARC
8
0
6
CONTINUOUS
10
225.1000856
20
-36.9772975
40
2
50
195.0000001
51
284.9999999
0
LINE
8
0
6
CONTINUOUS
10
225.6177237
20
-38.9091492
11
243.9703144
21
-33.9915873
0
ARC
8
0
6
CONTINUOUS
10
243.4526763
20
-32.0597356
40
2
50
285.0000001
51
374.9999999
0
LINE
8
0
6
CONTINUOUS
10
245.384528
20
-31.5420975
11
243.3872595
21
-24.0881901
0
ARC
8
0
6
CONTINUOUS
10
218
20
34.5
40
10
50
0
51
90
0
ARC
8
0
6
CONTINUOUS
10
218
20
14.9546017
40
10
50
285.0000034
51
0
0
ARC
8
0
6
CONTINUOUS
10
253.0465179
20
-21.5
40
10
50
90
51
194.9999979
0
LINE
8
0
6
CONTINUOUS
10
243
20
-7
11
257
21
-7
0
LINE
8
0
6
CONTINUOUS
10
257
20
-7
11
257
21
7
0
LINE
8
0
6
CONTINUOUS
10
257
20
7
11
243
21
7
0
LINE
8
0
6
CONTINUOUS
10
243
20
7
11
243
21
-7
0
LINE
8
0
6
CONTINUOUS
10
243
20
12
11
257
21
12
0
LINE
8
0
6
CONTINUOUS
10
257
20
12
11
257
21
26
0
LINE
8
0
6
CONTINUOUS
10
257
20
26
11
243
21
26
0
LINE
8
0
6
CONTINUOUS
10
243
20
26
11
243
21
12
0
LINE
8
0
6
CONTINUOUS
10
243
20
31
11
257
21
31
0
LINE
8
0
6
CONTINUOUS
10
257
20
31
11
257
21
45
0
LINE
8
0
6
CONTINUOUS
10
257
20
45
11
243
21
45
0
LINE
8
0
6
CONTINUOUS
10
243
20
45
11
243
21
31
0
LINE
8
0
6
CONTINUOUS
10
243
20
50
11
257
21
50
0
LINE
8
0
6
CONTINUOUS
10
257
20
50
11
257
21
64
0
LINE
8
0
6
CONTINUOUS
10
257
20
64
11
243
21
64
0
LINE
8
0
6
CONTINUOUS
10
243
20
64
11
243
21
50
0
LINE
8
0
6
CONTINUOUS
10
243
20
69
11
257
21
69
0
LINE
8
0
6
CONTINUOUS
10
257
20
69
11
257
21
83
0
LINE
8
0
6
CONTINUOUS
10
257
20
83
11
243
21
83
0
LINE
8
0
6
CONTINUOUS
10
243
20
83
11
243
21
69
0
LINE
8
0
6
CONTINUOUS
10
262
20
-3.5
11
276
21
-3.5
0
LINE
8
0
6
CONTINUOUS
10
276
20
-3.5
11
276
21
10.5
0
LINE
8
0
6
CONTINUOUS
10
276
20
10.5
11
262
21
10.5
0
LINE
8
0
6
CONTINUOUS
10
262
20
10.5
11
262
21
-3.5
0
LINE
8
0
6
CONTINUOUS
10
262
20
15.5
11
276
21
15.5
0
LINE
8
0
6
CONTINUOUS
10
276
20
15.5
11
276
21
29.5
0
LINE
8
0
6
CONTINUOUS
10
276
20
29.5
11
262
21
29.5
0
LINE
8
0
6
CONTINUOUS
10
262
20
29.5
11
262
21
15.5
0
LINE
8
0
6
CONTINUOUS
10
262
20
34.5
11
276
21
34.5
0
LINE
8
0
6
CONTINUOUS
10
276
20
34.5
11
276
21
48.5
0
LINE
8
0
6
CONTINUOUS
10
276
20
48.5
11
262
21
48.5
0
LINE
8
0
6
CONTINUOUS
10
262
20
48.5
11
262
21
34.5
0
LINE
8
0
6
CONTINUOUS
10
262
20
53.5
11
276
21
53.5
0
LINE
8
0
6
CONTINUOUS
10
276
20
53.5
11
276
21
67.5
0
LINE
8
0
6
CONTINUOUS
10
276
20
67.5
11
262
21
67.5
0
LINE
8
0
6
CONTINUOUS
10
262
20
67.5
11
262
21
53.5
0
LINE
8
0
6
CONTINUOUS
10
262
20
72.5
11
276
21
72.5
0
LINE
8
0
6
CONTINUOUS
10
276
20
72.5
11
276
21
86.5
0
LINE
8
0
6
CONTINUOUS
10
276
20
86.5
11
262
21
86.5
0
LINE
8
0
6
CONTINUOUS
10
262
20
86.5
11
262
21
72.5
0
LINE
8
0
6
CONTINUOUS
10
281
20
0
11
295
21
0
0
LINE
8
0
6
CONTINUOUS
10
295
20
0
11
295
21
14
0
LINE
8
0
6
CONTINUOUS
10
295
20
14
11
281
21
14
0
LINE
8
0
6
CONTINUOUS
10
281
20
14
11
281
21
0
0
LINE
8
0
6
CONTINUOUS
10
281
20
19
11
295
21
19
0
LINE
8
0
6
CONTINUOUS
10
295
20
19
11
295
21
33
0
LINE
8
0
6
CONTINUOUS
10
295
20
33
11
281
21
33
0
LINE
8
0
6
CONTINUOUS
10
281
20
33
11
281
21
19
0
LINE
8
0
6
CONTINUOUS
10
281
20
38
11
295
21
38
0
LINE
8
0
6
CONTINUOUS
10
295
20
38
11
295
21
52
0
LINE
8
0
6
CONTINUOUS
10
295
20
52
11
281
21
52
0
LINE
8
0
6
CONTINUOUS
10
281
20
52
11
281
21
38
0
LINE
8
0
6
CONTINUOUS
10
281
20
57
11
295
21
57
0
LINE
8
0
6
CONTINUOUS
10
295
20
57
11
295
21
71
0
LINE
8
0
6
CONTINUOUS
10
295
20
71
11
281
21
71
0
LINE
8
0
6
CONTINUOUS
10
281
20
71
11
281
21
57
0
LINE
8
0
6
CONTINUOUS
10
281
20
76
11
295
21
76
0
LINE
8
0
6
CONTINUOUS
10
295
20
76
11
295
21
90
0
LINE
8
0
6
CONTINUOUS
10
295
20
90
11
281
21
90
0
LINE
8
0
6
CONTINUOUS
10
281
20
90
11
281
21
76
0
LINE
8
0
6
CONTINUOUS
10
300
20
-3.5
11
314
21
-3.5
0
LINE
8
0
6
CONTINUOUS
10
314
20
-3.5
11
314
21
10.5
0
LINE
8
0
6
CONTINUOUS
10
314
20
10.5
11
300
21
10.5
0
LINE
8
0
6
CONTINUOUS
10
300
20
10.5
11
300
21
-3.5
0
LINE
8
0
6
CONTINUOUS
10
300
20
15.5
11
314
21
15.5
0
LINE
8
0
6
CONTINUOUS
10
314
20
15.5
11
314
21
29.5
0
LINE
8
0
6
CONTINUOUS
10
314
20
29.5
11
300
21
29.5
0
LINE
8
0
6
CONTINUOUS
10
300
20
29.5
11
300
21
15.5
0
LINE
8
0
6
CONTINUOUS
10
300
20
34.5
11
314
21
34.5
0
LINE
8
0
6
CONTINUOUS
10
314
20
34.5
11
314
21
48.5
0
LINE
8
0
6
CONTINUOUS
10
314
20
48.5
11
300
21
48.5
0
LINE
8
0
6
CONTINUOUS
10
300
20
48.5
11
300
21
34.5
0
LINE
8
0
6
CONTINUOUS
10
300
20
53.5
11
314
21
53.5
0
LINE
8
0
6
CONTINUOUS
10
314
20
53.5
11
314
21
67.5
0
LINE
8
0
6
CONTINUOUS
10
314
20
67.5
11
300
21
67.5
0
LINE
8
0
6
CONTINUOUS
10
300
20
67.5
11
300
21
53.5
0
LINE
8
0
6
CONTINUOUS
10
300
20
72.5
11
314
21
72.5
0
LINE
8
0
6
CONTINUOUS
10
314
20
72.5
11
314
21
86.5
0
LINE
8
0
6
CONTINUOUS
10
314
20
86.5
11
300
21
86.5
0
LINE
8
0
6
CONTINUOUS
10
300
20
86.5
11
300
21
72.5
0
LINE
8
0
6
CONTINUOUS
10
319
20
-7
11
333
21
-7
0
LINE
8
0
6
CONTINUOUS
10
333
20
-7
11
333
21
7
0
LINE
8
0
6
CONTINUOUS
10
333
20
7
11
319
21
7
0
LINE
8
0
6
CONTINUOUS
10
319
20
7
11
319
21
-7
0
LINE
8
0
6
CONTINUOUS
10
319
20
12
11
333
21
12
0
LINE
8
0
6
CONTINUOUS
10
333
20
12
11
333
21
26
0
LINE
8
0
6
CONTINUOUS
10
333
20
26
11
319
21
26
0
LINE
8
0
6
CONTINUOUS
10
319
20
26
11
319
21
12
0
LINE
8
0
6
CONTINUOUS
10
319
20
31
11
333
21
31
0
LINE
8
0
6
CONTINUOUS
10
333
20
31
11
333
21
45
0
LINE
8
0
6
CONTINUOUS
10
333
20
45
11
319
21
45
0
LINE
8
0
6
CONTINUOUS
10
319
20
45
11
319
21
31
0
LINE
8
0
6
CONTINUOUS
10
319
20
50
11
333
21
50
0
LINE
8
0
6
CONTINUOUS
10
333
20
50
11
333
21
64
0
LINE
8
0
6
CONTINUOUS
10
333
20
64
11
319
21
64
0
LINE
8
0
6
CONTINUOUS
10
319
20
64
11
319
21
50
0
LINE
8
0
6
CONTINUOUS
10
319
20
69
11
333
21
69
0
LINE
8
0
6
CONTINUOUS
10
333
20
69
11
333
21
83
0
LINE
8
0
6
CONTINUOUS
10
333
20
83
11
319
21
83
0
LINE
8
0
6
CONTINUOUS
10
319
20
83
11
319
21
69
0
LINE
8
0
6
CONTINUOUS
10
338
20
-10.5
11
352
21
-10.5
0
LINE
8
0
6
CONTINUOUS
10
352
20
-10.5
11
352
21
3.5
0
LINE
8
0
6
CONTINUOUS
10
352
20
3.5
11
338
21
3.5
0
LINE
8
0
6
CONTINUOUS
10
338
20
3.5
11
338
21
-10.5
0
LINE
8
0
6
CONTINUOUS
10
338
20
8.5
11
352
21
8.5
0
LINE
8
0
6
CONTINUOUS
10
352
20
8.5
11
352
21
22.5
0
LINE
8
0
6
CONTINUOUS
10
352
20
22.5
11
338
21
22.5
0
LINE
8
0
6
CONTINUOUS
10
338
20
22.5
11
338
21
8.5
0
LINE
8
0
6
CONTINUOUS
10
338
20
27.5
11
352
21
27.5
0
LINE
8
0
6
CONTINUOUS
10
352
20
27.5
11
352
21
41.5
0
LINE
8
0
6
CONTINUOUS
10
352
20
41.5
11
338
21
41.5
0
LINE
8
0
6
CONTINUOUS
10
338
20
41.5
11
338
21
27.5
0
LINE
8
0
6
CONTINUOUS
10
338
20
46.5
11
352
21
46.5
0
LINE
8
0
6
CONTINUOUS
10
352
20
46.5
11
352
21
60.5
0
LINE
8
0
6
CONTINUOUS
10
352
20
60.5
11
338
21
60.5
0
LINE
8
0
6
CONTINUOUS
10
338
20
60.5
11
338
21
46.5
0
LINE
8
0
6
CONTINUOUS
10
338
20
65.5
11
352
21
65.5
0
LINE
8
0
6
CONTINUOUS
10
352
20
65.5
11
352
21
79.5
0
LINE
8
0
6
CONTINUOUS
10
352
20
79.5
11
338
21
79.5
0
LINE
8
0
6
CONTINUOUS
10
338
20
79.5
11
338
21
65.5
0
LINE
8
0
6
CONTINUOUS
10
357
20
-10.5
11
371
21
-10.5
0
LINE
8
0
6
CONTINUOUS
10
371
20
-10.5
11
371
21
3.5
0
LINE
8
0
6
CONTINUOUS
10
371
20
3.5
11
357
21
3.5
0
LINE
8
0
6
CONTINUOUS
10
357
20
3.5
11
357
21
-10.5
0
LINE
8
0
6
CONTINUOUS
10
373.625
20
8.5
11
387.625
21
8.5
0
LINE
8
0
6
CONTINUOUS
10
387.625
20
8.5
11
387.625
21
22.5
0
LINE
8
0
6
CONTINUOUS
10
387.625
20
22.5
11
373.625
21
22.5
0
LINE
8
0
6
CONTINUOUS
10
373.625
20
22.5
11
373.625
21
8.5
0
LINE
8
0
6
CONTINUOUS
10
368.875
20
27.5
11
382.875
21
27.5
0
LINE
8
0
6
CONTINUOUS
10
382.875
20
27.5
11
382.875
21
41.5
0
LINE
8
0
6
CONTINUOUS
10
382.875
20
41.5
11
368.875
21
41.5
0
LINE
8
0
6
CONTINUOUS
10
368.875
20
41.5
11
368.875
21
27.5
0
LINE
8
0
6
CONTINUOUS
10
357
20
46.5
11
371
21
46.5
0
LINE
8
0
6
CONTINUOUS
10
371
20
46.5
11
371
21
60.5
0
LINE
8
0
6
CONTINUOUS
10
371
20
60.5
11
357
21
60.5
0
LINE
8
0
6
CONTINUOUS
10
357
20
60.5
11
357
21
46.5
0
LINE
8
0
6
CONTINUOUS
10
366.5
20
65.5
11
380.5
21
65.5
0
LINE
8
0
6
CONTINUOUS
10
380.5
20
65.5
11
380.5
21
79.5
0
LINE
8
0
6
CONTINUOUS
10
380.5
20
79.5
11
366.5
21
79.5
0
LINE
8
0
6
CONTINUOUS
10
366.5
20
79.5
11
366.5
21
65.5
0
LINE
8
0
6
CONTINUOUS
10
380.75
20
46.5
11
394.75
21
46.5
0
LINE
8
0
6
CONTINUOUS
10
394.75
20
46.5
11
394.75
21
60.5
0
LINE
8
0
6
CONTINUOUS
10
394.75
20
60.5
11
380.75
21
60.5
0
LINE
8
0
6
CONTINUOUS
10
380.75
20
60.5
11
380.75
21
46.5
0
LINE
8
0
6
CONTINUOUS
10
220.5267859
20
-10.2502525
11
224.1502525
21
-23.7732141
0
LINE
8
0
6
CONTINUOUS
10
224.1502525
20
-23.7732141
11
237.6732141
21
-20.1497475
0
LINE
8
0
6
CONTINUOUS
10
237.6732141
20
-20.1497475
11
234.0497475
21
-6.6267859
0
LINE
8
0
6
CONTINUOUS
10
234.0497475
20
-6.6267859
11
220.5267859
21
-10.2502525
0
LINE
8
0
6
CONTINUOUS
10
391.525
20
7.5
11
398.525
21
7.5
0
LINE
8
0
6
CONTINUOUS
10
398.525
20
7.5
11
398.525
21
21.5
0
LINE
8
0
6
CONTINUOUS
10
398.525
20
21.5
11
391.525
21
21.5
0
LINE
8
0
6
CONTINUOUS
10
391.525
20
21.5
11
391.525
21
7.5
0
LINE
8
0
6
CONTINUOUS
10
386.775
20
26.5
11
393.775
21
26.5
0
LINE
8
0
6
CONTINUOUS
10
393.775
20
26.5
11
393.775
21
40.5
0
LINE
8
0
6
CONTINUOUS
10
393.775
20
40.5
11
386.775
21
40.5
0
LINE
8
0
6
CONTINUOUS
10
386.775
20
40.5
11
386.775
21
26.5
0
LINE
8
0
6
CONTINUOUS
10
384.4
20
64.5
11
391.4
21
64.5
0
LINE
8
0
6
CONTINUOUS
10
391.4
20
64.5
11
391.4
21
78.5
0
LINE
8
0
6
CONTINUOUS
10
391.4
20
78.5
11
384.4
21
78.5
0
LINE
8
0
6
CONTINUOUS
10
384.4
20
78.5
11
384.4
21
64.5
0
LINE
8
0
6
CONTINUOUS
10
224.193721
20
-27.7991438
11
226.0054543
21
-34.5606246
0
LINE
8
0
6
CONTINUOUS
10
226.0054543
20
-34.5606246
11
239.5284158
21
-30.937158
0
LINE
8
0
6
CONTINUOUS
10
239.5284158
20
-30.937158
11
237.7166825
21
-24.1756772
0
LINE
8
0
6
CONTINUOUS
10
237.7166825
20
-24.1756772
11
224.193721
21
-27.7991438
0
LINE
8
0
6
CONTINUOUS
10
362.725
20
7.5
11
369.725
21
7.5
0
LINE
8
0
6
CONTINUOUS
10
369.725
20
7.5
11
369.725
21
21.5
0
LINE
8
0
6
CONTINUOUS
10
369.725
20
21.5
11
362.725
21
21.5
0
LINE
8
0
6
CONTINUOUS
10
362.725
20
21.5
11
362.725
21
7.5
0
LINE
8
0
6
CONTINUOUS
10
357.975
20
26.5
11
364.975
21
26.5
0
LINE
8
0
6
CONTINUOUS
10
364.975
20
26.5
11
364.975
21
40.5
0
LINE
8
0
6
CONTINUOUS
10
364.975
20
40.5
11
357.975
21
40.5
0
LINE
8
0
6
CONTINUOUS
10
357.975
20
40.5
11
357.975
21
26.5
0
LINE
8
0
6
CONTINUOUS
10
355.6
20
64.5
11
362.6
21
64.5
0
LINE
8
0
6
CONTINUOUS
10
362.6
20
64.5
11
362.6
21
78.5
0
LINE
8
0
6
CONTINUOUS
10
362.6
20
78.5
11
355.6
21
78.5
0
LINE
8
0
6
CONTINUOUS
10
355.6
20
78.5
11
355.6
21
64.5
0
LINE
8
0
6
CONTINUOUS
10
216.7397325
20
0.01952
11
218.5514658
21
-6.7419608
0
LINE
8
0
6
CONTINUOUS
10
218.5514658
20
-6.7419608
11
232.0744273
21
-3.1184942
0
LINE
8
0
6
CONTINUOUS
10
232.0744273
20
-3.1184942
11
230.262694
21
3.6429866
0
LINE
8
0
6
CONTINUOUS
10
230.262694
20
3.6429866
11
216.7397325
21
0.01952
0
LINE
8
0
6
CONTINUOUS
10
219.11
20
49.5
11
236.89
21
49.5
0
LINE
8
0
6
CONTINUOUS
10
236.89
20
49.5
11
236.89
21
82.5
0
LINE
8
0
6
CONTINUOUS
10
236.89
20
82.5
11
219.11
21
82.5
0
LINE
8
0
6
CONTINUOUS
10
219.11
20
82.5
11
219.11
21
49.5
0
ENDSEC
0
EOF