<svg width="197.003mm" height="133.477mm" viewBox="0 0 197.003 133.477" xmlns="http://www.w3.org/2000/svg"><g id="svgGroup" stroke-linecap="round" fill-rule="evenodd" font-size="9pt" stroke="#000" stroke-width="0.25mm" fill="none" style="stroke:#000;stroke-width:0.25mm;fill:none"><path d="M 40.299 106 L 57.253 106 A 2 2 0 0 0 59.253 104 L 59.253 102.5 L 91.253 102.5 L 91.253 104 A 2 2 0 0 0 93.253 106 L 110.253 106 L 110.253 107.5 A 2 2 0 0 0 112.253 109.5 L 171.253 109.5 A 2 2 0 0 0 173.253 107.5 L 173.253 100.5 L 187.878 100.5 A 2 2 0 0 0 189.878 98.5 L 189.878 59.5 A 2 2 0 0 0 187.878 57.5 L 185.128 57.5 L 185.128 52.5 L 195.003 52.5 A 2 2 0 0 0 197.003 50.5 L 197.003 31.5 A 2 2 0 0 0 195.003 29.5 L 183.253 29.5 L 183.253 21.5 A 2 2 0 0 0 182.753 20.177 L 182.753 12.5 A 2 2 0 0 0 180.753 10.5 L 135.253 10.5 L 135.253 9 A 2 2 0 0 0 133.253 7 L 116.253 7 L 116.253 5.5 A 2 2 0 0 0 114.253 3.5 L 97.253 3.5 L 97.253 2 A 2 2 0 0 0 95.253 0 L 55.253 0 A 2 2 0 0 0 53.253 2 L 53.253 3.5 L 36.253 3.5 A 2 2 0 0 0 34.253 5.5 L 34.253 7 L 3.363 7 A 2 2 0 0 0 1.363 9 L 1.363 48 A 2 2 0 0 0 3.363 50 L 5.253 50 A 10 10 0 0 1 15.253 60 L 15.253 79.545 A 10 10 0 0 1 7.841 89.205 L 1.482 90.908 A 2 2 0 0 0 0.068 93.358 L 10.421 131.995 A 2 2 0 0 0 12.87 133.409 L 31.223 128.492 A 2 2 0 0 0 32.637 126.042 L 30.64 118.588 A 10 10 0 0 1 40.299 106 Z M 6.363 45 L 24.143 45 L 24.143 12 L 6.363 12 L 6.363 45 Z M 7.779 104.75 L 11.403 118.273 L 24.926 114.65 L 21.302 101.127 L 7.779 104.75 Z M 30.253 101.5 L 44.253 101.5 L 44.253 87.5 L 30.253 87.5 L 30.253 101.5 Z M 30.253 82.5 L 44.253 82.5 L 44.253 68.5 L 30.253 68.5 L 30.253 82.5 Z M 30.253 63.5 L 44.253 63.5 L 44.253 49.5 L 30.253 49.5 L 30.253 63.5 Z M 30.253 44.5 L 44.253 44.5 L 44.253 30.5 L 30.253 30.5 L 30.253 44.5 Z M 30.253 25.5 L 44.253 25.5 L 44.253 11.5 L 30.253 11.5 L 30.253 25.5 Z M 49.253 98 L 63.253 98 L 63.253 84 L 49.253 84 L 49.253 98 Z M 49.253 79 L 63.253 79 L 63.253 65 L 49.253 65 L 49.253 79 Z M 49.253 60 L 63.253 60 L 63.253 46 L 49.253 46 L 49.253 60 Z M 49.253 41 L 63.253 41 L 63.253 27 L 49.253 27 L 49.253 41 Z M 49.253 22 L 63.253 22 L 63.253 8 L 49.253 8 L 49.253 22 Z M 68.253 94.5 L 82.253 94.5 L 82.253 80.5 L 68.253 80.5 L 68.253 94.5 Z M 68.253 75.5 L 82.253 75.5 L 82.253 61.5 L 68.253 61.5 L 68.253 75.5 Z M 68.253 56.5 L 82.253 56.5 L 82.253 42.5 L 68.253 42.5 L 68.253 56.5 Z M 68.253 37.5 L 82.253 37.5 L 82.253 23.5 L 68.253 23.5 L 68.253 37.5 Z M 68.253 18.5 L 82.253 18.5 L 82.253 4.5 L 68.253 4.5 L 68.253 18.5 Z M 87.253 98 L 101.253 98 L 101.253 84 L 87.253 84 L 87.253 98 Z M 87.253 79 L 101.253 79 L 101.253 65 L 87.253 65 L 87.253 79 Z M 87.253 60 L 101.253 60 L 101.253 46 L 87.253 46 L 87.253 60 Z M 87.253 41 L 101.253 41 L 101.253 27 L 87.253 27 L 87.253 41 Z M 87.253 22 L 101.253 22 L 101.253 8 L 87.253 8 L 87.253 22 Z M 106.253 101.5 L 120.253 101.5 L 120.253 87.5 L 106.253 87.5 L 106.253 101.5 Z M 106.253 82.5 L 120.253 82.5 L 120.253 68.5 L 106.253 68.5 L 106.253 82.5 Z M 106.253 63.5 L 120.253 63.5 L 120.253 49.5 L 106.253 49.5 L 106.253 63.5 Z M 106.253 44.5 L 120.253 44.5 L 120.253 30.5 L 106.253 30.5 L 106.253 44.5 Z M 106.253 25.5 L 120.253 25.5 L 120.253 11.5 L 106.253 11.5 L 106.253 25.5 Z M 125.253 105 L 139.253 105 L 139.253 91 L 125.253 91 L 125.253 105 Z M 125.253 86 L 139.253 86 L 139.253 72 L 125.253 72 L 125.253 86 Z M 125.253 67 L 139.253 67 L 139.253 53 L 125.253 53 L 125.253 67 Z M 125.253 48 L 139.253 48 L 139.253 34 L 125.253 34 L 125.253 48 Z M 125.253 29 L 139.253 29 L 139.253 15 L 125.253 15 L 125.253 29 Z M 144.253 105 L 158.253 105 L 158.253 91 L 144.253 91 L 144.253 105 Z M 160.878 86 L 174.878 86 L 174.878 72 L 160.878 72 L 160.878 86 Z M 156.128 67 L 170.128 67 L 170.128 53 L 156.128 53 L 156.128 67 Z M 144.253 48 L 158.253 48 L 158.253 34 L 144.253 34 L 144.253 48 Z M 153.753 29 L 167.753 29 L 167.753 15 L 153.753 15 L 153.753 29 Z M 168.003 48 L 182.003 48 L 182.003 34 L 168.003 34 L 168.003 48 Z M 178.778 87 L 185.778 87 L 185.778 73 L 178.778 73 L 178.778 87 Z M 174.028 68 L 181.028 68 L 181.028 54 L 174.028 54 L 174.028 68 Z M 171.653 30 L 178.653 30 L 178.653 16 L 171.653 16 L 171.653 30 Z M 149.978 87 L 156.978 87 L 156.978 73 L 149.978 73 L 149.978 87 Z M 145.228 68 L 152.228 68 L 152.228 54 L 145.228 54 L 145.228 68 Z M 142.853 30 L 149.853 30 L 149.853 16 L 142.853 16 L 142.853 30 Z M 11.446 122.299 L 13.258 129.061 L 26.781 125.437 L 24.969 118.676 L 11.446 122.299 Z M 3.992 94.48 L 5.804 101.242 L 19.327 97.618 L 17.515 90.857 L 3.992 94.48 Z" vector-effect="non-scaling-stroke"/></g></svg>