0
SECTION
2
HEADER
9
$INSUNITS
70
4
0
ENDSEC
0
SECTION
2
TABLES
0
TABLE
2
LTYPE
0
LTYPE
72
65
70
0
2
CONTINUOUS
3
______
73
0
40
0
0
LTYPE
72
65
70
0
2
DASHED
3
_ _ _ 
73
2
40
7.5
49
5
49
-2.5
0
LTYPE
72
65
70
0
2
DOTTED
3
. . . 
73
2
40
1.5
49
0.5
49
-1
0
ENDTAB
0
TABLE
2
LAYER
0
ENDTAB
0
ENDSEC
0
SECTION
2
ENTITIES
0
LINE
8
0
6
CONTINUOUS
10
-20
20
45.5
11
-13
21
45.5
0
LINE
8
0
6
CONTINUOUS
10
-13
20
37.5
11
-13
21
45.5
0
ARC
8
0
6
CONTINUOUS
10
-11
20
37.5
40
2
50
180
51
270
0
LINE
8
0
6
CONTINUOUS
10
-10.125
20
35.5
11
-11
21
35.5
0
LINE
8
0
6
CONTINUOUS
10
-10.125
20
21.5
11
-10.125
21
35.5
0
LINE
8
0
6
CONTINUOUS
10
-12.875
20
21.5
11
-10.125
21
21.5
0
ARC
8
0
6
CONTINUOUS
10
-12.875
20
19.5
40
2
50
90
51
180
0
LINE
8
0
6
CONTINUOUS
10
-14.875
20
-7.5
11
-14.875
21
19.5
0
LINE
8
0
6
CONTINUOUS
10
-24.75
20
-7.5
11
-14.875
21
-7.5
0
ARC
8
0
6
CONTINUOUS
10
-24.75
20
-9.5
40
2
50
90
51
180
0
LINE
8
0
6
CONTINUOUS
10
-26.75
20
-9.5
11
-26.75
21
-28.5
0
ARC
8
0
6
CONTINUOUS
10
-24.75
20
-28.5
40
2
50
180
51
270
0
LINE
8
0
6
CONTINUOUS
10
-24.75
20
-30.5
11
36.625
21
-30.5
0
ARC
8
0
6
CONTINUOUS
10
36.625
20
-28.5
40
2
50
270
51
360
0
LINE
8
0
6
CONTINUOUS
10
38.625
20
-28.5
11
38.625
21
-27
0
LINE
8
0
6
CONTINUOUS
10
38.625
20
-27
11
60.375
21
-27
0
ARC
8
0
6
CONTINUOUS
10
60.375
20
-25
40
2
50
270
51
360
0
LINE
8
0
6
CONTINUOUS
10
62.375
20
-25
11
62.375
21
-23.5
0
LINE
8
0
6
CONTINUOUS
10
62.375
20
-23.5
11
89.625
21
-23.5
0
LINE
8
0
6
CONTINUOUS
10
89.625
20
-23.5
11
89.625
21
-25
0
ARC
8
0
6
CONTINUOUS
10
91.625
20
-25
40
2
50
180
51
270
0
LINE
8
0
6
CONTINUOUS
10
91.625
20
-27
11
124.7311151
21
-27
0
LINE
8
0
6
CONTINUOUS
10
124.7311151
20
-27
11
122.4154721
21
-35.6420975
0
ARC
8
0
6
CONTINUOUS
10
124.3473237
20
-36.1597356
40
2
50
164.9999999
51
255.000001
0
LINE
8
0
6
CONTINUOUS
10
123.8296856
20
-38.0915873
11
142.1822763
21
-43.0091492
0
ARC
8
0
6
CONTINUOUS
10
142.6999144
20
-41.0772975
40
2
50
255.0000001
51
344.9999999
0
LINE
8
0
6
CONTINUOUS
10
144.6317661
20
-41.5949356
11
154.984528
21
-2.9579025
0
ARC
8
0
6
CONTINUOUS
10
153.0526763
20
-2.4402644
40
2
50
344.9999999
51
435.0000001
0
LINE
8
0
6
CONTINUOUS
10
153.5703144
20
-0.5084127
11
143.4118099
21
2.2135504
0
LINE
8
0
6
CONTINUOUS
10
136
20
11.8728088
11
136
21
19
0
LINE
8
0
6
CONTINUOUS
10
146
20
29
11
147.89
21
29
0
ARC
8
0
6
CONTINUOUS
10
147.89
20
31
40
2
50
270
51
360
0
LINE
8
0
6
CONTINUOUS
10
149.89
20
31
11
149.89
21
70
0
ARC
8
0
6
CONTINUOUS
10
147.89
20
70
40
2
50
0
51
90
0
LINE
8
0
6
CONTINUOUS
10
117
20
72
11
147.89
21
72
0
LINE
8
0
6
CONTINUOUS
10
117
20
72
11
117
21
73.5
0
ARC
8
0
6
CONTINUOUS
10
115
20
73.5
40
2
50
0
51
90
0
LINE
8
0
6
CONTINUOUS
10
115
20
75.5
11
98
21
75.5
0
LINE
8
0
6
CONTINUOUS
10
98
20
75.5
11
98
21
77
0
ARC
8
0
6
CONTINUOUS
10
96
20
77
40
2
50
0
51
90
0
LINE
8
0
6
CONTINUOUS
10
96
20
79
11
56
21
79
0
ARC
8
0
6
CONTINUOUS
10
56
20
77
40
2
50
90
51
180
0
LINE
8
0
6
CONTINUOUS
10
54
20
77
11
54
21
75.5
0
LINE
8
0
6
CONTINUOUS
10
54
20
75.5
11
37
21
75.5
0
ARC
8
0
6
CONTINUOUS
10
37
20
73.5
40
2
50
90
51
180
0
LINE
8
0
6
CONTINUOUS
10
35
20
73.5
11
35
21
72
0
LINE
8
0
6
CONTINUOUS
10
35
20
72
11
18
21
72
0
ARC
8
0
6
CONTINUOUS
10
18
20
70
40
2
50
90
51
180
0
LINE
8
0
6
CONTINUOUS
10
16
20
70
11
16
21
68.5
0
LINE
8
0
6
CONTINUOUS
10
-20
20
68.5
11
16
21
68.5
0
ARC
8
0
6
CONTINUOUS
10
-20
20
66.5
40
2
50
90
51
180
0
LINE
8
0
6
CONTINUOUS
10
-22
20
66.5
11
-22
21
47.5
0
ARC
8
0
6
CONTINUOUS
10
-20
20
47.5
40
2
50
180
51
270
0
ARC
8
0
6
CONTINUOUS
10
146
20
11.8728088
40
10
50
180
51
255.0000021
0
ARC
8
0
6
CONTINUOUS
10
146
20
19
40
10
50
90
51
180
0
LINE
8
0
6
CONTINUOUS
10
-7
20
50
11
7
21
50
0
LINE
8
0
6
CONTINUOUS
10
7
20
50
11
7
21
64
0
LINE
8
0
6
CONTINUOUS
10
7
20
64
11
-7
21
64
0
LINE
8
0
6
CONTINUOUS
10
-7
20
64
11
-7
21
50
0
LINE
8
0
6
CONTINUOUS
10
0.125
20
-7
11
14.125
21
-7
0
LINE
8
0
6
CONTINUOUS
10
14.125
20
-7
11
14.125
21
7
0
LINE
8
0
6
CONTINUOUS
10
14.125
20
7
11
0.125
21
7
0
LINE
8
0
6
CONTINUOUS
10
0.125
20
7
11
0.125
21
-7
0
LINE
8
0
6
CONTINUOUS
10
4.875
20
12
11
18.875
21
12
0
LINE
8
0
6
CONTINUOUS
10
18.875
20
12
11
18.875
21
26
0
LINE
8
0
6
CONTINUOUS
10
18.875
20
26
11
4.875
21
26
0
LINE
8
0
6
CONTINUOUS
10
4.875
20
26
11
4.875
21
12
0
LINE
8
0
6
CONTINUOUS
10
7.25
20
31
11
21.25
21
31
0
LINE
8
0
6
CONTINUOUS
10
21.25
20
31
11
21.25
21
45
0
LINE
8
0
6
CONTINUOUS
10
21.25
20
45
11
7.25
21
45
0
LINE
8
0
6
CONTINUOUS
10
7.25
20
45
11
7.25
21
31
0
LINE
8
0
6
CONTINUOUS
10
12
20
50
11
26
21
50
0
LINE
8
0
6
CONTINUOUS
10
26
20
50
11
26
21
64
0
LINE
8
0
6
CONTINUOUS
10
26
20
64
11
12
21
64
0
LINE
8
0
6
CONTINUOUS
10
12
20
64
11
12
21
50
0
LINE
8
0
6
CONTINUOUS
10
31
20
-3.5
11
45
21
-3.5
0
LINE
8
0
6
CONTINUOUS
10
45
20
-3.5
11
45
21
10.5
0
LINE
8
0
6
CONTINUOUS
10
45
20
10.5
11
31
21
10.5
0
LINE
8
0
6
CONTINUOUS
10
31
20
10.5
11
31
21
-3.5
0
LINE
8
0
6
CONTINUOUS
10
31
20
15.5
11
45
21
15.5
0
LINE
8
0
6
CONTINUOUS
10
45
20
15.5
11
45
21
29.5
0
LINE
8
0
6
CONTINUOUS
10
45
20
29.5
11
31
21
29.5
0
LINE
8
0
6
CONTINUOUS
10
31
20
29.5
11
31
21
15.5
0
LINE
8
0
6
CONTINUOUS
10
31
20
34.5
11
45
21
34.5
0
LINE
8
0
6
CONTINUOUS
10
45
20
34.5
11
45
21
48.5
0
LINE
8
0
6
CONTINUOUS
10
45
20
48.5
11
31
21
48.5
0
LINE
8
0
6
CONTINUOUS
10
31
20
48.5
11
31
21
34.5
0
LINE
8
0
6
CONTINUOUS
10
31
20
53.5
11
45
21
53.5
0
LINE
8
0
6
CONTINUOUS
10
45
20
53.5
11
45
21
67.5
0
LINE
8
0
6
CONTINUOUS
10
45
20
67.5
11
31
21
67.5
0
LINE
8
0
6
CONTINUOUS
10
31
20
67.5
11
31
21
53.5
0
LINE
8
0
6
CONTINUOUS
10
50
20
0
11
64
21
0
0
LINE
8
0
6
CONTINUOUS
10
64
20
0
11
64
21
14
0
LINE
8
0
6
CONTINUOUS
10
64
20
14
11
50
21
14
0
LINE
8
0
6
CONTINUOUS
10
50
20
14
11
50
21
0
0
LINE
8
0
6
CONTINUOUS
10
50
20
19
11
64
21
19
0
LINE
8
0
6
CONTINUOUS
10
64
20
19
11
64
21
33
0
LINE
8
0
6
CONTINUOUS
10
64
20
33
11
50
21
33
0
LINE
8
0
6
CONTINUOUS
10
50
20
33
11
50
21
19
0
LINE
8
0
6
CONTINUOUS
10
50
20
38
11
64
21
38
0
LINE
8
0
6
CONTINUOUS
10
64
20
38
11
64
21
52
0
LINE
8
0
6
CONTINUOUS
10
64
20
52
11
50
21
52
0
LINE
8
0
6
CONTINUOUS
10
50
20
52
11
50
21
38
0
LINE
8
0
6
CONTINUOUS
10
50
20
57
11
64
21
57
0
LINE
8
0
6
CONTINUOUS
10
64
20
57
11
64
21
71
0
LINE
8
0
6
CONTINUOUS
10
64
20
71
11
50
21
71
0
LINE
8
0
6
CONTINUOUS
10
50
20
71
11
50
21
57
0
LINE
8
0
6
CONTINUOUS
10
69
20
3.5
11
83
21
3.5
0
LINE
8
0
6
CONTINUOUS
10
83
20
3.5
11
83
21
17.5
0
LINE
8
0
6
CONTINUOUS
10
83
20
17.5
11
69
21
17.5
0
LINE
8
0
6
CONTINUOUS
10
69
20
17.5
11
69
21
3.5
0
LINE
8
0
6
CONTINUOUS
10
69
20
22.5
11
83
21
22.5
0
LINE
8
0
6
CONTINUOUS
10
83
20
22.5
11
83
21
36.5
0
LINE
8
0
6
CONTINUOUS
10
83
20
36.5
11
69
21
36.5
0
LINE
8
0
6
CONTINUOUS
10
69
20
36.5
11
69
21
22.5
0
LINE
8
0
6
CONTINUOUS
10
69
20
41.5
11
83
21
41.5
0
LINE
8
0
6
CONTINUOUS
10
83
20
41.5
11
83
21
55.5
0
LINE
8
0
6
CONTINUOUS
10
83
20
55.5
11
69
21
55.5
0
LINE
8
0
6
CONTINUOUS
10
69
20
55.5
11
69
21
41.5
0
LINE
8
0
6
CONTINUOUS
10
69
20
60.5
11
83
21
60.5
0
LINE
8
0
6
CONTINUOUS
10
83
20
60.5
11
83
21
74.5
0
LINE
8
0
6
CONTINUOUS
10
83
20
74.5
11
69
21
74.5
0
LINE
8
0
6
CONTINUOUS
10
69
20
74.5
11
69
21
60.5
0
LINE
8
0
6
CONTINUOUS
10
88
20
0
11
102
21
0
0
LINE
8
0
6
CONTINUOUS
10
102
20
0
11
102
21
14
0
LINE
8
0
6
CONTINUOUS
10
102
20
14
11
88
21
14
0
LINE
8
0
6
CONTINUOUS
10
88
20
14
11
88
21
0
0
LINE
8
0
6
CONTINUOUS
10
88
20
19
11
102
21
19
0
LINE
8
0
6
CONTINUOUS
10
102
20
19
11
102
21
33
0
LINE
8
0
6
CONTINUOUS
10
102
20
33
11
88
21
33
0
LINE
8
0
6
CONTINUOUS
10
88
20
33
11
88
21
19
0
LINE
8
0
6
CONTINUOUS
10
88
20
38
11
102
21
38
0
LINE
8
0
6
CONTINUOUS
10
102
20
38
11
102
21
52
0
LINE
8
0
6
CONTINUOUS
10
102
20
52
11
88
21
52
0
LINE
8
0
6
CONTINUOUS
10
88
20
52
11
88
21
38
0
LINE
8
0
6
CONTINUOUS
10
88
20
57
11
102
21
57
0
LINE
8
0
6
CONTINUOUS
10
102
20
57
11
102
21
71
0
LINE
8
0
6
CONTINUOUS
10
102
20
71
11
88
21
71
0
LINE
8
0
6
CONTINUOUS
10
88
20
71
11
88
21
57
0
LINE
8
0
6
CONTINUOUS
10
107
20
-3.5
11
121
21
-3.5
0
LINE
8
0
6
CONTINUOUS
10
121
20
-3.5
11
121
21
10.5
0
LINE
8
0
6
CONTINUOUS
10
121
20
10.5
11
107
21
10.5
0
LINE
8
0
6
CONTINUOUS
10
107
20
10.5
11
107
21
-3.5
0
LINE
8
0
6
CONTINUOUS
10
107
20
15.5
11
121
21
15.5
0
LINE
8
0
6
CONTINUOUS
10
121
20
15.5
11
121
21
29.5
0
LINE
8
0
6
CONTINUOUS
10
121
20
29.5
11
107
21
29.5
0
LINE
8
0
6
CONTINUOUS
10
107
20
29.5
11
107
21
15.5
0
LINE
8
0
6
CONTINUOUS
10
107
20
34.5
11
121
21
34.5
0
LINE
8
0
6
CONTINUOUS
10
121
20
34.5
11
121
21
48.5
0
LINE
8
0
6
CONTINUOUS
10
121
20
48.5
11
107
21
48.5
0
LINE
8
0
6
CONTINUOUS
10
107
20
48.5
11
107
21
34.5
0
LINE
8
0
6
CONTINUOUS
10
107
20
53.5
11
121
21
53.5
0
LINE
8
0
6
CONTINUOUS
10
121
20
53.5
11
121
21
67.5
0
LINE
8
0
6
CONTINUOUS
10
121
20
67.5
11
107
21
67.5
0
LINE
8
0
6
CONTINUOUS
10
107
20
67.5
11
107
21
53.5
0
LINE
8
0
6
CONTINUOUS
10
-11.75
20
-26
11
2.25
21
-26
0
LINE
8
0
6
CONTINUOUS
10
2.25
20
-26
11
2.25
21
-12
0
LINE
8
0
6
CONTINUOUS
10
2.25
20
-12
11
-11.75
21
-12
0
LINE
8
0
6
CONTINUOUS
10
-11.75
20
-12
11
-11.75
21
-26
0
LINE
8
0
6
CONTINUOUS
10
9.625
20
-26
11
23.625
21
-26
0
LINE
8
0
6
CONTINUOUS
10
23.625
20
-26
11
23.625
21
-12
0
LINE
8
0
6
CONTINUOUS
10
23.625
20
-12
11
9.625
21
-12
0
LINE
8
0
6
CONTINUOUS
10
9.625
20
-12
11
9.625
21
-26
0
LINE
8
0
6
CONTINUOUS
10
33.375
20
-22.5
11
47.375
21
-22.5
0
LINE
8
0
6
CONTINUOUS
10
47.375
20
-22.5
11
47.375
21
-8.5
0
LINE
8
0
6
CONTINUOUS
10
47.375
20
-8.5
11
33.375
21
-8.5
0
LINE
8
0
6
CONTINUOUS
10
33.375
20
-8.5
11
33.375
21
-22.5
0
LINE
8
0
6
CONTINUOUS
10
57.125
20
-19
11
71.125
21
-19
0
LINE
8
0
6
CONTINUOUS
10
71.125
20
-19
11
71.125
21
-5
0
LINE
8
0
6
CONTINUOUS
10
71.125
20
-5
11
57.125
21
-5
0
LINE
8
0
6
CONTINUOUS
10
57.125
20
-5
11
57.125
21
-19
0
LINE
8
0
6
CONTINUOUS
10
80.875
20
-19
11
94.875
21
-19
0
LINE
8
0
6
CONTINUOUS
10
94.875
20
-19
11
94.875
21
-5
0
LINE
8
0
6
CONTINUOUS
10
94.875
20
-5
11
80.875
21
-5
0
LINE
8
0
6
CONTINUOUS
10
80.875
20
-5
11
80.875
21
-19
0
LINE
8
0
6
CONTINUOUS
10
104.625
20
-22.5
11
118.625
21
-22.5
0
LINE
8
0
6
CONTINUOUS
10
118.625
20
-22.5
11
118.625
21
-8.5
0
LINE
8
0
6
CONTINUOUS
10
118.625
20
-8.5
11
104.625
21
-8.5
0
LINE
8
0
6
CONTINUOUS
10
104.625
20
-8.5
11
104.625
21
-22.5
0
LINE
8
0
6
CONTINUOUS
10
143.6497475
20
-27.8732141
11
147.2732141
21
-14.3502525
0
LINE
8
0
6
CONTINUOUS
10
147.2732141
20
-14.3502525
11
133.7502525
21
-10.7267859
0
LINE
8
0
6
CONTINUOUS
10
133.7502525
20
-10.7267859
11
130.1267859
21
-24.2497475
0
LINE
8
0
6
CONTINUOUS
10
130.1267859
20
-24.2497475
11
143.6497475
21
-27.8732141
0
LINE
8
0
6
CONTINUOUS
10
18.025
20
-8
11
25.025
21
-8
0
LINE
8
0
6
CONTINUOUS
10
25.025
20
-8
11
25.025
21
6
0
LINE
8
0
6
CONTINUOUS
10
25.025
20
6
11
18.025
21
6
0
LINE
8
0
6
CONTINUOUS
10
18.025
20
6
11
18.025
21
-8
0
LINE
8
0
6
CONTINUOUS
10
149.2485342
20
-10.8419608
11
151.0602675
21
-4.08048
0
LINE
8
0
6
CONTINUOUS
10
151.0602675
20
-4.08048
11
137.537306
21
-0.4570134
0
LINE
8
0
6
CONTINUOUS
10
137.537306
20
-0.4570134
11
135.7255727
21
-7.2184942
0
LINE
8
0
6
CONTINUOUS
10
135.7255727
20
-7.2184942
11
149.2485342
21
-10.8419608
0
LINE
8
0
6
CONTINUOUS
10
-10.775
20
-8
11
-3.775
21
-8
0
LINE
8
0
6
CONTINUOUS
10
-3.775
20
-8
11
-3.775
21
6
0
LINE
8
0
6
CONTINUOUS
10
-3.775
20
6
11
-10.775
21
6
0
LINE
8
0
6
CONTINUOUS
10
-10.775
20
6
11
-10.775
21
-8
0
LINE
8
0
6
CONTINUOUS
10
141.7945457
20
-38.6606246
11
143.606279
21
-31.8991438
0
LINE
8
0
6
CONTINUOUS
10
143.606279
20
-31.8991438
11
130.0833175
21
-28.2756772
0
LINE
8
0
6
CONTINUOUS
10
130.0833175
20
-28.2756772
11
128.2715842
21
-35.037158
0
LINE
8
0
6
CONTINUOUS
10
128.2715842
20
-35.037158
11
141.7945457
21
-38.6606246
0
LINE
8
0
6
CONTINUOUS
10
127.11
20
34
11
144.89
21
34
0
LINE
8
0
6
CONTINUOUS
10
144.89
20
34
11
144.89
21
67
0
LINE
8
0
6
CONTINUOUS
10
144.89
20
67
11
127.11
21
67
0
LINE
8
0
6
CONTINUOUS
10
127.11
20
67
11
127.11
21
34
0
ENDSEC
0
EOF