<svg width="386.5mm" height="247.977mm" viewBox="0 0 386.5 247.977" xmlns="http://www.w3.org/2000/svg"><g id="svgGroup" stroke-linecap="round" fill-rule="evenodd" font-size="9pt" stroke="#000" stroke-width="0.25mm" fill="none" style="stroke:#000;stroke-width:0.25mm;fill:none"><path d="M 229.797 220.5 L 246.75 220.5 A 2 2 0 0 0 248.75 218.5 L 248.75 217 L 280.75 217 L 280.75 218.5 A 2 2 0 0 0 282.75 220.5 L 299.75 220.5 L 299.75 222 A 2 2 0 0 0 301.75 224 L 360.75 224 A 2 2 0 0 0 362.75 222 L 362.75 215 L 377.375 215 A 2 2 0 0 0 379.375 213 L 379.375 174 A 2 2 0 0 0 377.375 172 L 374.625 172 L 374.625 167 L 384.5 167 A 2 2 0 0 0 386.5 165 L 386.5 146 A 2 2 0 0 0 384.5 144 L 372.75 144 L 372.75 136 A 2 2 0 0 0 372.25 134.677 L 372.25 127 A 2 2 0 0 0 370.25 125 L 324.75 125 L 324.75 123.5 A 2 2 0 0 0 322.75 121.5 L 305.75 121.5 L 305.75 120 A 2 2 0 0 0 303.75 118 L 286.75 118 L 286.75 116.5 A 2 2 0 0 0 284.75 114.5 L 244.75 114.5 A 2 2 0 0 0 242.75 116.5 L 242.75 118 L 225.75 118 A 2 2 0 0 0 223.75 120 L 223.75 121.5 L 192.86 121.5 A 2 2 0 0 0 190.86 123.5 L 190.86 162.5 A 2 2 0 0 0 192.86 164.5 L 194.75 164.5 A 10 10 0 0 1 204.75 174.5 L 204.75 194.045 A 10 10 0 0 1 197.338 203.705 L 190.98 205.408 A 2 2 0 0 0 189.565 207.858 L 199.918 246.495 A 2 2 0 0 0 202.368 247.909 L 220.72 242.992 A 2 2 0 0 0 222.135 240.542 L 220.137 233.088 A 10 10 0 0 1 229.797 220.5 Z M 6.75 33.5 L 13.75 33.5 L 13.75 41.5 A 2 2 0 0 0 15.75 43.5 L 16.625 43.5 L 16.625 57.5 L 13.875 57.5 A 2 2 0 0 0 11.875 59.5 L 11.875 86.5 L 2 86.5 A 2 2 0 0 0 0 88.5 L 0 107.5 A 2 2 0 0 0 2 109.5 L 63.375 109.5 A 2 2 0 0 0 65.375 107.5 L 65.375 106 L 87.125 106 A 2 2 0 0 0 89.125 104 L 89.125 102.5 L 116.375 102.5 L 116.375 104 A 2 2 0 0 0 118.375 106 L 151.481 106 L 149.165 114.642 A 2 2 0 0 0 150.58 117.092 L 168.932 122.009 A 2 2 0 0 0 171.382 120.595 L 181.735 81.958 A 2 2 0 0 0 180.32 79.508 L 170.162 76.786 A 10 10 0 0 1 162.75 67.127 L 162.75 60 A 10 10 0 0 1 172.75 50 L 174.64 50 A 2 2 0 0 0 176.64 48 L 176.64 9 A 2 2 0 0 0 174.64 7 L 143.75 7 L 143.75 5.5 A 2 2 0 0 0 141.75 3.5 L 124.75 3.5 L 124.75 2 A 2 2 0 0 0 122.75 0 L 82.75 0 A 2 2 0 0 0 80.75 2 L 80.75 3.5 L 63.75 3.5 A 2 2 0 0 0 61.75 5.5 L 61.75 7 L 44.75 7 A 2 2 0 0 0 42.75 9 L 42.75 10.5 L 6.75 10.5 A 2 2 0 0 0 4.75 12.5 L 4.75 31.5 A 2 2 0 0 0 6.75 33.5 Z M 153.86 45 L 171.64 45 L 171.64 12 L 153.86 12 L 153.86 45 Z M 195.86 159.5 L 213.64 159.5 L 213.64 126.5 L 195.86 126.5 L 195.86 159.5 Z M 170.4 106.873 L 174.023 93.35 L 160.5 89.727 L 156.877 103.25 L 170.4 106.873 Z M 197.277 219.25 L 200.9 232.773 L 214.423 229.15 L 210.8 215.627 L 197.277 219.25 Z M 19.75 29 L 33.75 29 L 33.75 15 L 19.75 15 L 19.75 29 Z M 26.875 86 L 40.875 86 L 40.875 72 L 26.875 72 L 26.875 86 Z M 31.625 67 L 45.625 67 L 45.625 53 L 31.625 53 L 31.625 67 Z M 34 48 L 48 48 L 48 34 L 34 34 L 34 48 Z M 38.75 29 L 52.75 29 L 52.75 15 L 38.75 15 L 38.75 29 Z M 57.75 82.5 L 71.75 82.5 L 71.75 68.5 L 57.75 68.5 L 57.75 82.5 Z M 57.75 63.5 L 71.75 63.5 L 71.75 49.5 L 57.75 49.5 L 57.75 63.5 Z M 57.75 44.5 L 71.75 44.5 L 71.75 30.5 L 57.75 30.5 L 57.75 44.5 Z M 57.75 25.5 L 71.75 25.5 L 71.75 11.5 L 57.75 11.5 L 57.75 25.5 Z M 76.75 79 L 90.75 79 L 90.75 65 L 76.75 65 L 76.75 79 Z M 76.75 60 L 90.75 60 L 90.75 46 L 76.75 46 L 76.75 60 Z M 76.75 41 L 90.75 41 L 90.75 27 L 76.75 27 L 76.75 41 Z M 76.75 22 L 90.75 22 L 90.75 8 L 76.75 8 L 76.75 22 Z M 95.75 75.5 L 109.75 75.5 L 109.75 61.5 L 95.75 61.5 L 95.75 75.5 Z M 95.75 56.5 L 109.75 56.5 L 109.75 42.5 L 95.75 42.5 L 95.75 56.5 Z M 95.75 37.5 L 109.75 37.5 L 109.75 23.5 L 95.75 23.5 L 95.75 37.5 Z M 95.75 18.5 L 109.75 18.5 L 109.75 4.5 L 95.75 4.5 L 95.75 18.5 Z M 114.75 79 L 128.75 79 L 128.75 65 L 114.75 65 L 114.75 79 Z M 114.75 60 L 128.75 60 L 128.75 46 L 114.75 46 L 114.75 60 Z M 114.75 41 L 128.75 41 L 128.75 27 L 114.75 27 L 114.75 41 Z M 114.75 22 L 128.75 22 L 128.75 8 L 114.75 8 L 114.75 22 Z M 133.75 82.5 L 147.75 82.5 L 147.75 68.5 L 133.75 68.5 L 133.75 82.5 Z M 133.75 63.5 L 147.75 63.5 L 147.75 49.5 L 133.75 49.5 L 133.75 63.5 Z M 133.75 44.5 L 147.75 44.5 L 147.75 30.5 L 133.75 30.5 L 133.75 44.5 Z M 133.75 25.5 L 147.75 25.5 L 147.75 11.5 L 133.75 11.5 L 133.75 25.5 Z M 15 105 L 29 105 L 29 91 L 15 91 L 15 105 Z M 36.375 105 L 50.375 105 L 50.375 91 L 36.375 91 L 36.375 105 Z M 60.125 101.5 L 74.125 101.5 L 74.125 87.5 L 60.125 87.5 L 60.125 101.5 Z M 83.875 98 L 97.875 98 L 97.875 84 L 83.875 84 L 83.875 98 Z M 107.625 98 L 121.625 98 L 121.625 84 L 107.625 84 L 107.625 98 Z M 131.375 101.5 L 145.375 101.5 L 145.375 87.5 L 131.375 87.5 L 131.375 101.5 Z M 219.75 216 L 233.75 216 L 233.75 202 L 219.75 202 L 219.75 216 Z M 219.75 197 L 233.75 197 L 233.75 183 L 219.75 183 L 219.75 197 Z M 219.75 178 L 233.75 178 L 233.75 164 L 219.75 164 L 219.75 178 Z M 219.75 159 L 233.75 159 L 233.75 145 L 219.75 145 L 219.75 159 Z M 219.75 140 L 233.75 140 L 233.75 126 L 219.75 126 L 219.75 140 Z M 238.75 212.5 L 252.75 212.5 L 252.75 198.5 L 238.75 198.5 L 238.75 212.5 Z M 238.75 193.5 L 252.75 193.5 L 252.75 179.5 L 238.75 179.5 L 238.75 193.5 Z M 238.75 174.5 L 252.75 174.5 L 252.75 160.5 L 238.75 160.5 L 238.75 174.5 Z M 238.75 155.5 L 252.75 155.5 L 252.75 141.5 L 238.75 141.5 L 238.75 155.5 Z M 238.75 136.5 L 252.75 136.5 L 252.75 122.5 L 238.75 122.5 L 238.75 136.5 Z M 257.75 209 L 271.75 209 L 271.75 195 L 257.75 195 L 257.75 209 Z M 257.75 190 L 271.75 190 L 271.75 176 L 257.75 176 L 257.75 190 Z M 257.75 171 L 271.75 171 L 271.75 157 L 257.75 157 L 257.75 171 Z M 257.75 152 L 271.75 152 L 271.75 138 L 257.75 138 L 257.75 152 Z M 257.75 133 L 271.75 133 L 271.75 119 L 257.75 119 L 257.75 133 Z M 276.75 212.5 L 290.75 212.5 L 290.75 198.5 L 276.75 198.5 L 276.75 212.5 Z M 276.75 193.5 L 290.75 193.5 L 290.75 179.5 L 276.75 179.5 L 276.75 193.5 Z M 276.75 174.5 L 290.75 174.5 L 290.75 160.5 L 276.75 160.5 L 276.75 174.5 Z M 276.75 155.5 L 290.75 155.5 L 290.75 141.5 L 276.75 141.5 L 276.75 155.5 Z M 276.75 136.5 L 290.75 136.5 L 290.75 122.5 L 276.75 122.5 L 276.75 136.5 Z M 295.75 216 L 309.75 216 L 309.75 202 L 295.75 202 L 295.75 216 Z M 295.75 197 L 309.75 197 L 309.75 183 L 295.75 183 L 295.75 197 Z M 295.75 178 L 309.75 178 L 309.75 164 L 295.75 164 L 295.75 178 Z M 295.75 159 L 309.75 159 L 309.75 145 L 295.75 145 L 295.75 159 Z M 295.75 140 L 309.75 140 L 309.75 126 L 295.75 126 L 295.75 140 Z M 314.75 219.5 L 328.75 219.5 L 328.75 205.5 L 314.75 205.5 L 314.75 219.5 Z M 314.75 200.5 L 328.75 200.5 L 328.75 186.5 L 314.75 186.5 L 314.75 200.5 Z M 314.75 181.5 L 328.75 181.5 L 328.75 167.5 L 314.75 167.5 L 314.75 181.5 Z M 314.75 162.5 L 328.75 162.5 L 328.75 148.5 L 314.75 148.5 L 314.75 162.5 Z M 314.75 143.5 L 328.75 143.5 L 328.75 129.5 L 314.75 129.5 L 314.75 143.5 Z M 333.75 219.5 L 347.75 219.5 L 347.75 205.5 L 333.75 205.5 L 333.75 219.5 Z M 350.375 200.5 L 364.375 200.5 L 364.375 186.5 L 350.375 186.5 L 350.375 200.5 Z M 345.625 181.5 L 359.625 181.5 L 359.625 167.5 L 345.625 167.5 L 345.625 181.5 Z M 333.75 162.5 L 347.75 162.5 L 347.75 148.5 L 333.75 148.5 L 333.75 162.5 Z M 343.25 143.5 L 357.25 143.5 L 357.25 129.5 L 343.25 129.5 L 343.25 143.5 Z M 357.5 162.5 L 371.5 162.5 L 371.5 148.5 L 357.5 148.5 L 357.5 162.5 Z M 44.775 87 L 51.775 87 L 51.775 73 L 44.775 73 L 44.775 87 Z M 15.975 87 L 22.975 87 L 22.975 73 L 15.975 73 L 15.975 87 Z M 368.275 201.5 L 375.275 201.5 L 375.275 187.5 L 368.275 187.5 L 368.275 201.5 Z M 363.525 182.5 L 370.525 182.5 L 370.525 168.5 L 363.525 168.5 L 363.525 182.5 Z M 361.15 144.5 L 368.15 144.5 L 368.15 130.5 L 361.15 130.5 L 361.15 144.5 Z M 339.475 201.5 L 346.475 201.5 L 346.475 187.5 L 339.475 187.5 L 339.475 201.5 Z M 334.725 182.5 L 341.725 182.5 L 341.725 168.5 L 334.725 168.5 L 334.725 182.5 Z M 332.35 144.5 L 339.35 144.5 L 339.35 130.5 L 332.35 130.5 L 332.35 144.5 Z M 175.999 89.842 L 177.81 83.08 L 164.287 79.457 L 162.476 86.218 L 175.999 89.842 Z M 200.944 236.799 L 202.755 243.561 L 216.278 239.937 L 214.467 233.176 L 200.944 236.799 Z M 168.545 117.661 L 170.356 110.899 L 156.833 107.276 L 155.022 114.037 L 168.545 117.661 Z M 193.49 208.98 L 195.301 215.742 L 208.824 212.118 L 207.013 205.357 L 193.49 208.98 Z" vector-effect="non-scaling-stroke"/></g></svg>