0
SECTION
2
HEADER
9
$INSUNITS
70
4
0
ENDSEC
0
SECTION
2
TABLES
0
TABLE
2
LTYPE
0
LTYPE
72
65
70
0
2
CONTINUOUS
3
______
73
0
40
0
0
LTYPE
72
65
70
0
2
DASHED
3
_ _ _ 
73
2
40
7.5
49
5
49
-2.5
0
LTYPE
72
65
70
0
2
DOTTED
3
. . . 
73
2
40
1.5
49
0.5
49
-1
0
ENDTAB
0
TABLE
2
LAYER
0
ENDTAB
0
ENDSEC
0
SECTION
2
ENTITIES
0
LINE
8
0
6
CONTINUOUS
10
-20
20
45.5
11
-13
21
45.5
0
LINE
8
0
6
CONTINUOUS
10
-13
20
37.5
11
-13
21
45.5
0
ARC
8
0
6
CONTINUOUS
10
-11
20
37.5
40
2
50
180
51
270
0
LINE
8
0
6
CONTINUOUS
10
-10.125
20
35.5
11
-11
21
35.5
0
LINE
8
0
6
CONTINUOUS
10
-10.125
20
21.5
11
-10.125
21
35.5
0
LINE
8
0
6
CONTINUOUS
10
-12.875
20
21.5
11
-10.125
21
21.5
0
ARC
8
0
6
CONTINUOUS
10
-12.875
20
19.5
40
2
50
90
51
180
0
LINE
8
0
6
CONTINUOUS
10
-14.875
20
-7.5
11
-14.875
21
19.5
0
LINE
8
0
6
CONTINUOUS
10
-24.75
20
-7.5
11
-14.875
21
-7.5
0
ARC
8
0
6
CONTINUOUS
10
-24.75
20
-9.5
40
2
50
90
51
180
0
LINE
8
0
6
CONTINUOUS
10
-26.75
20
-9.5
11
-26.75
21
-28.5
0
ARC
8
0
6
CONTINUOUS
10
-24.75
20
-28.5
40
2
50
180
51
270
0
LINE
8
0
6
CONTINUOUS
10
-24.75
20
-30.5
11
36.625
21
-30.5
0
ARC
8
0
6
CONTINUOUS
10
36.625
20
-28.5
40
2
50
270
51
360
0
LINE
8
0
6
CONTINUOUS
10
38.625
20
-28.5
11
38.625
21
-27
0
LINE
8
0
6
CONTINUOUS
10
38.625
20
-27
11
60.375
21
-27
0
ARC
8
0
6
CONTINUOUS
10
60.375
20
-25
40
2
50
270
51
360
0
LINE
8
0
6
CONTINUOUS
10
62.375
20
-25
11
62.375
21
-23.5
0
LINE
8
0
6
CONTINUOUS
10
62.375
20
-23.5
11
89.625
21
-23.5
0
LINE
8
0
6
CONTINUOUS
10
89.625
20
-23.5
11
89.625
21
-25
0
ARC
8
0
6
CONTINUOUS
10
91.625
20
-25
40
2
50
180
51
270
0
LINE
8
0
6
CONTINUOUS
10
91.625
20
-27
11
124.7311151
21
-27
0
LINE
8
0
6
CONTINUOUS
10
124.7311151
20
-27
11
122.4154721
21
-35.6420975
0
ARC
8
0
6
CONTINUOUS
10
124.3473237
20
-36.1597356
40
2
50
164.9999999
51
255.000001
0
LINE
8
0
6
CONTINUOUS
10
123.8296856
20
-38.0915873
11
142.1822763
21
-43.0091492
0
ARC
8
0
6
CONTINUOUS
10
142.6999144
20
-41.0772975
40
2
50
255.0000001
51
344.9999999
0
LINE
8
0
6
CONTINUOUS
10
144.6317661
20
-41.5949356
11
154.984528
21
-2.9579025
0
ARC
8
0
6
CONTINUOUS
10
153.0526763
20
-2.4402644
40
2
50
344.9999999
51
435.0000001
0
LINE
8
0
6
CONTINUOUS
10
153.5703144
20
-0.5084127
11
143.4118099
21
2.2135504
0
LINE
8
0
6
CONTINUOUS
10
136
20
11.8728088
11
136
21
19
0
LINE
8
0
6
CONTINUOUS
10
146
20
29
11
147.89
21
29
0
ARC
8
0
6
CONTINUOUS
10
147.89
20
31
40
2
50
270
51
360
0
LINE
8
0
6
CONTINUOUS
10
149.89
20
31
11
149.89
21
70
0
ARC
8
0
6
CONTINUOUS
10
147.89
20
70
40
2
50
0
51
90
0
LINE
8
0
6
CONTINUOUS
10
117
20
72
11
147.89
21
72
0
LINE
8
0
6
CONTINUOUS
10
117
20
72
11
117
21
73.5
0
ARC
8
0
6
CONTINUOUS
10
115
20
73.5
40
2
50
0
51
90
0
LINE
8
0
6
CONTINUOUS
10
115
20
75.5
11
98
21
75.5
0
LINE
8
0
6
CONTINUOUS
10
98
20
75.5
11
98
21
77
0
ARC
8
0
6
CONTINUOUS
10
96
20
77
40
2
50
0
51
90
0
LINE
8
0
6
CONTINUOUS
10
96
20
79
11
56
21
79
0
ARC
8
0
6
CONTINUOUS
10
56
20
77
40
2
50
90
51
180
0
LINE
8
0
6
CONTINUOUS
10
54
20
77
11
54
21
75.5
0
LINE
8
0
6
CONTINUOUS
10
54
20
75.5
11
37
21
75.5
0
ARC
8
0
6
CONTINUOUS
10
37
20
73.5
40
2
50
90
51
180
0
LINE
8
0
6
CONTINUOUS
10
35
20
73.5
11
35
21
72
0
LINE
8
0
6
CONTINUOUS
10
35
20
72
11
18
21
72
0
ARC
8
0
6
CONTINUOUS
10
18
20
70
40
2
50
90
51
180
0
LINE
8
0
6
CONTINUOUS
10
16
20
70
11
16
21
68.5
0
LINE
8
0
6
CONTINUOUS
10
-20
20
68.5
11
16
21
68.5
0
ARC
8
0
6
CONTINUOUS
10
-20
20
66.5
40
2
50
90
51
180
0
LINE
8
0
6
CONTINUOUS
10
-22
20
66.5
11
-22
21
47.5
0
ARC
8
0
6
CONTINUOUS
10
-20
20
47.5
40
2
50
180
51
270
0
ARC
8
0
6
CONTINUOUS
10
146
20
11.8728088
40
10
50
180
51
255.0000021
0
ARC
8
0
6
CONTINUOUS
10
146
20
19
40
10
50
90
51
180
0
LINE
8
0
6
CONTINUOUS
10
-7
20
50
11
7
21
50
0
LINE
8
0
6
CONTINUOUS
10
7
20
50
11
7
21
64
0
LINE
8
0
6
CONTINUOUS
10
7
20
64
11
-7
21
64
0
LINE
8
0
6
CONTINUOUS
10
-7
20
64
11
-7
21
50
0
LINE
8
0
6
CONTINUOUS
10
0.125
20
-7
11
14.125
21
-7
0
LINE
8
0
6
CONTINUOUS
10
14.125
20
-7
11
14.125
21
7
0
LINE
8
0
6
CONTINUOUS
10
14.125
20
7
11
0.125
21
7
0
LINE
8
0
6
CONTINUOUS
10
0.125
20
7
11
0.125
21
-7
0
LINE
8
0
6
CONTINUOUS
10
4.875
20
12
11
18.875
21
12
0
LINE
8
0
6
CONTINUOUS
10
18.875
20
12
11
18.875
21
26
0
LINE
8
0
6
CONTINUOUS
10
18.875
20
26
11
4.875
21
26
0
LINE
8
0
6
CONTINUOUS
10
4.875
20
26
11
4.875
21
12
0
LINE
8
0
6
CONTINUOUS
10
7.25
20
31
11
21.25
21
31
0
LINE
8
0
6
CONTINUOUS
10
21.25
20
31
11
21.25
21
45
0
LINE
8
0
6
CONTINUOUS
10
21.25
20
45
11
7.25
21
45
0
LINE
8
0
6
CONTINUOUS
10
7.25
20
45
11
7.25
21
31
0
LINE
8
0
6
CONTINUOUS
10
12
20
50
11
26
21
50
0
LINE
8
0
6
CONTINUOUS
10
26
20
50
11
26
21
64
0
LINE
8
0
6
CONTINUOUS
10
26
20
64
11
12
21
64
0
LINE
8
0
6
CONTINUOUS
10
12
20
64
11
12
21
50
0
LINE
8
0
6
CONTINUOUS
10
31
20
-3.5
11
45
21
-3.5
0
LINE
8
0
6
CONTINUOUS
10
45
20
-3.5
11
45
21
10.5
0
LINE
8
0
6
CONTINUOUS
10
45
20
10.5
11
31
21
10.5
0
LINE
8
0
6
CONTINUOUS
10
31
20
10.5
11
31
21
-3.5
0
LINE
8
0
6
CONTINUOUS
10
31
20
15.5
11
45
21
15.5
0
LINE
8
0
6
CONTINUOUS
10
45
20
15.5
11
45
21
29.5
0
LINE
8
0
6
CONTINUOUS
10
45
20
29.5
11
31
21
29.5
0
LINE
8
0
6
CONTINUOUS
10
31
20
29.5
11
31
21
15.5
0
LINE
8
0
6
CONTINUOUS
10
31
20
34.5
11
45
21
34.5
0
LINE
8
0
6
CONTINUOUS
10
45
20
34.5
11
45
21
48.5
0
LINE
8
0
6
CONTINUOUS
10
45
20
48.5
11
31
21
48.5
0
LINE
8
0
6
CONTINUOUS
10
31
20
48.5
11
31
21
34.5
0
LINE
8
0
6
CONTINUOUS
10
31
20
53.5
11
45
21
53.5
0
LINE
8
0
6
CONTINUOUS
10
45
20
53.5
11
45
21
67.5
0
LINE
8
0
6
CONTINUOUS
10
45
20
67.5
11
31
21
67.5
0
LINE
8
0
6
CONTINUOUS
10
31
20
67.5
11
31
21
53.5
0
LINE
8
0
6
CONTINUOUS
10
50
20
0
11
64
21
0
0
LINE
8
0
6
CONTINUOUS
10
64
20
0
11
64
21
14
0
LINE
8
0
6
CONTINUOUS
10
64
20
14
11
50
21
14
0
LINE
8
0
6
CONTINUOUS
10
50
20
14
11
50
21
0
0
LINE
8
0
6
CONTINUOUS
10
50
20
19
11
64
21
19
0
LINE
8
0
6
CONTINUOUS
10
64
20
19
11
64
21
33
0
LINE
8
0
6
CONTINUOUS
10
64
20
33
11
50
21
33
0
LINE
8
0
6
CONTINUOUS
10
50
20
33
11
50
21
19
0
LINE
8
0
6
CONTINUOUS
10
50
20
38
11
64
21
38
0
LINE
8
0
6
CONTINUOUS
10
64
20
38
11
64
21
52
0
LINE
8
0
6
CONTINUOUS
10
64
20
52
11
50
21
52
0
LINE
8
0
6
CONTINUOUS
10
50
20
52
11
50
21
38
0
LINE
8
0
6
CONTINUOUS
10
50
20
57
11
64
21
57
0
LINE
8
0
6
CONTINUOUS
10
64
20
57
11
64
21
71
0
LINE
8
0
6
CONTINUOUS
10
64
20
71
11
50
21
71
0
LINE
8
0
6
CONTINUOUS
10
50
20
71
11
50
21
57
0
LINE
8
0
6
CONTINUOUS
10
69
20
3.5
11
83
21
3.5
0
LINE
8
0
6
CONTINUOUS
10
83
20
3.5
11
83
21
17.5
0
LINE
8
0
6
CONTINUOUS
10
83
20
17.5
11
69
21
17.5
0
LINE
8
0
6
CONTINUOUS
10
69
20
17.5
11
69
21
3.5
0
LINE
8
0
6
CONTINUOUS
10
69
20
22.5
11
83
21
22.5
0
LINE
8
0
6
CONTINUOUS
10
83
20
22.5
11
83
21
36.5
0
LINE
8
0
6
CONTINUOUS
10
83
20
36.5
11
69
21
36.5
0
LINE
8
0
6
CONTINUOUS
10
69
20
36.5
11
69
21
22.5
0
LINE
8
0
6
CONTINUOUS
10
69
20
41.5
11
83
21
41.5
0
LINE
8
0
6
CONTINUOUS
10
83
20
41.5
11
83
21
55.5
0
LINE
8
0
6
CONTINUOUS
10
83
20
55.5
11
69
21
55.5
0
LINE
8
0
6
CONTINUOUS
10
69
20
55.5
11
69
21
41.5
0
LINE
8
0
6
CONTINUOUS
10
69
20
60.5
11
83
21
60.5
0
LINE
8
0
6
CONTINUOUS
10
83
20
60.5
11
83
21
74.5
0
LINE
8
0
6
CONTINUOUS
10
83
20
74.5
11
69
21
74.5
0
LINE
8
0
6
CONTINUOUS
10
69
20
74.5
11
69
21
60.5
0
LINE
8
0
6
CONTINUOUS
10
88
20
0
11
102
21
0
0
LINE
8
0
6
CONTINUOUS
10
102
20
0
11
102
21
14
0
LINE
8
0
6
CONTINUOUS
10
102
20
14
11
88
21
14
0
LINE
8
0
6
CONTINUOUS
10
88
20
14
11
88
21
0
0
LINE
8
0
6
CONTINUOUS
10
88
20
19
11
102
21
19
0
LINE
8
0
6
CONTINUOUS
10
102
20
19
11
102
21
33
0
LINE
8
0
6
CONTINUOUS
10
102
20
33
11
88
21
33
0
LINE
8
0
6
CONTINUOUS
10
88
20
33
11
88
21
19
0
LINE
8
0
6
CONTINUOUS
10
88
20
38
11
102
21
38
0
LINE
8
0
6
CONTINUOUS
10
102
20
38
11
102
21
52
0
LINE
8
0
6
CONTINUOUS
10
102
20
52
11
88
21
52
0
LINE
8
0
6
CONTINUOUS
10
88
20
52
11
88
21
38
0
LINE
8
0
6
CONTINUOUS
10
88
20
57
11
102
21
57
0
LINE
8
0
6
CONTINUOUS
10
102
20
57
11
102
21
71
0
LINE
8
0
6
CONTINUOUS
10
102
20
71
11
88
21
71
0
LINE
8
0
6
CONTINUOUS
10
88
20
71
11
88
21
57
0
LINE
8
0
6
CONTINUOUS
10
107
20
-3.5
11
121
21
-3.5
0
LINE
8
0
6
CONTINUOUS
10
121
20
-3.5
11
121
21
10.5
0
LINE
8
0
6
CONTINUOUS
10
121
20
10.5
11
107
21
10.5
0
LINE
8
0
6
CONTINUOUS
10
107
20
10.5
11
107
21
-3.5
0
LINE
8
0
6
CONTINUOUS
10
107
20
15.5
11
121
21
15.5
0
LINE
8
0
6
CONTINUOUS
10
121
20
15.5
11
121
21
29.5
0
LINE
8
0
6
CONTINUOUS
10
121
20
29.5
11
107
21
29.5
0
LINE
8
0
6
CONTINUOUS
10
107
20
29.5
11
107
21
15.5
0
LINE
8
0
6
CONTINUOUS
10
107
20
34.5
11
121
21
34.5
0
LINE
8
0
6
CONTINUOUS
10
121
20
34.5
11
121
21
48.5
0
LINE
8
0
6
CONTINUOUS
10
121
20
48.5
11
107
21
48.5
0
LINE
8
0
6
CONTINUOUS
10
107
20
48.5
11
107
21
34.5
0
LINE
8
0
6
CONTINUOUS
10
107
20
53.5
11
121
21
53.5
0
LINE
8
0
6
CONTINUOUS
10
121
20
53.5
11
121
21
67.5
0
LINE
8
0
6
CONTINUOUS
10
121
20
67.5
11
107
21
67.5
0
LINE
8
0
6
CONTINUOUS
10
107
20
67.5
11
107
21
53.5
0
LINE
8
0
6
CONTINUOUS
10
-11.75
20
-26
11
2.25
21
-26
0
LINE
8
0
6
CONTINUOUS
10
2.25
20
-26
11
2.25
21
-12
0
LINE
8
0
6
CONTINUOUS
10
2.25
20
-12
11
-11.75
21
-12
0
LINE
8
0
6
CONTINUOUS
10
-11.75
20
-12
11
-11.75
21
-26
0
LINE
8
0
6
CONTINUOUS
10
9.625
20
-26
11
23.625
21
-26
0
LINE
8
0
6
CONTINUOUS
10
23.625
20
-26
11
23.625
21
-12
0
LINE
8
0
6
CONTINUOUS
10
23.625
20
-12
11
9.625
21
-12
0
LINE
8
0
6
CONTINUOUS
10
9.625
20
-12
11
9.625
21
-26
0
LINE
8
0
6
CONTINUOUS
10
33.375
20
-22.5
11
47.375
21
-22.5
0
LINE
8
0
6
CONTINUOUS
10
47.375
20
-22.5
11
47.375
21
-8.5
0
LINE
8
0
6
CONTINUOUS
10
47.375
20
-8.5
11
33.375
21
-8.5
0
LINE
8
0
6
CONTINUOUS
10
33.375
20
-8.5
11
33.375
21
-22.5
0
LINE
8
0
6
CONTINUOUS
10
57.125
20
-19
11
71.125
21
-19
0
LINE
8
0
6
CONTINUOUS
10
71.125
20
-19
11
71.125
21
-5
0
LINE
8
0
6
CONTINUOUS
10
71.125
20
-5
11
57.125
21
-5
0
LINE
8
0
6
CONTINUOUS
10
57.125
20
-5
11
57.125
21
-19
0
LINE
8
0
6
CONTINUOUS
10
80.875
20
-19
11
94.875
21
-19
0
LINE
8
0
6
CONTINUOUS
10
94.875
20
-19
11
94.875
21
-5
0
LINE
8
0
6
CONTINUOUS
10
94.875
20
-5
11
80.875
21
-5
0
LINE
8
0
6
CONTINUOUS
10
80.875
20
-5
11
80.875
21
-19
0
LINE
8
0
6
CONTINUOUS
10
104.625
20
-22.5
11
118.625
21
-22.5
0
LINE
8
0
6
CONTINUOUS
10
118.625
20
-22.5
11
118.625
21
-8.5
0
LINE
8
0
6
CONTINUOUS
10
118.625
20
-8.5
11
104.625
21
-8.5
0
LINE
8
0
6
CONTINUOUS
10
104.625
20
-8.5
11
104.625
21
-22.5
0
LINE
8
0
6
CONTINUOUS
10
143.6497475
20
-27.8732141
11
147.2732141
21
-14.3502525
0
LINE
8
0
6
CONTINUOUS
10
147.2732141
20
-14.3502525
11
133.7502525
21
-10.7267859
0
LINE
8
0
6
CONTINUOUS
10
133.7502525
20
-10.7267859
11
130.1267859
21
-24.2497475
0
LINE
8
0
6
CONTINUOUS
10
130.1267859
20
-24.2497475
11
143.6497475
21
-27.8732141
0
LINE
8
0
6
CONTINUOUS
10
18.025
20
-8
11
25.025
21
-8
0
LINE
8
0
6
CONTINUOUS
10
25.025
20
-8
11
25.025
21
6
0
LINE
8
0
6
CONTINUOUS
10
25.025
20
6
11
18.025
21
6
0
LINE
8
0
6
CONTINUOUS
10
18.025
20
6
11
18.025
21
-8
0
LINE
8
0
6
CONTINUOUS
10
149.2485342
20
-10.8419608
11
151.0602675
21
-4.08048
0
LINE
8
0
6
CONTINUOUS
10
151.0602675
20
-4.08048
11
137.537306
21
-0.4570134
0
LINE
8
0
6
CONTINUOUS
10
137.537306
20
-0.4570134
11
135.7255727
21
-7.2184942
0
LINE
8
0
6
CONTINUOUS
10
135.7255727
20
-7.2184942
11
149.2485342
21
-10.8419608
0
LINE
8
0
6
CONTINUOUS
10
-10.775
20
-8
11
-3.775
21
-8
0
LINE
8
0
6
CONTINUOUS
10
-3.775
20
-8
11
-3.775
21
6
0
LINE
8
0
6
CONTINUOUS
10
-3.775
20
6
11
-10.775
21
6
0
LINE
8
0
6
CONTINUOUS
10
-10.775
20
6
11
-10.775
21
-8
0
LINE
8
0
6
CONTINUOUS
10
141.7945457
20
-38.6606246
11
143.606279
21
-31.8991438
0
LINE
8
0
6
CONTINUOUS
10
143.606279
20
-31.8991438
11
130.0833175
21
-28.2756772
0
LINE
8
0
6
CONTINUOUS
10
130.0833175
20
-28.2756772
11
128.2715842
21
-35.037158
0
LINE
8
0
6
CONTINUOUS
10
128.2715842
20
-35.037158
11
141.7945457
21
-38.6606246
0
LINE
8
0
6
CONTINUOUS
10
127.11
20
34
11
144.89
21
34
0
LINE
8
0
6
CONTINUOUS
10
144.89
20
34
11
144.89
21
67
0
LINE
8
0
6
CONTINUOUS
10
144.89
20
67
11
127.11
21
67
0
LINE
8
0
6
CONTINUOUS
10
127.11
20
67
11
127.11
21
34
0
LINE
8
0
6
CONTINUOUS
10
253.0465179
20
-11.5
11
270
21
-11.5
0
ARC
8
0
6
CONTINUOUS
10
270
20
-9.5
40
2
50
270
51
360
0
LINE
8
0
6
CONTINUOUS
10
272
20
-9.5
11
272
21
-8
0
LINE
8
0
6
CONTINUOUS
10
272
20
-8
11
304
21
-8
0
LINE
8
0
6
CONTINUOUS
10
304
20
-8
11
304
21
-9.5
0
ARC
8
0
6
CONTINUOUS
10
306
20
-9.5
40
2
50
180
51
270
0
LINE
8
0
6
CONTINUOUS
10
306
20
-11.5
11
323
21
-11.5
0
LINE
8
0
6
CONTINUOUS
10
323
20
-11.5
11
323
21
-13
0
ARC
8
0
6
CONTINUOUS
10
325
20
-13
40
2
50
180
51
270
0
LINE
8
0
6
CONTINUOUS
10
325
20
-15
11
384
21
-15
0
ARC
8
0
6
CONTINUOUS
10
384
20
-13
40
2
50
270
51
360
0
LINE
8
0
6
CONTINUOUS
10
386
20
-13
11
386
21
-6
0
LINE
8
0
6
CONTINUOUS
10
400.625
20
-6
11
386
21
-6
0
ARC
8
0
6
CONTINUOUS
10
400.625
20
-4
40
2
50
270
51
0
0
LINE
8
0
6
CONTINUOUS
10
402.625
20
-4
11
402.625
21
35
0
ARC
8
0
6
CONTINUOUS
10
400.625
20
35
40
2
50
0
51
90
0
LINE
8
0
6
CONTINUOUS
10
397.875
20
37
11
400.625
21
37
0
LINE
8
0
6
CONTINUOUS
10
397.875
20
37
11
397.875
21
42
0
LINE
8
0
6
CONTINUOUS
10
397.875
20
42
11
407.75
21
42
0
ARC
8
0
6
CONTINUOUS
10
407.75
20
44
40
2
50
270
51
360
0
LINE
8
0
6
CONTINUOUS
10
409.75
20
44
11
409.75
21
63
0
ARC
8
0
6
CONTINUOUS
10
407.75
20
63
40
2
50
0
51
90
0
LINE
8
0
6
CONTINUOUS
10
407.75
20
65
11
396
21
65
0
LINE
8
0
6
CONTINUOUS
10
396
20
73
11
396
21
65
0
ARC
8
0
6
CONTINUOUS
10
394
20
73
40
2
50
360
51
401.4096231
0
LINE
8
0
6
CONTINUOUS
10
395.5
20
74.3228757
11
395.5
21
82
0
ARC
8
0
6
CONTINUOUS
10
393.5
20
82
40
2
50
360
51
90
0
LINE
8
0
6
CONTINUOUS
10
348
20
84
11
393.5
21
84
0
LINE
8
0
6
CONTINUOUS
10
348
20
84
11
348
21
85.5
0
ARC
8
0
6
CONTINUOUS
10
346
20
85.5
40
2
50
0
51
90
0
LINE
8
0
6
CONTINUOUS
10
346
20
87.5
11
329
21
87.5
0
LINE
8
0
6
CONTINUOUS
10
329
20
87.5
11
329
21
89
0
ARC
8
0
6
CONTINUOUS
10
327
20
89
40
2
50
0
51
90
0
LINE
8
0
6
CONTINUOUS
10
327
20
91
11
310
21
91
0
LINE
8
0
6
CONTINUOUS
10
310
20
91
11
310
21
92.5
0
ARC
8
0
6
CONTINUOUS
10
308
20
92.5
40
2
50
0
51
90
0
LINE
8
0
6
CONTINUOUS
10
308
20
94.5
11
268
21
94.5
0
ARC
8
0
6
CONTINUOUS
10
268
20
92.5
40
2
50
90
51
180
0
LINE
8
0
6
CONTINUOUS
10
266
20
92.5
11
266
21
91
0
LINE
8
0
6
CONTINUOUS
10
266
20
91
11
249
21
91
0
ARC
8
0
6
CONTINUOUS
10
249
20
89
40
2
50
90
51
180
0
LINE
8
0
6
CONTINUOUS
10
247
20
89
11
247
21
87.5
0
LINE
8
0
6
CONTINUOUS
10
216.11
20
87.5
11
247
21
87.5
0
ARC
8
0
6
CONTINUOUS
10
216.11
20
85.5
40
2
50
90
51
180
0
LINE
8
0
6
CONTINUOUS
10
214.11
20
85.5
11
214.11
21
46.5
0
ARC
8
0
6
CONTINUOUS
10
216.11
20
46.5
40
2
50
180
51
270
0
LINE
8
0
6
CONTINUOUS
10
216.11
20
44.5
11
218
21
44.5
0
LINE
8
0
6
CONTINUOUS
10
228
20
14.9546017
11
228
21
34.5
0
LINE
8
0
6
CONTINUOUS
10
220.588191
20
5.2953437
11
214.2296856
21
3.5915872
0
ARC
8
0
6
CONTINUOUS
10
214.7473237
20
1.6597356
40
2
50
105.0000004
51
195.0000001
0
LINE
8
0
6
CONTINUOUS
10
212.815472
20
1.1420975
11
223.1682339
21
-37.4949356
0
ARC
8
0
6
CONTINUOUS
10
225.1000856
20
-36.9772975
40
2
50
195.0000001
51
284.9999999
0
LINE
8
0
6
CONTINUOUS
10
225.6177237
20
-38.9091492
11
243.9703144
21
-33.9915873
0
ARC
8
0
6
CONTINUOUS
10
243.4526763
20
-32.0597356
40
2
50
285.0000001
51
374.9999999
0
LINE
8
0
6
CONTINUOUS
10
245.384528
20
-31.5420975
11
243.3872595
21
-24.0881901
0
ARC
8
0
6
CONTINUOUS
10
218
20
34.5
40
10
50
0
51
90
0
ARC
8
0
6
CONTINUOUS
10
218
20
14.9546017
40
10
50
285.0000034
51
0
0
ARC
8
0
6
CONTINUOUS
10
253.0465179
20
-21.5
40
10
50
90
51
194.9999979
0
LINE
8
0
6
CONTINUOUS
10
243
20
-7
11
257
21
-7
0
LINE
8
0
6
CONTINUOUS
10
257
20
-7
11
257
21
7
0
LINE
8
0
6
CONTINUOUS
10
257
20
7
11
243
21
7
0
LINE
8
0
6
CONTINUOUS
10
243
20
7
11
243
21
-7
0
LINE
8
0
6
CONTINUOUS
10
243
20
12
11
257
21
12
0
LINE
8
0
6
CONTINUOUS
10
257
20
12
11
257
21
26
0
LINE
8
0
6
CONTINUOUS
10
257
20
26
11
243
21
26
0
LINE
8
0
6
CONTINUOUS
10
243
20
26
11
243
21
12
0
LINE
8
0
6
CONTINUOUS
10
243
20
31
11
257
21
31
0
LINE
8
0
6
CONTINUOUS
10
257
20
31
11
257
21
45
0
LINE
8
0
6
CONTINUOUS
10
257
20
45
11
243
21
45
0
LINE
8
0
6
CONTINUOUS
10
243
20
45
11
243
21
31
0
LINE
8
0
6
CONTINUOUS
10
243
20
50
11
257
21
50
0
LINE
8
0
6
CONTINUOUS
10
257
20
50
11
257
21
64
0
LINE
8
0
6
CONTINUOUS
10
257
20
64
11
243
21
64
0
LINE
8
0
6
CONTINUOUS
10
243
20
64
11
243
21
50
0
LINE
8
0
6
CONTINUOUS
10
243
20
69
11
257
21
69
0
LINE
8
0
6
CONTINUOUS
10
257
20
69
11
257
21
83
0
LINE
8
0
6
CONTINUOUS
10
257
20
83
11
243
21
83
0
LINE
8
0
6
CONTINUOUS
10
243
20
83
11
243
21
69
0
LINE
8
0
6
CONTINUOUS
10
262
20
-3.5
11
276
21
-3.5
0
LINE
8
0
6
CONTINUOUS
10
276
20
-3.5
11
276
21
10.5
0
LINE
8
0
6
CONTINUOUS
10
276
20
10.5
11
262
21
10.5
0
LINE
8
0
6
CONTINUOUS
10
262
20
10.5
11
262
21
-3.5
0
LINE
8
0
6
CONTINUOUS
10
262
20
15.5
11
276
21
15.5
0
LINE
8
0
6
CONTINUOUS
10
276
20
15.5
11
276
21
29.5
0
LINE
8
0
6
CONTINUOUS
10
276
20
29.5
11
262
21
29.5
0
LINE
8
0
6
CONTINUOUS
10
262
20
29.5
11
262
21
15.5
0
LINE
8
0
6
CONTINUOUS
10
262
20
34.5
11
276
21
34.5
0
LINE
8
0
6
CONTINUOUS
10
276
20
34.5
11
276
21
48.5
0
LINE
8
0
6
CONTINUOUS
10
276
20
48.5
11
262
21
48.5
0
LINE
8
0
6
CONTINUOUS
10
262
20
48.5
11
262
21
34.5
0
LINE
8
0
6
CONTINUOUS
10
262
20
53.5
11
276
21
53.5
0
LINE
8
0
6
CONTINUOUS
10
276
20
53.5
11
276
21
67.5
0
LINE
8
0
6
CONTINUOUS
10
276
20
67.5
11
262
21
67.5
0
LINE
8
0
6
CONTINUOUS
10
262
20
67.5
11
262
21
53.5
0
LINE
8
0
6
CONTINUOUS
10
262
20
72.5
11
276
21
72.5
0
LINE
8
0
6
CONTINUOUS
10
276
20
72.5
11
276
21
86.5
0
LINE
8
0
6
CONTINUOUS
10
276
20
86.5
11
262
21
86.5
0
LINE
8
0
6
CONTINUOUS
10
262
20
86.5
11
262
21
72.5
0
LINE
8
0
6
CONTINUOUS
10
281
20
0
11
295
21
0
0
LINE
8
0
6
CONTINUOUS
10
295
20
0
11
295
21
14
0
LINE
8
0
6
CONTINUOUS
10
295
20
14
11
281
21
14
0
LINE
8
0
6
CONTINUOUS
10
281
20
14
11
281
21
0
0
LINE
8
0
6
CONTINUOUS
10
281
20
19
11
295
21
19
0
LINE
8
0
6
CONTINUOUS
10
295
20
19
11
295
21
33
0
LINE
8
0
6
CONTINUOUS
10
295
20
33
11
281
21
33
0
LINE
8
0
6
CONTINUOUS
10
281
20
33
11
281
21
19
0
LINE
8
0
6
CONTINUOUS
10
281
20
38
11
295
21
38
0
LINE
8
0
6
CONTINUOUS
10
295
20
38
11
295
21
52
0
LINE
8
0
6
CONTINUOUS
10
295
20
52
11
281
21
52
0
LINE
8
0
6
CONTINUOUS
10
281
20
52
11
281
21
38
0
LINE
8
0
6
CONTINUOUS
10
281
20
57
11
295
21
57
0
LINE
8
0
6
CONTINUOUS
10
295
20
57
11
295
21
71
0
LINE
8
0
6
CONTINUOUS
10
295
20
71
11
281
21
71
0
LINE
8
0
6
CONTINUOUS
10
281
20
71
11
281
21
57
0
LINE
8
0
6
CONTINUOUS
10
281
20
76
11
295
21
76
0
LINE
8
0
6
CONTINUOUS
10
295
20
76
11
295
21
90
0
LINE
8
0
6
CONTINUOUS
10
295
20
90
11
281
21
90
0
LINE
8
0
6
CONTINUOUS
10
281
20
90
11
281
21
76
0
LINE
8
0
6
CONTINUOUS
10
300
20
-3.5
11
314
21
-3.5
0
LINE
8
0
6
CONTINUOUS
10
314
20
-3.5
11
314
21
10.5
0
LINE
8
0
6
CONTINUOUS
10
314
20
10.5
11
300
21
10.5
0
LINE
8
0
6
CONTINUOUS
10
300
20
10.5
11
300
21
-3.5
0
LINE
8
0
6
CONTINUOUS
10
300
20
15.5
11
314
21
15.5
0
LINE
8
0
6
CONTINUOUS
10
314
20
15.5
11
314
21
29.5
0
LINE
8
0
6
CONTINUOUS
10
314
20
29.5
11
300
21
29.5
0
LINE
8
0
6
CONTINUOUS
10
300
20
29.5
11
300
21
15.5
0
LINE
8
0
6
CONTINUOUS
10
300
20
34.5
11
314
21
34.5
0
LINE
8
0
6
CONTINUOUS
10
314
20
34.5
11
314
21
48.5
0
LINE
8
0
6
CONTINUOUS
10
314
20
48.5
11
300
21
48.5
0
LINE
8
0
6
CONTINUOUS
10
300
20
48.5
11
300
21
34.5
0
LINE
8
0
6
CONTINUOUS
10
300
20
53.5
11
314
21
53.5
0
LINE
8
0
6
CONTINUOUS
10
314
20
53.5
11
314
21
67.5
0
LINE
8
0
6
CONTINUOUS
10
314
20
67.5
11
300
21
67.5
0
LINE
8
0
6
CONTINUOUS
10
300
20
67.5
11
300
21
53.5
0
LINE
8
0
6
CONTINUOUS
10
300
20
72.5
11
314
21
72.5
0
LINE
8
0
6
CONTINUOUS
10
314
20
72.5
11
314
21
86.5
0
LINE
8
0
6
CONTINUOUS
10
314
20
86.5
11
300
21
86.5
0
LINE
8
0
6
CONTINUOUS
10
300
20
86.5
11
300
21
72.5
0
LINE
8
0
6
CONTINUOUS
10
319
20
-7
11
333
21
-7
0
LINE
8
0
6
CONTINUOUS
10
333
20
-7
11
333
21
7
0
LINE
8
0
6
CONTINUOUS
10
333
20
7
11
319
21
7
0
LINE
8
0
6
CONTINUOUS
10
319
20
7
11
319
21
-7
0
LINE
8
0
6
CONTINUOUS
10
319
20
12
11
333
21
12
0
LINE
8
0
6
CONTINUOUS
10
333
20
12
11
333
21
26
0
LINE
8
0
6
CONTINUOUS
10
333
20
26
11
319
21
26
0
LINE
8
0
6
CONTINUOUS
10
319
20
26
11
319
21
12
0
LINE
8
0
6
CONTINUOUS
10
319
20
31
11
333
21
31
0
LINE
8
0
6
CONTINUOUS
10
333
20
31
11
333
21
45
0
LINE
8
0
6
CONTINUOUS
10
333
20
45
11
319
21
45
0
LINE
8
0
6
CONTINUOUS
10
319
20
45
11
319
21
31
0
LINE
8
0
6
CONTINUOUS
10
319
20
50
11
333
21
50
0
LINE
8
0
6
CONTINUOUS
10
333
20
50
11
333
21
64
0
LINE
8
0
6
CONTINUOUS
10
333
20
64
11
319
21
64
0
LINE
8
0
6
CONTINUOUS
10
319
20
64
11
319
21
50
0
LINE
8
0
6
CONTINUOUS
10
319
20
69
11
333
21
69
0
LINE
8
0
6
CONTINUOUS
10
333
20
69
11
333
21
83
0
LINE
8
0
6
CONTINUOUS
10
333
20
83
11
319
21
83
0
LINE
8
0
6
CONTINUOUS
10
319
20
83
11
319
21
69
0
LINE
8
0
6
CONTINUOUS
10
338
20
-10.5
11
352
21
-10.5
0
LINE
8
0
6
CONTINUOUS
10
352
20
-10.5
11
352
21
3.5
0
LINE
8
0
6
CONTINUOUS
10
352
20
3.5
11
338
21
3.5
0
LINE
8
0
6
CONTINUOUS
10
338
20
3.5
11
338
21
-10.5
0
LINE
8
0
6
CONTINUOUS
10
338
20
8.5
11
352
21
8.5
0
LINE
8
0
6
CONTINUOUS
10
352
20
8.5
11
352
21
22.5
0
LINE
8
0
6
CONTINUOUS
10
352
20
22.5
11
338
21
22.5
0
LINE
8
0
6
CONTINUOUS
10
338
20
22.5
11
338
21
8.5
0
LINE
8
0
6
CONTINUOUS
10
338
20
27.5
11
352
21
27.5
0
LINE
8
0
6
CONTINUOUS
10
352
20
27.5
11
352
21
41.5
0
LINE
8
0
6
CONTINUOUS
10
352
20
41.5
11
338
21
41.5
0
LINE
8
0
6
CONTINUOUS
10
338
20
41.5
11
338
21
27.5
0
LINE
8
0
6
CONTINUOUS
10
338
20
46.5
11
352
21
46.5
0
LINE
8
0
6
CONTINUOUS
10
352
20
46.5
11
352
21
60.5
0
LINE
8
0
6
CONTINUOUS
10
352
20
60.5
11
338
21
60.5
0
LINE
8
0
6
CONTINUOUS
10
338
20
60.5
11
338
21
46.5
0
LINE
8
0
6
CONTINUOUS
10
338
20
65.5
11
352
21
65.5
0
LINE
8
0
6
CONTINUOUS
10
352
20
65.5
11
352
21
79.5
0
LINE
8
0
6
CONTINUOUS
10
352
20
79.5
11
338
21
79.5
0
LINE
8
0
6
CONTINUOUS
10
338
20
79.5
11
338
21
65.5
0
LINE
8
0
6
CONTINUOUS
10
357
20
-10.5
11
371
21
-10.5
0
LINE
8
0
6
CONTINUOUS
10
371
20
-10.5
11
371
21
3.5
0
LINE
8
0
6
CONTINUOUS
10
371
20
3.5
11
357
21
3.5
0
LINE
8
0
6
CONTINUOUS
10
357
20
3.5
11
357
21
-10.5
0
LINE
8
0
6
CONTINUOUS
10
373.625
20
8.5
11
387.625
21
8.5
0
LINE
8
0
6
CONTINUOUS
10
387.625
20
8.5
11
387.625
21
22.5
0
LINE
8
0
6
CONTINUOUS
10
387.625
20
22.5
11
373.625
21
22.5
0
LINE
8
0
6
CONTINUOUS
10
373.625
20
22.5
11
373.625
21
8.5
0
LINE
8
0
6
CONTINUOUS
10
368.875
20
27.5
11
382.875
21
27.5
0
LINE
8
0
6
CONTINUOUS
10
382.875
20
27.5
11
382.875
21
41.5
0
LINE
8
0
6
CONTINUOUS
10
382.875
20
41.5
11
368.875
21
41.5
0
LINE
8
0
6
CONTINUOUS
10
368.875
20
41.5
11
368.875
21
27.5
0
LINE
8
0
6
CONTINUOUS
10
357
20
46.5
11
371
21
46.5
0
LINE
8
0
6
CONTINUOUS
10
371
20
46.5
11
371
21
60.5
0
LINE
8
0
6
CONTINUOUS
10
371
20
60.5
11
357
21
60.5
0
LINE
8
0
6
CONTINUOUS
10
357
20
60.5
11
357
21
46.5
0
LINE
8
0
6
CONTINUOUS
10
366.5
20
65.5
11
380.5
21
65.5
0
LINE
8
0
6
CONTINUOUS
10
380.5
20
65.5
11
380.5
21
79.5
0
LINE
8
0
6
CONTINUOUS
10
380.5
20
79.5
11
366.5
21
79.5
0
LINE
8
0
6
CONTINUOUS
10
366.5
20
79.5
11
366.5
21
65.5
0
LINE
8
0
6
CONTINUOUS
10
380.75
20
46.5
11
394.75
21
46.5
0
LINE
8
0
6
CONTINUOUS
10
394.75
20
46.5
11
394.75
21
60.5
0
LINE
8
0
6
CONTINUOUS
10
394.75
20
60.5
11
380.75
21
60.5
0
LINE
8
0
6
CONTINUOUS
10
380.75
20
60.5
11
380.75
21
46.5
0
LINE
8
0
6
CONTINUOUS
10
220.5267859
20
-10.2502525
11
224.1502525
21
-23.7732141
0
LINE
8
0
6
CONTINUOUS
10
224.1502525
20
-23.7732141
11
237.6732141
21
-20.1497475
0
LINE
8
0
6
CONTINUOUS
10
237.6732141
20
-20.1497475
11
234.0497475
21
-6.6267859
0
LINE
8
0
6
CONTINUOUS
10
234.0497475
20
-6.6267859
11
220.5267859
21
-10.2502525
0
LINE
8
0
6
CONTINUOUS
10
391.525
20
7.5
11
398.525
21
7.5
0
LINE
8
0
6
CONTINUOUS
10
398.525
20
7.5
11
398.525
21
21.5
0
LINE
8
0
6
CONTINUOUS
10
398.525
20
21.5
11
391.525
21
21.5
0
LINE
8
0
6
CONTINUOUS
10
391.525
20
21.5
11
391.525
21
7.5
0
LINE
8
0
6
CONTINUOUS
10
386.775
20
26.5
11
393.775
21
26.5
0
LINE
8
0
6
CONTINUOUS
10
393.775
20
26.5
11
393.775
21
40.5
0
LINE
8
0
6
CONTINUOUS
10
393.775
20
40.5
11
386.775
21
40.5
0
LINE
8
0
6
CONTINUOUS
10
386.775
20
40.5
11
386.775
21
26.5
0
LINE
8
0
6
CONTINUOUS
10
384.4
20
64.5
11
391.4
21
64.5
0
LINE
8
0
6
CONTINUOUS
10
391.4
20
64.5
11
391.4
21
78.5
0
LINE
8
0
6
CONTINUOUS
10
391.4
20
78.5
11
384.4
21
78.5
0
LINE
8
0
6
CONTINUOUS
10
384.4
20
78.5
11
384.4
21
64.5
0
LINE
8
0
6
CONTINUOUS
10
224.193721
20
-27.7991438
11
226.0054543
21
-34.5606246
0
LINE
8
0
6
CONTINUOUS
10
226.0054543
20
-34.5606246
11
239.5284158
21
-30.937158
0
LINE
8
0
6
CONTINUOUS
10
239.5284158
20
-30.937158
11
237.7166825
21
-24.1756772
0
LINE
8
0
6
CONTINUOUS
10
237.7166825
20
-24.1756772
11
224.193721
21
-27.7991438
0
LINE
8
0
6
CONTINUOUS
10
362.725
20
7.5
11
369.725
21
7.5
0
LINE
8
0
6
CONTINUOUS
10
369.725
20
7.5
11
369.725
21
21.5
0
LINE
8
0
6
CONTINUOUS
10
369.725
20
21.5
11
362.725
21
21.5
0
LINE
8
0
6
CONTINUOUS
10
362.725
20
21.5
11
362.725
21
7.5
0
LINE
8
0
6
CONTINUOUS
10
357.975
20
26.5
11
364.975
21
26.5
0
LINE
8
0
6
CONTINUOUS
10
364.975
20
26.5
11
364.975
21
40.5
0
LINE
8
0
6
CONTINUOUS
10
364.975
20
40.5
11
357.975
21
40.5
0
LINE
8
0
6
CONTINUOUS
10
357.975
20
40.5
11
357.975
21
26.5
0
LINE
8
0
6
CONTINUOUS
10
355.6
20
64.5
11
362.6
21
64.5
0
LINE
8
0
6
CONTINUOUS
10
362.6
20
64.5
11
362.6
21
78.5
0
LINE
8
0
6
CONTINUOUS
10
362.6
20
78.5
11
355.6
21
78.5
0
LINE
8
0
6
CONTINUOUS
10
355.6
20
78.5
11
355.6
21
64.5
0
LINE
8
0
6
CONTINUOUS
10
216.7397325
20
0.01952
11
218.5514658
21
-6.7419608
0
LINE
8
0
6
CONTINUOUS
10
218.5514658
20
-6.7419608
11
232.0744273
21
-3.1184942
0
LINE
8
0
6
CONTINUOUS
10
232.0744273
20
-3.1184942
11
230.262694
21
3.6429866
0
LINE
8
0
6
CONTINUOUS
10
230.262694
20
3.6429866
11
216.7397325
21
0.01952
0
LINE
8
0
6
CONTINUOUS
10
219.11
20
49.5
11
236.89
21
49.5
0
LINE
8
0
6
CONTINUOUS
10
236.89
20
49.5
11
236.89
21
82.5
0
LINE
8
0
6
CONTINUOUS
10
236.89
20
82.5
11
219.11
21
82.5
0
LINE
8
0
6
CONTINUOUS
10
219.11
20
82.5
11
219.11
21
49.5
0
ENDSEC
0
EOF