0
SECTION
2
HEADER
9
$INSUNITS
70
4
0
ENDSEC
0
SECTION
2
TABLES
0
TABLE
2
LTYPE
0
LTYPE
72
65
70
0
2
CONTINUOUS
3
______
73
0
40
0
0
LTYPE
72
65
70
0
2
DASHED
3
_ _ _ 
73
2
40
7.5
49
5
49
-2.5
0
LTYPE
72
65
70
0
2
DOTTED
3
. . . 
73
2
40
1.5
49
0.5
49
-1
0
ENDTAB
0
TABLE
2
LAYER
0
ENDTAB
0
ENDSEC
0
SECTION
2
ENTITIES
0
LINE
8
0
6
CONTINUOUS
10
-20
20
47.5
11
-11
21
47.5
0
LINE
8
0
6
CONTINUOUS
10
-20
20
66.5
11
18
21
66.5
0
LINE
8
0
6
CONTINUOUS
10
-20
20
66.5
11
-20
21
47.5
0
LINE
8
0
6
CONTINUOUS
10
-12.25
20
-9.5
11
-12.25
21
19.5
0
LINE
8
0
6
CONTINUOUS
10
-12.25
20
19.5
11
-7.75
21
19.5
0
LINE
8
0
6
CONTINUOUS
10
-7.75
20
19.5
11
-7.75
21
37.5
0
LINE
8
0
6
CONTINUOUS
10
-7.75
20
37.5
11
-11
21
37.5
0
LINE
8
0
6
CONTINUOUS
10
-11
20
37.5
11
-11
21
47.5
0
LINE
8
0
6
CONTINUOUS
10
37
20
70
11
18
21
70
0
LINE
8
0
6
CONTINUOUS
10
18
20
70
11
18
21
66.5
0
LINE
8
0
6
CONTINUOUS
10
56
20
73.5
11
37
21
73.5
0
LINE
8
0
6
CONTINUOUS
10
37
20
73.5
11
37
21
70
0
LINE
8
0
6
CONTINUOUS
10
96
20
73.5
11
96
21
77
0
LINE
8
0
6
CONTINUOUS
10
96
20
77
11
56
21
77
0
LINE
8
0
6
CONTINUOUS
10
56
20
77
11
56
21
73.5
0
LINE
8
0
6
CONTINUOUS
10
115
20
70
11
115
21
73.5
0
LINE
8
0
6
CONTINUOUS
10
115
20
73.5
11
96
21
73.5
0
LINE
8
0
6
CONTINUOUS
10
131.625
20
-6
11
132.4286006
21
-6
0
LINE
8
0
6
CONTINUOUS
10
134
20
-0.1354575
11
134
21
70
0
LINE
8
0
6
CONTINUOUS
10
134
20
70
11
115
21
70
0
LINE
8
0
6
CONTINUOUS
10
-24.75
20
-28.5
11
36.625
21
-28.5
0
LINE
8
0
6
CONTINUOUS
10
-24.75
20
-9.5
11
-12.25
21
-9.5
0
LINE
8
0
6
CONTINUOUS
10
-24.75
20
-9.5
11
-24.75
21
-28.5
0
LINE
8
0
6
CONTINUOUS
10
36.625
20
-28.5
11
36.625
21
-25
0
LINE
8
0
6
CONTINUOUS
10
36.625
20
-25
11
60.375
21
-25
0
LINE
8
0
6
CONTINUOUS
10
60.375
20
-25
11
60.375
21
-21.5
0
LINE
8
0
6
CONTINUOUS
10
60.375
20
-21.5
11
91.625
21
-21.5
0
LINE
8
0
6
CONTINUOUS
10
91.625
20
-25
11
127.3375659
21
-25
0
LINE
8
0
6
CONTINUOUS
10
131.625
20
-8.9990781
11
131.625
21
-6
0
LINE
8
0
6
CONTINUOUS
10
91.625
20
-21.5
11
91.625
21
-25
0
LINE
8
0
6
CONTINUOUS
10
142.6999144
20
-41.0772975
11
153.0526763
21
-2.4402644
0
LINE
8
0
6
CONTINUOUS
10
153.0526763
20
-2.4402644
11
134.7000856
21
2.4772975
0
LINE
8
0
6
CONTINUOUS
10
134.7000856
20
2.4772975
11
134
21
-0.1354575
0
LINE
8
0
6
CONTINUOUS
10
132.4286006
20
-6
11
131.625
21
-8.9990781
0
LINE
8
0
6
CONTINUOUS
10
127.3375659
20
-25
11
124.3473237
21
-36.1597356
0
LINE
8
0
6
CONTINUOUS
10
124.3473237
20
-36.1597356
11
142.6999144
21
-41.0772975
0
ENDSEC
0
EOF