0
SECTION
2
HEADER
9
$INSUNITS
70
4
0
ENDSEC
0
SECTION
2
TABLES
0
TABLE
2
LTYPE
0
LTYPE
72
65
70
0
2
CONTINUOUS
3
______
73
0
40
0
0
LTYPE
72
65
70
0
2
DASHED
3
_ _ _ 
73
2
40
7.5
49
5
49
-2.5
0
LTYPE
72
65
70
0
2
DOTTED
3
. . . 
73
2
40
1.5
49
0.5
49
-1
0
ENDTAB
0
TABLE
2
LAYER
0
ENDTAB
0
ENDSEC
0
SECTION
2
ENTITIES
0
LINE
8
0
6
CONTINUOUS
10
237.4078133
20
-9.5
11
270
21
-9.5
0
LINE
8
0
6
CONTINUOUS
10
270
20
-9.5
11
270
21
-6
0
LINE
8
0
6
CONTINUOUS
10
230
20
5.7466779
11
230
21
85.5
0
LINE
8
0
6
CONTINUOUS
10
249
20
85.5
11
230
21
85.5
0
LINE
8
0
6
CONTINUOUS
10
270
20
-6
11
306
21
-6
0
LINE
8
0
6
CONTINUOUS
10
268
20
89
11
249
21
89
0
LINE
8
0
6
CONTINUOUS
10
249
20
89
11
249
21
85.5
0
LINE
8
0
6
CONTINUOUS
10
308
20
89
11
308
21
92.5
0
LINE
8
0
6
CONTINUOUS
10
308
20
92.5
11
268
21
92.5
0
LINE
8
0
6
CONTINUOUS
10
268
20
92.5
11
268
21
89
0
LINE
8
0
6
CONTINUOUS
10
327
20
85.5
11
327
21
89
0
LINE
8
0
6
CONTINUOUS
10
327
20
89
11
308
21
89
0
LINE
8
0
6
CONTINUOUS
10
306
20
-9.5
11
325
21
-9.5
0
LINE
8
0
6
CONTINUOUS
10
306
20
-6
11
306
21
-9.5
0
LINE
8
0
6
CONTINUOUS
10
346
20
82
11
346
21
85.5
0
LINE
8
0
6
CONTINUOUS
10
346
20
85.5
11
327
21
85.5
0
LINE
8
0
6
CONTINUOUS
10
325
20
-13
11
384
21
-13
0
LINE
8
0
6
CONTINUOUS
10
325
20
-9.5
11
325
21
-13
0
LINE
8
0
6
CONTINUOUS
10
346
20
82
11
393
21
82
0
LINE
8
0
6
CONTINUOUS
10
384
20
-13
11
384
21
-4
0
LINE
8
0
6
CONTINUOUS
10
399.75
20
-4
11
399.75
21
35
0
LINE
8
0
6
CONTINUOUS
10
395.25
20
35
11
399.75
21
35
0
LINE
8
0
6
CONTINUOUS
10
399.75
20
-4
11
384
21
-4
0
LINE
8
0
6
CONTINUOUS
10
395.25
20
35
11
395.25
21
44
0
LINE
8
0
6
CONTINUOUS
10
393
20
73
11
394
21
73
0
LINE
8
0
6
CONTINUOUS
10
394
20
73
11
394
21
63
0
LINE
8
0
6
CONTINUOUS
10
393
20
73
11
393
21
82
0
LINE
8
0
6
CONTINUOUS
10
395.25
20
44
11
407.5
21
44
0
LINE
8
0
6
CONTINUOUS
10
407.5
20
44
11
407.5
21
63
0
LINE
8
0
6
CONTINUOUS
10
407.5
20
63
11
394
21
63
0
LINE
8
0
6
CONTINUOUS
10
214.7473237
20
1.6597356
11
225.1000856
21
-36.9772975
0
LINE
8
0
6
CONTINUOUS
10
225.1000856
20
-36.9772975
11
243.4526763
21
-32.0597356
0
LINE
8
0
6
CONTINUOUS
10
243.4526763
20
-32.0597356
11
237.4078133
21
-9.5
0
LINE
8
0
6
CONTINUOUS
10
230
20
5.7466779
11
214.7473237
21
1.6597356
0
ENDSEC
0
EOF