0
SECTION
2
HEADER
9
$INSUNITS
70
4
0
ENDSEC
0
SECTION
2
TABLES
0
TABLE
2
LTYPE
0
LTYPE
72
65
70
0
2
CONTINUOUS
3
______
73
0
40
0
0
LTYPE
72
65
70
0
2
DASHED
3
_ _ _ 
73
2
40
7.5
49
5
49
-2.5
0
LTYPE
72
65
70
0
2
DOTTED
3
. . . 
73
2
40
1.5
49
0.5
49
-1
0
ENDTAB
0
TABLE
2
LAYER
0
ENDTAB
0
ENDSEC
0
SECTION
2
ENTITIES
0
LINE
8
0
6
CONTINUOUS
10
-20
20
47.5
11
-11
21
47.5
0
LINE
8
0
6
CONTINUOUS
10
-20
20
66.5
11
18
21
66.5
0
LINE
8
0
6
CONTINUOUS
10
-20
20
66.5
11
-20
21
47.5
0
LINE
8
0
6
CONTINUOUS
10
-12.25
20
-9.5
11
-12.25
21
19.5
0
LINE
8
0
6
CONTINUOUS
10
-12.25
20
19.5
11
-7.75
21
19.5
0
LINE
8
0
6
CONTINUOUS
10
-7.75
20
19.5
11
-7.75
21
37.5
0
LINE
8
0
6
CONTINUOUS
10
-7.75
20
37.5
11
-11
21
37.5
0
LINE
8
0
6
CONTINUOUS
10
-11
20
37.5
11
-11
21
47.5
0
LINE
8
0
6
CONTINUOUS
10
37
20
70
11
18
21
70
0
LINE
8
0
6
CONTINUOUS
10
18
20
70
11
18
21
66.5
0
LINE
8
0
6
CONTINUOUS
10
56
20
73.5
11
37
21
73.5
0
LINE
8
0
6
CONTINUOUS
10
37
20
73.5
11
37
21
70
0
LINE
8
0
6
CONTINUOUS
10
96
20
73.5
11
96
21
77
0
LINE
8
0
6
CONTINUOUS
10
96
20
77
11
56
21
77
0
LINE
8
0
6
CONTINUOUS
10
56
20
77
11
56
21
73.5
0
LINE
8
0
6
CONTINUOUS
10
115
20
70
11
115
21
73.5
0
LINE
8
0
6
CONTINUOUS
10
115
20
73.5
11
96
21
73.5
0
LINE
8
0
6
CONTINUOUS
10
131.625
20
-6
11
132.4286006
21
-6
0
LINE
8
0
6
CONTINUOUS
10
134
20
-0.1354575
11
134
21
70
0
LINE
8
0
6
CONTINUOUS
10
134
20
70
11
115
21
70
0
LINE
8
0
6
CONTINUOUS
10
-24.75
20
-28.5
11
36.625
21
-28.5
0
LINE
8
0
6
CONTINUOUS
10
-24.75
20
-9.5
11
-12.25
21
-9.5
0
LINE
8
0
6
CONTINUOUS
10
-24.75
20
-9.5
11
-24.75
21
-28.5
0
LINE
8
0
6
CONTINUOUS
10
36.625
20
-28.5
11
36.625
21
-25
0
LINE
8
0
6
CONTINUOUS
10
36.625
20
-25
11
60.375
21
-25
0
LINE
8
0
6
CONTINUOUS
10
60.375
20
-25
11
60.375
21
-21.5
0
LINE
8
0
6
CONTINUOUS
10
60.375
20
-21.5
11
91.625
21
-21.5
0
LINE
8
0
6
CONTINUOUS
10
91.625
20
-25
11
127.3375659
21
-25
0
LINE
8
0
6
CONTINUOUS
10
131.625
20
-8.9990781
11
131.625
21
-6
0
LINE
8
0
6
CONTINUOUS
10
91.625
20
-21.5
11
91.625
21
-25
0
LINE
8
0
6
CONTINUOUS
10
142.6999144
20
-41.0772975
11
153.0526763
21
-2.4402644
0
LINE
8
0
6
CONTINUOUS
10
153.0526763
20
-2.4402644
11
134.7000856
21
2.4772975
0
LINE
8
0
6
CONTINUOUS
10
134.7000856
20
2.4772975
11
134
21
-0.1354575
0
LINE
8
0
6
CONTINUOUS
10
132.4286006
20
-6
11
131.625
21
-8.9990781
0
LINE
8
0
6
CONTINUOUS
10
127.3375659
20
-25
11
124.3473237
21
-36.1597356
0
LINE
8
0
6
CONTINUOUS
10
124.3473237
20
-36.1597356
11
142.6999144
21
-41.0772975
0
LINE
8
0
6
CONTINUOUS
10
-6.9
20
50.1
11
6.9
21
50.1
0
LINE
8
0
6
CONTINUOUS
10
6.9
20
50.1
11
6.9
21
63.9
0
LINE
8
0
6
CONTINUOUS
10
6.9
20
63.9
11
-6.9
21
63.9
0
LINE
8
0
6
CONTINUOUS
10
-6.9
20
63.9
11
-6.9
21
50.1
0
LINE
8
0
6
CONTINUOUS
10
0.85
20
-6.9
11
14.65
21
-6.9
0
LINE
8
0
6
CONTINUOUS
10
14.65
20
-6.9
11
14.65
21
6.9
0
LINE
8
0
6
CONTINUOUS
10
14.65
20
6.9
11
0.85
21
6.9
0
LINE
8
0
6
CONTINUOUS
10
0.85
20
6.9
11
0.85
21
-6.9
0
LINE
8
0
6
CONTINUOUS
10
5.35
20
12.1
11
19.15
21
12.1
0
LINE
8
0
6
CONTINUOUS
10
19.15
20
12.1
11
19.15
21
25.9
0
LINE
8
0
6
CONTINUOUS
10
19.15
20
25.9
11
5.35
21
25.9
0
LINE
8
0
6
CONTINUOUS
10
5.35
20
25.9
11
5.35
21
12.1
0
LINE
8
0
6
CONTINUOUS
10
7.6
20
31.1
11
21.4
21
31.1
0
LINE
8
0
6
CONTINUOUS
10
21.4
20
31.1
11
21.4
21
44.9
0
LINE
8
0
6
CONTINUOUS
10
21.4
20
44.9
11
7.6
21
44.9
0
LINE
8
0
6
CONTINUOUS
10
7.6
20
44.9
11
7.6
21
31.1
0
LINE
8
0
6
CONTINUOUS
10
12.1
20
50.1
11
25.9
21
50.1
0
LINE
8
0
6
CONTINUOUS
10
25.9
20
50.1
11
25.9
21
63.9
0
LINE
8
0
6
CONTINUOUS
10
25.9
20
63.9
11
12.1
21
63.9
0
LINE
8
0
6
CONTINUOUS
10
12.1
20
63.9
11
12.1
21
50.1
0
LINE
8
0
6
CONTINUOUS
10
31.1
20
-3.4
11
44.9
21
-3.4
0
LINE
8
0
6
CONTINUOUS
10
44.9
20
-3.4
11
44.9
21
10.4
0
LINE
8
0
6
CONTINUOUS
10
44.9
20
10.4
11
31.1
21
10.4
0
LINE
8
0
6
CONTINUOUS
10
31.1
20
10.4
11
31.1
21
-3.4
0
LINE
8
0
6
CONTINUOUS
10
31.1
20
15.6
11
44.9
21
15.6
0
LINE
8
0
6
CONTINUOUS
10
44.9
20
15.6
11
44.9
21
29.4
0
LINE
8
0
6
CONTINUOUS
10
44.9
20
29.4
11
31.1
21
29.4
0
LINE
8
0
6
CONTINUOUS
10
31.1
20
29.4
11
31.1
21
15.6
0
LINE
8
0
6
CONTINUOUS
10
31.1
20
34.6
11
44.9
21
34.6
0
LINE
8
0
6
CONTINUOUS
10
44.9
20
34.6
11
44.9
21
48.4
0
LINE
8
0
6
CONTINUOUS
10
44.9
20
48.4
11
31.1
21
48.4
0
LINE
8
0
6
CONTINUOUS
10
31.1
20
48.4
11
31.1
21
34.6
0
LINE
8
0
6
CONTINUOUS
10
31.1
20
53.6
11
44.9
21
53.6
0
LINE
8
0
6
CONTINUOUS
10
44.9
20
53.6
11
44.9
21
67.4
0
LINE
8
0
6
CONTINUOUS
10
44.9
20
67.4
11
31.1
21
67.4
0
LINE
8
0
6
CONTINUOUS
10
31.1
20
67.4
11
31.1
21
53.6
0
LINE
8
0
6
CONTINUOUS
10
50.1
20
0.1
11
63.9
21
0.1
0
LINE
8
0
6
CONTINUOUS
10
63.9
20
0.1
11
63.9
21
13.9
0
LINE
8
0
6
CONTINUOUS
10
63.9
20
13.9
11
50.1
21
13.9
0
LINE
8
0
6
CONTINUOUS
10
50.1
20
13.9
11
50.1
21
0.1
0
LINE
8
0
6
CONTINUOUS
10
50.1
20
19.1
11
63.9
21
19.1
0
LINE
8
0
6
CONTINUOUS
10
63.9
20
19.1
11
63.9
21
32.9
0
LINE
8
0
6
CONTINUOUS
10
63.9
20
32.9
11
50.1
21
32.9
0
LINE
8
0
6
CONTINUOUS
10
50.1
20
32.9
11
50.1
21
19.1
0
LINE
8
0
6
CONTINUOUS
10
50.1
20
38.1
11
63.9
21
38.1
0
LINE
8
0
6
CONTINUOUS
10
63.9
20
38.1
11
63.9
21
51.9
0
LINE
8
0
6
CONTINUOUS
10
63.9
20
51.9
11
50.1
21
51.9
0
LINE
8
0
6
CONTINUOUS
10
50.1
20
51.9
11
50.1
21
38.1
0
LINE
8
0
6
CONTINUOUS
10
50.1
20
57.1
11
63.9
21
57.1
0
LINE
8
0
6
CONTINUOUS
10
63.9
20
57.1
11
63.9
21
70.9
0
LINE
8
0
6
CONTINUOUS
10
63.9
20
70.9
11
50.1
21
70.9
0
LINE
8
0
6
CONTINUOUS
10
50.1
20
70.9
11
50.1
21
57.1
0
LINE
8
0
6
CONTINUOUS
10
69.1
20
3.6
11
82.9
21
3.6
0
LINE
8
0
6
CONTINUOUS
10
82.9
20
3.6
11
82.9
21
17.4
0
LINE
8
0
6
CONTINUOUS
10
82.9
20
17.4
11
69.1
21
17.4
0
LINE
8
0
6
CONTINUOUS
10
69.1
20
17.4
11
69.1
21
3.6
0
LINE
8
0
6
CONTINUOUS
10
69.1
20
22.6
11
82.9
21
22.6
0
LINE
8
0
6
CONTINUOUS
10
82.9
20
22.6
11
82.9
21
36.4
0
LINE
8
0
6
CONTINUOUS
10
82.9
20
36.4
11
69.1
21
36.4
0
LINE
8
0
6
CONTINUOUS
10
69.1
20
36.4
11
69.1
21
22.6
0
LINE
8
0
6
CONTINUOUS
10
69.1
20
41.6
11
82.9
21
41.6
0
LINE
8
0
6
CONTINUOUS
10
82.9
20
41.6
11
82.9
21
55.4
0
LINE
8
0
6
CONTINUOUS
10
82.9
20
55.4
11
69.1
21
55.4
0
LINE
8
0
6
CONTINUOUS
10
69.1
20
55.4
11
69.1
21
41.6
0
LINE
8
0
6
CONTINUOUS
10
69.1
20
60.6
11
82.9
21
60.6
0
LINE
8
0
6
CONTINUOUS
10
82.9
20
60.6
11
82.9
21
74.4
0
LINE
8
0
6
CONTINUOUS
10
82.9
20
74.4
11
69.1
21
74.4
0
LINE
8
0
6
CONTINUOUS
10
69.1
20
74.4
11
69.1
21
60.6
0
LINE
8
0
6
CONTINUOUS
10
88.1
20
0.1
11
101.9
21
0.1
0
LINE
8
0
6
CONTINUOUS
10
101.9
20
0.1
11
101.9
21
13.9
0
LINE
8
0
6
CONTINUOUS
10
101.9
20
13.9
11
88.1
21
13.9
0
LINE
8
0
6
CONTINUOUS
10
88.1
20
13.9
11
88.1
21
0.1
0
LINE
8
0
6
CONTINUOUS
10
88.1
20
19.1
11
101.9
21
19.1
0
LINE
8
0
6
CONTINUOUS
10
101.9
20
19.1
11
101.9
21
32.9
0
LINE
8
0
6
CONTINUOUS
10
101.9
20
32.9
11
88.1
21
32.9
0
LINE
8
0
6
CONTINUOUS
10
88.1
20
32.9
11
88.1
21
19.1
0
LINE
8
0
6
CONTINUOUS
10
88.1
20
38.1
11
101.9
21
38.1
0
LINE
8
0
6
CONTINUOUS
10
101.9
20
38.1
11
101.9
21
51.9
0
LINE
8
0
6
CONTINUOUS
10
101.9
20
51.9
11
88.1
21
51.9
0
LINE
8
0
6
CONTINUOUS
10
88.1
20
51.9
11
88.1
21
38.1
0
LINE
8
0
6
CONTINUOUS
10
88.1
20
57.1
11
101.9
21
57.1
0
LINE
8
0
6
CONTINUOUS
10
101.9
20
57.1
11
101.9
21
70.9
0
LINE
8
0
6
CONTINUOUS
10
101.9
20
70.9
11
88.1
21
70.9
0
LINE
8
0
6
CONTINUOUS
10
88.1
20
70.9
11
88.1
21
57.1
0
LINE
8
0
6
CONTINUOUS
10
107.1
20
-3.4
11
120.9
21
-3.4
0
LINE
8
0
6
CONTINUOUS
10
120.9
20
-3.4
11
120.9
21
10.4
0
LINE
8
0
6
CONTINUOUS
10
120.9
20
10.4
11
107.1
21
10.4
0
LINE
8
0
6
CONTINUOUS
10
107.1
20
10.4
11
107.1
21
-3.4
0
LINE
8
0
6
CONTINUOUS
10
107.1
20
15.6
11
120.9
21
15.6
0
LINE
8
0
6
CONTINUOUS
10
120.9
20
15.6
11
120.9
21
29.4
0
LINE
8
0
6
CONTINUOUS
10
120.9
20
29.4
11
107.1
21
29.4
0
LINE
8
0
6
CONTINUOUS
10
107.1
20
29.4
11
107.1
21
15.6
0
LINE
8
0
6
CONTINUOUS
10
107.1
20
34.6
11
120.9
21
34.6
0
LINE
8
0
6
CONTINUOUS
10
120.9
20
34.6
11
120.9
21
48.4
0
LINE
8
0
6
CONTINUOUS
10
120.9
20
48.4
11
107.1
21
48.4
0
LINE
8
0
6
CONTINUOUS
10
107.1
20
48.4
11
107.1
21
34.6
0
LINE
8
0
6
CONTINUOUS
10
107.1
20
53.6
11
120.9
21
53.6
0
LINE
8
0
6
CONTINUOUS
10
120.9
20
53.6
11
120.9
21
67.4
0
LINE
8
0
6
CONTINUOUS
10
120.9
20
67.4
11
107.1
21
67.4
0
LINE
8
0
6
CONTINUOUS
10
107.1
20
67.4
11
107.1
21
53.6
0
LINE
8
0
6
CONTINUOUS
10
-11.65
20
-25.9
11
2.15
21
-25.9
0
LINE
8
0
6
CONTINUOUS
10
2.15
20
-25.9
11
2.15
21
-12.1
0
LINE
8
0
6
CONTINUOUS
10
2.15
20
-12.1
11
-11.65
21
-12.1
0
LINE
8
0
6
CONTINUOUS
10
-11.65
20
-12.1
11
-11.65
21
-25.9
0
LINE
8
0
6
CONTINUOUS
10
9.725
20
-25.9
11
23.525
21
-25.9
0
LINE
8
0
6
CONTINUOUS
10
23.525
20
-25.9
11
23.525
21
-12.1
0
LINE
8
0
6
CONTINUOUS
10
23.525
20
-12.1
11
9.725
21
-12.1
0
LINE
8
0
6
CONTINUOUS
10
9.725
20
-12.1
11
9.725
21
-25.9
0
LINE
8
0
6
CONTINUOUS
10
33.475
20
-22.4
11
47.275
21
-22.4
0
LINE
8
0
6
CONTINUOUS
10
47.275
20
-22.4
11
47.275
21
-8.6
0
LINE
8
0
6
CONTINUOUS
10
47.275
20
-8.6
11
33.475
21
-8.6
0
LINE
8
0
6
CONTINUOUS
10
33.475
20
-8.6
11
33.475
21
-22.4
0
LINE
8
0
6
CONTINUOUS
10
57.225
20
-18.9
11
71.025
21
-18.9
0
LINE
8
0
6
CONTINUOUS
10
71.025
20
-18.9
11
71.025
21
-5.1
0
LINE
8
0
6
CONTINUOUS
10
71.025
20
-5.1
11
57.225
21
-5.1
0
LINE
8
0
6
CONTINUOUS
10
57.225
20
-5.1
11
57.225
21
-18.9
0
LINE
8
0
6
CONTINUOUS
10
80.975
20
-18.9
11
94.775
21
-18.9
0
LINE
8
0
6
CONTINUOUS
10
94.775
20
-18.9
11
94.775
21
-5.1
0
LINE
8
0
6
CONTINUOUS
10
94.775
20
-5.1
11
80.975
21
-5.1
0
LINE
8
0
6
CONTINUOUS
10
80.975
20
-5.1
11
80.975
21
-18.9
0
LINE
8
0
6
CONTINUOUS
10
104.725
20
-22.4
11
118.525
21
-22.4
0
LINE
8
0
6
CONTINUOUS
10
118.525
20
-22.4
11
118.525
21
-8.6
0
LINE
8
0
6
CONTINUOUS
10
118.525
20
-8.6
11
104.725
21
-8.6
0
LINE
8
0
6
CONTINUOUS
10
104.725
20
-8.6
11
104.725
21
-22.4
0
LINE
8
0
6
CONTINUOUS
10
143.5790368
20
-27.7507396
11
147.1507396
21
-14.4209632
0
LINE
8
0
6
CONTINUOUS
10
147.1507396
20
-14.4209632
11
133.8209632
21
-10.8492604
0
LINE
8
0
6
CONTINUOUS
10
133.8209632
20
-10.8492604
11
130.2492604
21
-24.1790368
0
LINE
8
0
6
CONTINUOUS
10
130.2492604
20
-24.1790368
11
143.5790368
21
-27.7507396
0
LINE
8
0
6
CONTINUOUS
10
20.25
20
-5.75
11
25.75
21
-5.75
0
LINE
8
0
6
CONTINUOUS
10
25.75
20
-5.75
11
25.75
21
5.75
0
LINE
8
0
6
CONTINUOUS
10
25.75
20
5.75
11
20.25
21
5.75
0
LINE
8
0
6
CONTINUOUS
10
20.25
20
5.75
11
20.25
21
-5.75
0
LINE
8
0
6
CONTINUOUS
10
147.4893115
20
-8.7141366
11
148.9128163
21
-3.4015446
0
LINE
8
0
6
CONTINUOUS
10
148.9128163
20
-3.4015446
11
137.8046693
21
-0.4251256
0
LINE
8
0
6
CONTINUOUS
10
137.8046693
20
-0.4251256
11
136.3811645
21
-5.7377176
0
LINE
8
0
6
CONTINUOUS
10
136.3811645
20
-5.7377176
11
147.4893115
21
-8.7141366
0
LINE
8
0
6
CONTINUOUS
10
-10.25
20
-5.75
11
-4.75
21
-5.75
0
LINE
8
0
6
CONTINUOUS
10
-4.75
20
-5.75
11
-4.75
21
5.75
0
LINE
8
0
6
CONTINUOUS
10
-4.75
20
5.75
11
-10.25
21
5.75
0
LINE
8
0
6
CONTINUOUS
10
-10.25
20
5.75
11
-10.25
21
-5.75
0
LINE
8
0
6
CONTINUOUS
10
139.5953307
20
-38.1748744
11
141.0188355
21
-32.8622824
0
LINE
8
0
6
CONTINUOUS
10
141.0188355
20
-32.8622824
11
129.9106885
21
-29.8858634
0
LINE
8
0
6
CONTINUOUS
10
129.9106885
20
-29.8858634
11
128.4871837
21
-35.1984554
0
LINE
8
0
6
CONTINUOUS
10
128.4871837
20
-35.1984554
11
139.5953307
21
-38.1748744
0
ENDSEC
0
EOF