0
SECTION
2
HEADER
9
$INSUNITS
70
4
0
ENDSEC
0
SECTION
2
TABLES
0
TABLE
2
LTYPE
0
LTYPE
72
65
70
0
2
CONTINUOUS
3
______
73
0
40
0
0
LTYPE
72
65
70
0
2
DASHED
3
_ _ _ 
73
2
40
7.5
49
5
49
-2.5
0
LTYPE
72
65
70
0
2
DOTTED
3
. . . 
73
2
40
1.5
49
0.5
49
-1
0
ENDTAB
0
TABLE
2
LAYER
0
ENDTAB
0
ENDSEC
0
SECTION
2
ENTITIES
0
LINE
8
0
6
CONTINUOUS
10
-20
20
47.5
11
-11
21
47.5
0
LINE
8
0
6
CONTINUOUS
10
-20
20
66.5
11
18
21
66.5
0
LINE
8
0
6
CONTINUOUS
10
-20
20
66.5
11
-20
21
47.5
0
LINE
8
0
6
CONTINUOUS
10
-12.25
20
-9.5
11
-12.25
21
19.5
0
LINE
8
0
6
CONTINUOUS
10
-12.25
20
19.5
11
-7.75
21
19.5
0
LINE
8
0
6
CONTINUOUS
10
-7.75
20
19.5
11
-7.75
21
37.5
0
LINE
8
0
6
CONTINUOUS
10
-7.75
20
37.5
11
-11
21
37.5
0
LINE
8
0
6
CONTINUOUS
10
-11
20
37.5
11
-11
21
47.5
0
LINE
8
0
6
CONTINUOUS
10
37
20
70
11
18
21
70
0
LINE
8
0
6
CONTINUOUS
10
18
20
70
11
18
21
66.5
0
LINE
8
0
6
CONTINUOUS
10
56
20
73.5
11
37
21
73.5
0
LINE
8
0
6
CONTINUOUS
10
37
20
73.5
11
37
21
70
0
LINE
8
0
6
CONTINUOUS
10
96
20
73.5
11
96
21
77
0
LINE
8
0
6
CONTINUOUS
10
96
20
77
11
56
21
77
0
LINE
8
0
6
CONTINUOUS
10
56
20
77
11
56
21
73.5
0
LINE
8
0
6
CONTINUOUS
10
115
20
70
11
115
21
73.5
0
LINE
8
0
6
CONTINUOUS
10
115
20
73.5
11
96
21
73.5
0
LINE
8
0
6
CONTINUOUS
10
131.625
20
-6
11
132.4286006
21
-6
0
LINE
8
0
6
CONTINUOUS
10
134
20
-0.1354575
11
134
21
70
0
LINE
8
0
6
CONTINUOUS
10
134
20
70
11
115
21
70
0
LINE
8
0
6
CONTINUOUS
10
-24.75
20
-28.5
11
36.625
21
-28.5
0
LINE
8
0
6
CONTINUOUS
10
-24.75
20
-9.5
11
-12.25
21
-9.5
0
LINE
8
0
6
CONTINUOUS
10
-24.75
20
-9.5
11
-24.75
21
-28.5
0
LINE
8
0
6
CONTINUOUS
10
36.625
20
-28.5
11
36.625
21
-25
0
LINE
8
0
6
CONTINUOUS
10
36.625
20
-25
11
60.375
21
-25
0
LINE
8
0
6
CONTINUOUS
10
60.375
20
-25
11
60.375
21
-21.5
0
LINE
8
0
6
CONTINUOUS
10
60.375
20
-21.5
11
91.625
21
-21.5
0
LINE
8
0
6
CONTINUOUS
10
91.625
20
-25
11
127.3375659
21
-25
0
LINE
8
0
6
CONTINUOUS
10
131.625
20
-8.9990781
11
131.625
21
-6
0
LINE
8
0
6
CONTINUOUS
10
91.625
20
-21.5
11
91.625
21
-25
0
LINE
8
0
6
CONTINUOUS
10
142.6999144
20
-41.0772975
11
153.0526763
21
-2.4402644
0
LINE
8
0
6
CONTINUOUS
10
153.0526763
20
-2.4402644
11
134.7000856
21
2.4772975
0
LINE
8
0
6
CONTINUOUS
10
134.7000856
20
2.4772975
11
134
21
-0.1354575
0
LINE
8
0
6
CONTINUOUS
10
132.4286006
20
-6
11
131.625
21
-8.9990781
0
LINE
8
0
6
CONTINUOUS
10
127.3375659
20
-25
11
124.3473237
21
-36.1597356
0
LINE
8
0
6
CONTINUOUS
10
124.3473237
20
-36.1597356
11
142.6999144
21
-41.0772975
0
LINE
8
0
6
CONTINUOUS
10
-6.9
20
50.1
11
6.9
21
50.1
0
LINE
8
0
6
CONTINUOUS
10
6.9
20
50.1
11
6.9
21
63.9
0
LINE
8
0
6
CONTINUOUS
10
6.9
20
63.9
11
-6.9
21
63.9
0
LINE
8
0
6
CONTINUOUS
10
-6.9
20
63.9
11
-6.9
21
50.1
0
LINE
8
0
6
CONTINUOUS
10
0.85
20
-6.9
11
14.65
21
-6.9
0
LINE
8
0
6
CONTINUOUS
10
14.65
20
-6.9
11
14.65
21
6.9
0
LINE
8
0
6
CONTINUOUS
10
14.65
20
6.9
11
0.85
21
6.9
0
LINE
8
0
6
CONTINUOUS
10
0.85
20
6.9
11
0.85
21
-6.9
0
LINE
8
0
6
CONTINUOUS
10
5.35
20
12.1
11
19.15
21
12.1
0
LINE
8
0
6
CONTINUOUS
10
19.15
20
12.1
11
19.15
21
25.9
0
LINE
8
0
6
CONTINUOUS
10
19.15
20
25.9
11
5.35
21
25.9
0
LINE
8
0
6
CONTINUOUS
10
5.35
20
25.9
11
5.35
21
12.1
0
LINE
8
0
6
CONTINUOUS
10
7.6
20
31.1
11
21.4
21
31.1
0
LINE
8
0
6
CONTINUOUS
10
21.4
20
31.1
11
21.4
21
44.9
0
LINE
8
0
6
CONTINUOUS
10
21.4
20
44.9
11
7.6
21
44.9
0
LINE
8
0
6
CONTINUOUS
10
7.6
20
44.9
11
7.6
21
31.1
0
LINE
8
0
6
CONTINUOUS
10
12.1
20
50.1
11
25.9
21
50.1
0
LINE
8
0
6
CONTINUOUS
10
25.9
20
50.1
11
25.9
21
63.9
0
LINE
8
0
6
CONTINUOUS
10
25.9
20
63.9
11
12.1
21
63.9
0
LINE
8
0
6
CONTINUOUS
10
12.1
20
63.9
11
12.1
21
50.1
0
LINE
8
0
6
CONTINUOUS
10
31.1
20
-3.4
11
44.9
21
-3.4
0
LINE
8
0
6
CONTINUOUS
10
44.9
20
-3.4
11
44.9
21
10.4
0
LINE
8
0
6
CONTINUOUS
10
44.9
20
10.4
11
31.1
21
10.4
0
LINE
8
0
6
CONTINUOUS
10
31.1
20
10.4
11
31.1
21
-3.4
0
LINE
8
0
6
CONTINUOUS
10
31.1
20
15.6
11
44.9
21
15.6
0
LINE
8
0
6
CONTINUOUS
10
44.9
20
15.6
11
44.9
21
29.4
0
LINE
8
0
6
CONTINUOUS
10
44.9
20
29.4
11
31.1
21
29.4
0
LINE
8
0
6
CONTINUOUS
10
31.1
20
29.4
11
31.1
21
15.6
0
LINE
8
0
6
CONTINUOUS
10
31.1
20
34.6
11
44.9
21
34.6
0
LINE
8
0
6
CONTINUOUS
10
44.9
20
34.6
11
44.9
21
48.4
0
LINE
8
0
6
CONTINUOUS
10
44.9
20
48.4
11
31.1
21
48.4
0
LINE
8
0
6
CONTINUOUS
10
31.1
20
48.4
11
31.1
21
34.6
0
LINE
8
0
6
CONTINUOUS
10
31.1
20
53.6
11
44.9
21
53.6
0
LINE
8
0
6
CONTINUOUS
10
44.9
20
53.6
11
44.9
21
67.4
0
LINE
8
0
6
CONTINUOUS
10
44.9
20
67.4
11
31.1
21
67.4
0
LINE
8
0
6
CONTINUOUS
10
31.1
20
67.4
11
31.1
21
53.6
0
LINE
8
0
6
CONTINUOUS
10
50.1
20
0.1
11
63.9
21
0.1
0
LINE
8
0
6
CONTINUOUS
10
63.9
20
0.1
11
63.9
21
13.9
0
LINE
8
0
6
CONTINUOUS
10
63.9
20
13.9
11
50.1
21
13.9
0
LINE
8
0
6
CONTINUOUS
10
50.1
20
13.9
11
50.1
21
0.1
0
LINE
8
0
6
CONTINUOUS
10
50.1
20
19.1
11
63.9
21
19.1
0
LINE
8
0
6
CONTINUOUS
10
63.9
20
19.1
11
63.9
21
32.9
0
LINE
8
0
6
CONTINUOUS
10
63.9
20
32.9
11
50.1
21
32.9
0
LINE
8
0
6
CONTINUOUS
10
50.1
20
32.9
11
50.1
21
19.1
0
LINE
8
0
6
CONTINUOUS
10
50.1
20
38.1
11
63.9
21
38.1
0
LINE
8
0
6
CONTINUOUS
10
63.9
20
38.1
11
63.9
21
51.9
0
LINE
8
0
6
CONTINUOUS
10
63.9
20
51.9
11
50.1
21
51.9
0
LINE
8
0
6
CONTINUOUS
10
50.1
20
51.9
11
50.1
21
38.1
0
LINE
8
0
6
CONTINUOUS
10
50.1
20
57.1
11
63.9
21
57.1
0
LINE
8
0
6
CONTINUOUS
10
63.9
20
57.1
11
63.9
21
70.9
0
LINE
8
0
6
CONTINUOUS
10
63.9
20
70.9
11
50.1
21
70.9
0
LINE
8
0
6
CONTINUOUS
10
50.1
20
70.9
11
50.1
21
57.1
0
LINE
8
0
6
CONTINUOUS
10
69.1
20
3.6
11
82.9
21
3.6
0
LINE
8
0
6
CONTINUOUS
10
82.9
20
3.6
11
82.9
21
17.4
0
LINE
8
0
6
CONTINUOUS
10
82.9
20
17.4
11
69.1
21
17.4
0
LINE
8
0
6
CONTINUOUS
10
69.1
20
17.4
11
69.1
21
3.6
0
LINE
8
0
6
CONTINUOUS
10
69.1
20
22.6
11
82.9
21
22.6
0
LINE
8
0
6
CONTINUOUS
10
82.9
20
22.6
11
82.9
21
36.4
0
LINE
8
0
6
CONTINUOUS
10
82.9
20
36.4
11
69.1
21
36.4
0
LINE
8
0
6
CONTINUOUS
10
69.1
20
36.4
11
69.1
21
22.6
0
LINE
8
0
6
CONTINUOUS
10
69.1
20
41.6
11
82.9
21
41.6
0
LINE
8
0
6
CONTINUOUS
10
82.9
20
41.6
11
82.9
21
55.4
0
LINE
8
0
6
CONTINUOUS
10
82.9
20
55.4
11
69.1
21
55.4
0
LINE
8
0
6
CONTINUOUS
10
69.1
20
55.4
11
69.1
21
41.6
0
LINE
8
0
6
CONTINUOUS
10
69.1
20
60.6
11
82.9
21
60.6
0
LINE
8
0
6
CONTINUOUS
10
82.9
20
60.6
11
82.9
21
74.4
0
LINE
8
0
6
CONTINUOUS
10
82.9
20
74.4
11
69.1
21
74.4
0
LINE
8
0
6
CONTINUOUS
10
69.1
20
74.4
11
69.1
21
60.6
0
LINE
8
0
6
CONTINUOUS
10
88.1
20
0.1
11
101.9
21
0.1
0
LINE
8
0
6
CONTINUOUS
10
101.9
20
0.1
11
101.9
21
13.9
0
LINE
8
0
6
CONTINUOUS
10
101.9
20
13.9
11
88.1
21
13.9
0
LINE
8
0
6
CONTINUOUS
10
88.1
20
13.9
11
88.1
21
0.1
0
LINE
8
0
6
CONTINUOUS
10
88.1
20
19.1
11
101.9
21
19.1
0
LINE
8
0
6
CONTINUOUS
10
101.9
20
19.1
11
101.9
21
32.9
0
LINE
8
0
6
CONTINUOUS
10
101.9
20
32.9
11
88.1
21
32.9
0
LINE
8
0
6
CONTINUOUS
10
88.1
20
32.9
11
88.1
21
19.1
0
LINE
8
0
6
CONTINUOUS
10
88.1
20
38.1
11
101.9
21
38.1
0
LINE
8
0
6
CONTINUOUS
10
101.9
20
38.1
11
101.9
21
51.9
0
LINE
8
0
6
CONTINUOUS
10
101.9
20
51.9
11
88.1
21
51.9
0
LINE
8
0
6
CONTINUOUS
10
88.1
20
51.9
11
88.1
21
38.1
0
LINE
8
0
6
CONTINUOUS
10
88.1
20
57.1
11
101.9
21
57.1
0
LINE
8
0
6
CONTINUOUS
10
101.9
20
57.1
11
101.9
21
70.9
0
LINE
8
0
6
CONTINUOUS
10
101.9
20
70.9
11
88.1
21
70.9
0
LINE
8
0
6
CONTINUOUS
10
88.1
20
70.9
11
88.1
21
57.1
0
LINE
8
0
6
CONTINUOUS
10
107.1
20
-3.4
11
120.9
21
-3.4
0
LINE
8
0
6
CONTINUOUS
10
120.9
20
-3.4
11
120.9
21
10.4
0
LINE
8
0
6
CONTINUOUS
10
120.9
20
10.4
11
107.1
21
10.4
0
LINE
8
0
6
CONTINUOUS
10
107.1
20
10.4
11
107.1
21
-3.4
0
LINE
8
0
6
CONTINUOUS
10
107.1
20
15.6
11
120.9
21
15.6
0
LINE
8
0
6
CONTINUOUS
10
120.9
20
15.6
11
120.9
21
29.4
0
LINE
8
0
6
CONTINUOUS
10
120.9
20
29.4
11
107.1
21
29.4
0
LINE
8
0
6
CONTINUOUS
10
107.1
20
29.4
11
107.1
21
15.6
0
LINE
8
0
6
CONTINUOUS
10
107.1
20
34.6
11
120.9
21
34.6
0
LINE
8
0
6
CONTINUOUS
10
120.9
20
34.6
11
120.9
21
48.4
0
LINE
8
0
6
CONTINUOUS
10
120.9
20
48.4
11
107.1
21
48.4
0
LINE
8
0
6
CONTINUOUS
10
107.1
20
48.4
11
107.1
21
34.6
0
LINE
8
0
6
CONTINUOUS
10
107.1
20
53.6
11
120.9
21
53.6
0
LINE
8
0
6
CONTINUOUS
10
120.9
20
53.6
11
120.9
21
67.4
0
LINE
8
0
6
CONTINUOUS
10
120.9
20
67.4
11
107.1
21
67.4
0
LINE
8
0
6
CONTINUOUS
10
107.1
20
67.4
11
107.1
21
53.6
0
LINE
8
0
6
CONTINUOUS
10
-11.65
20
-25.9
11
2.15
21
-25.9
0
LINE
8
0
6
CONTINUOUS
10
2.15
20
-25.9
11
2.15
21
-12.1
0
LINE
8
0
6
CONTINUOUS
10
2.15
20
-12.1
11
-11.65
21
-12.1
0
LINE
8
0
6
CONTINUOUS
10
-11.65
20
-12.1
11
-11.65
21
-25.9
0
LINE
8
0
6
CONTINUOUS
10
9.725
20
-25.9
11
23.525
21
-25.9
0
LINE
8
0
6
CONTINUOUS
10
23.525
20
-25.9
11
23.525
21
-12.1
0
LINE
8
0
6
CONTINUOUS
10
23.525
20
-12.1
11
9.725
21
-12.1
0
LINE
8
0
6
CONTINUOUS
10
9.725
20
-12.1
11
9.725
21
-25.9
0
LINE
8
0
6
CONTINUOUS
10
33.475
20
-22.4
11
47.275
21
-22.4
0
LINE
8
0
6
CONTINUOUS
10
47.275
20
-22.4
11
47.275
21
-8.6
0
LINE
8
0
6
CONTINUOUS
10
47.275
20
-8.6
11
33.475
21
-8.6
0
LINE
8
0
6
CONTINUOUS
10
33.475
20
-8.6
11
33.475
21
-22.4
0
LINE
8
0
6
CONTINUOUS
10
57.225
20
-18.9
11
71.025
21
-18.9
0
LINE
8
0
6
CONTINUOUS
10
71.025
20
-18.9
11
71.025
21
-5.1
0
LINE
8
0
6
CONTINUOUS
10
71.025
20
-5.1
11
57.225
21
-5.1
0
LINE
8
0
6
CONTINUOUS
10
57.225
20
-5.1
11
57.225
21
-18.9
0
LINE
8
0
6
CONTINUOUS
10
80.975
20
-18.9
11
94.775
21
-18.9
0
LINE
8
0
6
CONTINUOUS
10
94.775
20
-18.9
11
94.775
21
-5.1
0
LINE
8
0
6
CONTINUOUS
10
94.775
20
-5.1
11
80.975
21
-5.1
0
LINE
8
0
6
CONTINUOUS
10
80.975
20
-5.1
11
80.975
21
-18.9
0
LINE
8
0
6
CONTINUOUS
10
104.725
20
-22.4
11
118.525
21
-22.4
0
LINE
8
0
6
CONTINUOUS
10
118.525
20
-22.4
11
118.525
21
-8.6
0
LINE
8
0
6
CONTINUOUS
10
118.525
20
-8.6
11
104.725
21
-8.6
0
LINE
8
0
6
CONTINUOUS
10
104.725
20
-8.6
11
104.725
21
-22.4
0
LINE
8
0
6
CONTINUOUS
10
143.5790368
20
-27.7507396
11
147.1507396
21
-14.4209632
0
LINE
8
0
6
CONTINUOUS
10
147.1507396
20
-14.4209632
11
133.8209632
21
-10.8492604
0
LINE
8
0
6
CONTINUOUS
10
133.8209632
20
-10.8492604
11
130.2492604
21
-24.1790368
0
LINE
8
0
6
CONTINUOUS
10
130.2492604
20
-24.1790368
11
143.5790368
21
-27.7507396
0
LINE
8
0
6
CONTINUOUS
10
20.25
20
-5.75
11
25.75
21
-5.75
0
LINE
8
0
6
CONTINUOUS
10
25.75
20
-5.75
11
25.75
21
5.75
0
LINE
8
0
6
CONTINUOUS
10
25.75
20
5.75
11
20.25
21
5.75
0
LINE
8
0
6
CONTINUOUS
10
20.25
20
5.75
11
20.25
21
-5.75
0
LINE
8
0
6
CONTINUOUS
10
147.4893115
20
-8.7141366
11
148.9128163
21
-3.4015446
0
LINE
8
0
6
CONTINUOUS
10
148.9128163
20
-3.4015446
11
137.8046693
21
-0.4251256
0
LINE
8
0
6
CONTINUOUS
10
137.8046693
20
-0.4251256
11
136.3811645
21
-5.7377176
0
LINE
8
0
6
CONTINUOUS
10
136.3811645
20
-5.7377176
11
147.4893115
21
-8.7141366
0
LINE
8
0
6
CONTINUOUS
10
-10.25
20
-5.75
11
-4.75
21
-5.75
0
LINE
8
0
6
CONTINUOUS
10
-4.75
20
-5.75
11
-4.75
21
5.75
0
LINE
8
0
6
CONTINUOUS
10
-4.75
20
5.75
11
-10.25
21
5.75
0
LINE
8
0
6
CONTINUOUS
10
-10.25
20
5.75
11
-10.25
21
-5.75
0
LINE
8
0
6
CONTINUOUS
10
139.5953307
20
-38.1748744
11
141.0188355
21
-32.8622824
0
LINE
8
0
6
CONTINUOUS
10
141.0188355
20
-32.8622824
11
129.9106885
21
-29.8858634
0
LINE
8
0
6
CONTINUOUS
10
129.9106885
20
-29.8858634
11
128.4871837
21
-35.1984554
0
LINE
8
0
6
CONTINUOUS
10
128.4871837
20
-35.1984554
11
139.5953307
21
-38.1748744
0
LINE
8
0
6
CONTINUOUS
10
237.4078133
20
-9.5
11
270
21
-9.5
0
LINE
8
0
6
CONTINUOUS
10
270
20
-9.5
11
270
21
-6
0
LINE
8
0
6
CONTINUOUS
10
230
20
5.7466779
11
230
21
85.5
0
LINE
8
0
6
CONTINUOUS
10
249
20
85.5
11
230
21
85.5
0
LINE
8
0
6
CONTINUOUS
10
270
20
-6
11
306
21
-6
0
LINE
8
0
6
CONTINUOUS
10
268
20
89
11
249
21
89
0
LINE
8
0
6
CONTINUOUS
10
249
20
89
11
249
21
85.5
0
LINE
8
0
6
CONTINUOUS
10
308
20
89
11
308
21
92.5
0
LINE
8
0
6
CONTINUOUS
10
308
20
92.5
11
268
21
92.5
0
LINE
8
0
6
CONTINUOUS
10
268
20
92.5
11
268
21
89
0
LINE
8
0
6
CONTINUOUS
10
327
20
85.5
11
327
21
89
0
LINE
8
0
6
CONTINUOUS
10
327
20
89
11
308
21
89
0
LINE
8
0
6
CONTINUOUS
10
306
20
-9.5
11
325
21
-9.5
0
LINE
8
0
6
CONTINUOUS
10
306
20
-6
11
306
21
-9.5
0
LINE
8
0
6
CONTINUOUS
10
346
20
82
11
346
21
85.5
0
LINE
8
0
6
CONTINUOUS
10
346
20
85.5
11
327
21
85.5
0
LINE
8
0
6
CONTINUOUS
10
325
20
-13
11
384
21
-13
0
LINE
8
0
6
CONTINUOUS
10
325
20
-9.5
11
325
21
-13
0
LINE
8
0
6
CONTINUOUS
10
346
20
82
11
393
21
82
0
LINE
8
0
6
CONTINUOUS
10
384
20
-13
11
384
21
-4
0
LINE
8
0
6
CONTINUOUS
10
399.75
20
-4
11
399.75
21
35
0
LINE
8
0
6
CONTINUOUS
10
395.25
20
35
11
399.75
21
35
0
LINE
8
0
6
CONTINUOUS
10
399.75
20
-4
11
384
21
-4
0
LINE
8
0
6
CONTINUOUS
10
395.25
20
35
11
395.25
21
44
0
LINE
8
0
6
CONTINUOUS
10
393
20
73
11
394
21
73
0
LINE
8
0
6
CONTINUOUS
10
394
20
73
11
394
21
63
0
LINE
8
0
6
CONTINUOUS
10
393
20
73
11
393
21
82
0
LINE
8
0
6
CONTINUOUS
10
395.25
20
44
11
407.5
21
44
0
LINE
8
0
6
CONTINUOUS
10
407.5
20
44
11
407.5
21
63
0
LINE
8
0
6
CONTINUOUS
10
407.5
20
63
11
394
21
63
0
LINE
8
0
6
CONTINUOUS
10
214.7473237
20
1.6597356
11
225.1000856
21
-36.9772975
0
LINE
8
0
6
CONTINUOUS
10
225.1000856
20
-36.9772975
11
243.4526763
21
-32.0597356
0
LINE
8
0
6
CONTINUOUS
10
243.4526763
20
-32.0597356
11
237.4078133
21
-9.5
0
LINE
8
0
6
CONTINUOUS
10
230
20
5.7466779
11
214.7473237
21
1.6597356
0
LINE
8
0
6
CONTINUOUS
10
243.1
20
-6.9
11
256.9
21
-6.9
0
LINE
8
0
6
CONTINUOUS
10
256.9
20
-6.9
11
256.9
21
6.9
0
LINE
8
0
6
CONTINUOUS
10
256.9
20
6.9
11
243.1
21
6.9
0
LINE
8
0
6
CONTINUOUS
10
243.1
20
6.9
11
243.1
21
-6.9
0
LINE
8
0
6
CONTINUOUS
10
243.1
20
12.1
11
256.9
21
12.1
0
LINE
8
0
6
CONTINUOUS
10
256.9
20
12.1
11
256.9
21
25.9
0
LINE
8
0
6
CONTINUOUS
10
256.9
20
25.9
11
243.1
21
25.9
0
LINE
8
0
6
CONTINUOUS
10
243.1
20
25.9
11
243.1
21
12.1
0
LINE
8
0
6
CONTINUOUS
10
243.1
20
31.1
11
256.9
21
31.1
0
LINE
8
0
6
CONTINUOUS
10
256.9
20
31.1
11
256.9
21
44.9
0
LINE
8
0
6
CONTINUOUS
10
256.9
20
44.9
11
243.1
21
44.9
0
LINE
8
0
6
CONTINUOUS
10
243.1
20
44.9
11
243.1
21
31.1
0
LINE
8
0
6
CONTINUOUS
10
243.1
20
50.1
11
256.9
21
50.1
0
LINE
8
0
6
CONTINUOUS
10
256.9
20
50.1
11
256.9
21
63.9
0
LINE
8
0
6
CONTINUOUS
10
256.9
20
63.9
11
243.1
21
63.9
0
LINE
8
0
6
CONTINUOUS
10
243.1
20
63.9
11
243.1
21
50.1
0
LINE
8
0
6
CONTINUOUS
10
243.1
20
69.1
11
256.9
21
69.1
0
LINE
8
0
6
CONTINUOUS
10
256.9
20
69.1
11
256.9
21
82.9
0
LINE
8
0
6
CONTINUOUS
10
256.9
20
82.9
11
243.1
21
82.9
0
LINE
8
0
6
CONTINUOUS
10
243.1
20
82.9
11
243.1
21
69.1
0
LINE
8
0
6
CONTINUOUS
10
262.1
20
-3.4
11
275.9
21
-3.4
0
LINE
8
0
6
CONTINUOUS
10
275.9
20
-3.4
11
275.9
21
10.4
0
LINE
8
0
6
CONTINUOUS
10
275.9
20
10.4
11
262.1
21
10.4
0
LINE
8
0
6
CONTINUOUS
10
262.1
20
10.4
11
262.1
21
-3.4
0
LINE
8
0
6
CONTINUOUS
10
262.1
20
15.6
11
275.9
21
15.6
0
LINE
8
0
6
CONTINUOUS
10
275.9
20
15.6
11
275.9
21
29.4
0
LINE
8
0
6
CONTINUOUS
10
275.9
20
29.4
11
262.1
21
29.4
0
LINE
8
0
6
CONTINUOUS
10
262.1
20
29.4
11
262.1
21
15.6
0
LINE
8
0
6
CONTINUOUS
10
262.1
20
34.6
11
275.9
21
34.6
0
LINE
8
0
6
CONTINUOUS
10
275.9
20
34.6
11
275.9
21
48.4
0
LINE
8
0
6
CONTINUOUS
10
275.9
20
48.4
11
262.1
21
48.4
0
LINE
8
0
6
CONTINUOUS
10
262.1
20
48.4
11
262.1
21
34.6
0
LINE
8
0
6
CONTINUOUS
10
262.1
20
53.6
11
275.9
21
53.6
0
LINE
8
0
6
CONTINUOUS
10
275.9
20
53.6
11
275.9
21
67.4
0
LINE
8
0
6
CONTINUOUS
10
275.9
20
67.4
11
262.1
21
67.4
0
LINE
8
0
6
CONTINUOUS
10
262.1
20
67.4
11
262.1
21
53.6
0
LINE
8
0
6
CONTINUOUS
10
262.1
20
72.6
11
275.9
21
72.6
0
LINE
8
0
6
CONTINUOUS
10
275.9
20
72.6
11
275.9
21
86.4
0
LINE
8
0
6
CONTINUOUS
10
275.9
20
86.4
11
262.1
21
86.4
0
LINE
8
0
6
CONTINUOUS
10
262.1
20
86.4
11
262.1
21
72.6
0
LINE
8
0
6
CONTINUOUS
10
281.1
20
0.1
11
294.9
21
0.1
0
LINE
8
0
6
CONTINUOUS
10
294.9
20
0.1
11
294.9
21
13.9
0
LINE
8
0
6
CONTINUOUS
10
294.9
20
13.9
11
281.1
21
13.9
0
LINE
8
0
6
CONTINUOUS
10
281.1
20
13.9
11
281.1
21
0.1
0
LINE
8
0
6
CONTINUOUS
10
281.1
20
19.1
11
294.9
21
19.1
0
LINE
8
0
6
CONTINUOUS
10
294.9
20
19.1
11
294.9
21
32.9
0
LINE
8
0
6
CONTINUOUS
10
294.9
20
32.9
11
281.1
21
32.9
0
LINE
8
0
6
CONTINUOUS
10
281.1
20
32.9
11
281.1
21
19.1
0
LINE
8
0
6
CONTINUOUS
10
281.1
20
38.1
11
294.9
21
38.1
0
LINE
8
0
6
CONTINUOUS
10
294.9
20
38.1
11
294.9
21
51.9
0
LINE
8
0
6
CONTINUOUS
10
294.9
20
51.9
11
281.1
21
51.9
0
LINE
8
0
6
CONTINUOUS
10
281.1
20
51.9
11
281.1
21
38.1
0
LINE
8
0
6
CONTINUOUS
10
281.1
20
57.1
11
294.9
21
57.1
0
LINE
8
0
6
CONTINUOUS
10
294.9
20
57.1
11
294.9
21
70.9
0
LINE
8
0
6
CONTINUOUS
10
294.9
20
70.9
11
281.1
21
70.9
0
LINE
8
0
6
CONTINUOUS
10
281.1
20
70.9
11
281.1
21
57.1
0
LINE
8
0
6
CONTINUOUS
10
281.1
20
76.1
11
294.9
21
76.1
0
LINE
8
0
6
CONTINUOUS
10
294.9
20
76.1
11
294.9
21
89.9
0
LINE
8
0
6
CONTINUOUS
10
294.9
20
89.9
11
281.1
21
89.9
0
LINE
8
0
6
CONTINUOUS
10
281.1
20
89.9
11
281.1
21
76.1
0
LINE
8
0
6
CONTINUOUS
10
300.1
20
-3.4
11
313.9
21
-3.4
0
LINE
8
0
6
CONTINUOUS
10
313.9
20
-3.4
11
313.9
21
10.4
0
LINE
8
0
6
CONTINUOUS
10
313.9
20
10.4
11
300.1
21
10.4
0
LINE
8
0
6
CONTINUOUS
10
300.1
20
10.4
11
300.1
21
-3.4
0
LINE
8
0
6
CONTINUOUS
10
300.1
20
15.6
11
313.9
21
15.6
0
LINE
8
0
6
CONTINUOUS
10
313.9
20
15.6
11
313.9
21
29.4
0
LINE
8
0
6
CONTINUOUS
10
313.9
20
29.4
11
300.1
21
29.4
0
LINE
8
0
6
CONTINUOUS
10
300.1
20
29.4
11
300.1
21
15.6
0
LINE
8
0
6
CONTINUOUS
10
300.1
20
34.6
11
313.9
21
34.6
0
LINE
8
0
6
CONTINUOUS
10
313.9
20
34.6
11
313.9
21
48.4
0
LINE
8
0
6
CONTINUOUS
10
313.9
20
48.4
11
300.1
21
48.4
0
LINE
8
0
6
CONTINUOUS
10
300.1
20
48.4
11
300.1
21
34.6
0
LINE
8
0
6
CONTINUOUS
10
300.1
20
53.6
11
313.9
21
53.6
0
LINE
8
0
6
CONTINUOUS
10
313.9
20
53.6
11
313.9
21
67.4
0
LINE
8
0
6
CONTINUOUS
10
313.9
20
67.4
11
300.1
21
67.4
0
LINE
8
0
6
CONTINUOUS
10
300.1
20
67.4
11
300.1
21
53.6
0
LINE
8
0
6
CONTINUOUS
10
300.1
20
72.6
11
313.9
21
72.6
0
LINE
8
0
6
CONTINUOUS
10
313.9
20
72.6
11
313.9
21
86.4
0
LINE
8
0
6
CONTINUOUS
10
313.9
20
86.4
11
300.1
21
86.4
0
LINE
8
0
6
CONTINUOUS
10
300.1
20
86.4
11
300.1
21
72.6
0
LINE
8
0
6
CONTINUOUS
10
319.1
20
-6.9
11
332.9
21
-6.9
0
LINE
8
0
6
CONTINUOUS
10
332.9
20
-6.9
11
332.9
21
6.9
0
LINE
8
0
6
CONTINUOUS
10
332.9
20
6.9
11
319.1
21
6.9
0
LINE
8
0
6
CONTINUOUS
10
319.1
20
6.9
11
319.1
21
-6.9
0
LINE
8
0
6
CONTINUOUS
10
319.1
20
12.1
11
332.9
21
12.1
0
LINE
8
0
6
CONTINUOUS
10
332.9
20
12.1
11
332.9
21
25.9
0
LINE
8
0
6
CONTINUOUS
10
332.9
20
25.9
11
319.1
21
25.9
0
LINE
8
0
6
CONTINUOUS
10
319.1
20
25.9
11
319.1
21
12.1
0
LINE
8
0
6
CONTINUOUS
10
319.1
20
31.1
11
332.9
21
31.1
0
LINE
8
0
6
CONTINUOUS
10
332.9
20
31.1
11
332.9
21
44.9
0
LINE
8
0
6
CONTINUOUS
10
332.9
20
44.9
11
319.1
21
44.9
0
LINE
8
0
6
CONTINUOUS
10
319.1
20
44.9
11
319.1
21
31.1
0
LINE
8
0
6
CONTINUOUS
10
319.1
20
50.1
11
332.9
21
50.1
0
LINE
8
0
6
CONTINUOUS
10
332.9
20
50.1
11
332.9
21
63.9
0
LINE
8
0
6
CONTINUOUS
10
332.9
20
63.9
11
319.1
21
63.9
0
LINE
8
0
6
CONTINUOUS
10
319.1
20
63.9
11
319.1
21
50.1
0
LINE
8
0
6
CONTINUOUS
10
319.1
20
69.1
11
332.9
21
69.1
0
LINE
8
0
6
CONTINUOUS
10
332.9
20
69.1
11
332.9
21
82.9
0
LINE
8
0
6
CONTINUOUS
10
332.9
20
82.9
11
319.1
21
82.9
0
LINE
8
0
6
CONTINUOUS
10
319.1
20
82.9
11
319.1
21
69.1
0
LINE
8
0
6
CONTINUOUS
10
338.1
20
-10.4
11
351.9
21
-10.4
0
LINE
8
0
6
CONTINUOUS
10
351.9
20
-10.4
11
351.9
21
3.4
0
LINE
8
0
6
CONTINUOUS
10
351.9
20
3.4
11
338.1
21
3.4
0
LINE
8
0
6
CONTINUOUS
10
338.1
20
3.4
11
338.1
21
-10.4
0
LINE
8
0
6
CONTINUOUS
10
338.1
20
8.6
11
351.9
21
8.6
0
LINE
8
0
6
CONTINUOUS
10
351.9
20
8.6
11
351.9
21
22.4
0
LINE
8
0
6
CONTINUOUS
10
351.9
20
22.4
11
338.1
21
22.4
0
LINE
8
0
6
CONTINUOUS
10
338.1
20
22.4
11
338.1
21
8.6
0
LINE
8
0
6
CONTINUOUS
10
338.1
20
27.6
11
351.9
21
27.6
0
LINE
8
0
6
CONTINUOUS
10
351.9
20
27.6
11
351.9
21
41.4
0
LINE
8
0
6
CONTINUOUS
10
351.9
20
41.4
11
338.1
21
41.4
0
LINE
8
0
6
CONTINUOUS
10
338.1
20
41.4
11
338.1
21
27.6
0
LINE
8
0
6
CONTINUOUS
10
338.1
20
46.6
11
351.9
21
46.6
0
LINE
8
0
6
CONTINUOUS
10
351.9
20
46.6
11
351.9
21
60.4
0
LINE
8
0
6
CONTINUOUS
10
351.9
20
60.4
11
338.1
21
60.4
0
LINE
8
0
6
CONTINUOUS
10
338.1
20
60.4
11
338.1
21
46.6
0
LINE
8
0
6
CONTINUOUS
10
338.1
20
65.6
11
351.9
21
65.6
0
LINE
8
0
6
CONTINUOUS
10
351.9
20
65.6
11
351.9
21
79.4
0
LINE
8
0
6
CONTINUOUS
10
351.9
20
79.4
11
338.1
21
79.4
0
LINE
8
0
6
CONTINUOUS
10
338.1
20
79.4
11
338.1
21
65.6
0
LINE
8
0
6
CONTINUOUS
10
357.1
20
-10.4
11
370.9
21
-10.4
0
LINE
8
0
6
CONTINUOUS
10
370.9
20
-10.4
11
370.9
21
3.4
0
LINE
8
0
6
CONTINUOUS
10
370.9
20
3.4
11
357.1
21
3.4
0
LINE
8
0
6
CONTINUOUS
10
357.1
20
3.4
11
357.1
21
-10.4
0
LINE
8
0
6
CONTINUOUS
10
372.85
20
8.6
11
386.65
21
8.6
0
LINE
8
0
6
CONTINUOUS
10
386.65
20
8.6
11
386.65
21
22.4
0
LINE
8
0
6
CONTINUOUS
10
386.65
20
22.4
11
372.85
21
22.4
0
LINE
8
0
6
CONTINUOUS
10
372.85
20
22.4
11
372.85
21
8.6
0
LINE
8
0
6
CONTINUOUS
10
368.35
20
27.6
11
382.15
21
27.6
0
LINE
8
0
6
CONTINUOUS
10
382.15
20
27.6
11
382.15
21
41.4
0
LINE
8
0
6
CONTINUOUS
10
382.15
20
41.4
11
368.35
21
41.4
0
LINE
8
0
6
CONTINUOUS
10
368.35
20
41.4
11
368.35
21
27.6
0
LINE
8
0
6
CONTINUOUS
10
357.1
20
46.6
11
370.9
21
46.6
0
LINE
8
0
6
CONTINUOUS
10
370.9
20
46.6
11
370.9
21
60.4
0
LINE
8
0
6
CONTINUOUS
10
370.9
20
60.4
11
357.1
21
60.4
0
LINE
8
0
6
CONTINUOUS
10
357.1
20
60.4
11
357.1
21
46.6
0
LINE
8
0
6
CONTINUOUS
10
366.1
20
65.6
11
379.9
21
65.6
0
LINE
8
0
6
CONTINUOUS
10
379.9
20
65.6
11
379.9
21
79.4
0
LINE
8
0
6
CONTINUOUS
10
379.9
20
79.4
11
366.1
21
79.4
0
LINE
8
0
6
CONTINUOUS
10
366.1
20
79.4
11
366.1
21
65.6
0
LINE
8
0
6
CONTINUOUS
10
380.6
20
46.6
11
394.4
21
46.6
0
LINE
8
0
6
CONTINUOUS
10
394.4
20
46.6
11
394.4
21
60.4
0
LINE
8
0
6
CONTINUOUS
10
394.4
20
60.4
11
380.6
21
60.4
0
LINE
8
0
6
CONTINUOUS
10
380.6
20
60.4
11
380.6
21
46.6
0
LINE
8
0
6
CONTINUOUS
10
220.6492604
20
-10.3209632
11
224.2209632
21
-23.6507396
0
LINE
8
0
6
CONTINUOUS
10
224.2209632
20
-23.6507396
11
237.5507396
21
-20.0790368
0
LINE
8
0
6
CONTINUOUS
10
237.5507396
20
-20.0790368
11
233.9790368
21
-6.7492604
0
LINE
8
0
6
CONTINUOUS
10
233.9790368
20
-6.7492604
11
220.6492604
21
-10.3209632
0
LINE
8
0
6
CONTINUOUS
10
392.25
20
9.75
11
397.75
21
9.75
0
LINE
8
0
6
CONTINUOUS
10
397.75
20
9.75
11
397.75
21
21.25
0
LINE
8
0
6
CONTINUOUS
10
397.75
20
21.25
11
392.25
21
21.25
0
LINE
8
0
6
CONTINUOUS
10
392.25
20
21.25
11
392.25
21
9.75
0
LINE
8
0
6
CONTINUOUS
10
387.75
20
28.75
11
393.25
21
28.75
0
LINE
8
0
6
CONTINUOUS
10
393.25
20
28.75
11
393.25
21
40.25
0
LINE
8
0
6
CONTINUOUS
10
393.25
20
40.25
11
387.75
21
40.25
0
LINE
8
0
6
CONTINUOUS
10
387.75
20
40.25
11
387.75
21
28.75
0
LINE
8
0
6
CONTINUOUS
10
385.5
20
66.75
11
391
21
66.75
0
LINE
8
0
6
CONTINUOUS
10
391
20
66.75
11
391
21
78.25
0
LINE
8
0
6
CONTINUOUS
10
391
20
78.25
11
385.5
21
78.25
0
LINE
8
0
6
CONTINUOUS
10
385.5
20
78.25
11
385.5
21
66.75
0
LINE
8
0
6
CONTINUOUS
10
226.7811645
20
-28.7622824
11
228.2046693
21
-34.0748744
0
LINE
8
0
6
CONTINUOUS
10
228.2046693
20
-34.0748744
11
239.3128163
21
-31.0984554
0
LINE
8
0
6
CONTINUOUS
10
239.3128163
20
-31.0984554
11
237.8893115
21
-25.7858634
0
LINE
8
0
6
CONTINUOUS
10
237.8893115
20
-25.7858634
11
226.7811645
21
-28.7622824
0
LINE
8
0
6
CONTINUOUS
10
361.75
20
9.75
11
367.25
21
9.75
0
LINE
8
0
6
CONTINUOUS
10
367.25
20
9.75
11
367.25
21
21.25
0
LINE
8
0
6
CONTINUOUS
10
367.25
20
21.25
11
361.75
21
21.25
0
LINE
8
0
6
CONTINUOUS
10
361.75
20
21.25
11
361.75
21
9.75
0
LINE
8
0
6
CONTINUOUS
10
357.25
20
28.75
11
362.75
21
28.75
0
LINE
8
0
6
CONTINUOUS
10
362.75
20
28.75
11
362.75
21
40.25
0
LINE
8
0
6
CONTINUOUS
10
362.75
20
40.25
11
357.25
21
40.25
0
LINE
8
0
6
CONTINUOUS
10
357.25
20
40.25
11
357.25
21
28.75
0
LINE
8
0
6
CONTINUOUS
10
355
20
66.75
11
360.5
21
66.75
0
LINE
8
0
6
CONTINUOUS
10
360.5
20
66.75
11
360.5
21
78.25
0
LINE
8
0
6
CONTINUOUS
10
360.5
20
78.25
11
355
21
78.25
0
LINE
8
0
6
CONTINUOUS
10
355
20
78.25
11
355
21
66.75
0
LINE
8
0
6
CONTINUOUS
10
218.8871837
20
0.6984554
11
220.3106885
21
-4.6141366
0
LINE
8
0
6
CONTINUOUS
10
220.3106885
20
-4.6141366
11
231.4188355
21
-1.6377176
0
LINE
8
0
6
CONTINUOUS
10
231.4188355
20
-1.6377176
11
229.9953307
21
3.6748744
0
LINE
8
0
6
CONTINUOUS
10
229.9953307
20
3.6748744
11
218.8871837
21
0.6984554
0
ENDSEC
0
EOF