0
SECTION
2
HEADER
9
$INSUNITS
70
4
0
ENDSEC
0
SECTION
2
TABLES
0
TABLE
2
LTYPE
0
LTYPE
72
65
70
0
2
CONTINUOUS
3
______
73
0
40
0
0
LTYPE
72
65
70
0
2
DASHED
3
_ _ _ 
73
2
40
7.5
49
5
49
-2.5
0
LTYPE
72
65
70
0
2
DOTTED
3
. . . 
73
2
40
1.5
49
0.5
49
-1
0
ENDTAB
0
TABLE
2
LAYER
0
ENDTAB
0
ENDSEC
0
SECTION
2
ENTITIES
0
LINE
8
0
6
CONTINUOUS
10
-9.5
20
47.5
11
5
21
47.5
0
LINE
8
0
6
CONTINUOUS
10
-9.5
20
66.5
11
28.5
21
66.5
0
LINE
8
0
6
CONTINUOUS
10
-9.5
20
66.5
11
-9.5
21
47.5
0
LINE
8
0
6
CONTINUOUS
10
4.75
20
-9.5
11
7.125
21
-9.5
0
LINE
8
0
6
CONTINUOUS
10
17.25
20
-9.5
11
17.25
21
9.5
0
LINE
8
0
6
CONTINUOUS
10
2.75
20
9.5
11
-1.75
21
9.5
0
LINE
8
0
6
CONTINUOUS
10
-1.75
20
9.5
11
-1.75
21
-9.5
0
LINE
8
0
6
CONTINUOUS
10
17.25
20
9.5
11
21.75
21
9.5
0
LINE
8
0
6
CONTINUOUS
10
21.75
20
9.5
11
21.75
21
28.5
0
LINE
8
0
6
CONTINUOUS
10
5
20
28.5
11
2.75
21
28.5
0
LINE
8
0
6
CONTINUOUS
10
2.75
20
28.5
11
2.75
21
9.5
0
LINE
8
0
6
CONTINUOUS
10
21.75
20
28.5
11
24
21
28.5
0
LINE
8
0
6
CONTINUOUS
10
24
20
28.5
11
24
21
47.5
0
LINE
8
0
6
CONTINUOUS
10
5
20
47.5
11
5
21
28.5
0
LINE
8
0
6
CONTINUOUS
10
24
20
47.5
11
28.5
21
47.5
0
LINE
8
0
6
CONTINUOUS
10
28.5
20
-6
11
30.875
21
-6
0
LINE
8
0
6
CONTINUOUS
10
47.5
20
-6
11
47.5
21
-2.5
0
LINE
8
0
6
CONTINUOUS
10
28.5
20
-6
11
28.5
21
47.5
0
LINE
8
0
6
CONTINUOUS
10
47.5
20
70
11
28.5
21
70
0
LINE
8
0
6
CONTINUOUS
10
28.5
20
70
11
28.5
21
66.5
0
LINE
8
0
6
CONTINUOUS
10
47.5
20
-2.5
11
54.625
21
-2.5
0
LINE
8
0
6
CONTINUOUS
10
66.5
20
-2.5
11
66.5
21
1
0
LINE
8
0
6
CONTINUOUS
10
66.5
20
73.5
11
47.5
21
73.5
0
LINE
8
0
6
CONTINUOUS
10
47.5
20
73.5
11
47.5
21
70
0
LINE
8
0
6
CONTINUOUS
10
66.5
20
1
11
85.5
21
1
0
LINE
8
0
6
CONTINUOUS
10
85.5
20
73.5
11
85.5
21
77
0
LINE
8
0
6
CONTINUOUS
10
85.5
20
77
11
66.5
21
77
0
LINE
8
0
6
CONTINUOUS
10
66.5
20
77
11
66.5
21
73.5
0
LINE
8
0
6
CONTINUOUS
10
97.375
20
-2.5
11
104.5
21
-2.5
0
LINE
8
0
6
CONTINUOUS
10
85.5
20
1
11
85.5
21
-2.5
0
LINE
8
0
6
CONTINUOUS
10
104.5
20
70
11
104.5
21
73.5
0
LINE
8
0
6
CONTINUOUS
10
104.5
20
73.5
11
85.5
21
73.5
0
LINE
8
0
6
CONTINUOUS
10
121.125
20
-6
11
123.5
21
-6
0
LINE
8
0
6
CONTINUOUS
10
123.5
20
-6
11
123.5
21
70
0
LINE
8
0
6
CONTINUOUS
10
104.5
20
-2.5
11
104.5
21
-6
0
LINE
8
0
6
CONTINUOUS
10
123.5
20
70
11
104.5
21
70
0
LINE
8
0
6
CONTINUOUS
10
-14.25
20
-28.5
11
4.75
21
-28.5
0
LINE
8
0
6
CONTINUOUS
10
4.75
20
-28.5
11
4.75
21
-9.5
0
LINE
8
0
6
CONTINUOUS
10
-1.75
20
-9.5
11
-14.25
21
-9.5
0
LINE
8
0
6
CONTINUOUS
10
-14.25
20
-9.5
11
-14.25
21
-28.5
0
LINE
8
0
6
CONTINUOUS
10
7.125
20
-28.5
11
26.125
21
-28.5
0
LINE
8
0
6
CONTINUOUS
10
26.125
20
-28.5
11
26.125
21
-9.5
0
LINE
8
0
6
CONTINUOUS
10
26.125
20
-9.5
11
17.25
21
-9.5
0
LINE
8
0
6
CONTINUOUS
10
7.125
20
-9.5
11
7.125
21
-28.5
0
LINE
8
0
6
CONTINUOUS
10
30.875
20
-25
11
49.875
21
-25
0
LINE
8
0
6
CONTINUOUS
10
49.875
20
-25
11
49.875
21
-6
0
LINE
8
0
6
CONTINUOUS
10
49.875
20
-6
11
47.5
21
-6
0
LINE
8
0
6
CONTINUOUS
10
30.875
20
-6
11
30.875
21
-25
0
LINE
8
0
6
CONTINUOUS
10
54.625
20
-21.5
11
73.625
21
-21.5
0
LINE
8
0
6
CONTINUOUS
10
73.625
20
-21.5
11
73.625
21
-2.5
0
LINE
8
0
6
CONTINUOUS
10
73.625
20
-2.5
11
66.5
21
-2.5
0
LINE
8
0
6
CONTINUOUS
10
54.625
20
-2.5
11
54.625
21
-21.5
0
LINE
8
0
6
CONTINUOUS
10
78.375
20
-21.5
11
97.375
21
-21.5
0
LINE
8
0
6
CONTINUOUS
10
97.375
20
-21.5
11
97.375
21
-2.5
0
LINE
8
0
6
CONTINUOUS
10
85.5
20
-2.5
11
78.375
21
-2.5
0
LINE
8
0
6
CONTINUOUS
10
78.375
20
-2.5
11
78.375
21
-21.5
0
LINE
8
0
6
CONTINUOUS
10
102.125
20
-25
11
121.125
21
-25
0
LINE
8
0
6
CONTINUOUS
10
121.125
20
-25
11
121.125
21
-6
0
LINE
8
0
6
CONTINUOUS
10
104.5
20
-6
11
102.125
21
-6
0
LINE
8
0
6
CONTINUOUS
10
102.125
20
-6
11
102.125
21
-25
0
LINE
8
0
6
CONTINUOUS
10
145.4175144
20
-30.9350763
11
150.3350763
21
-12.5824856
0
LINE
8
0
6
CONTINUOUS
10
150.3350763
20
-12.5824856
11
131.9824856
21
-7.6649237
0
LINE
8
0
6
CONTINUOUS
10
131.9824856
20
-7.6649237
11
127.0649237
21
-26.0175144
0
LINE
8
0
6
CONTINUOUS
10
127.0649237
20
-26.0175144
11
145.4175144
21
-30.9350763
0
LINE
8
0
6
CONTINUOUS
10
240.5
20
-9.5
11
259.5
21
-9.5
0
LINE
8
0
6
CONTINUOUS
10
259.5
20
-9.5
11
259.5
21
-6
0
LINE
8
0
6
CONTINUOUS
10
240.5
20
-9.5
11
240.5
21
85.5
0
LINE
8
0
6
CONTINUOUS
10
259.5
20
85.5
11
240.5
21
85.5
0
LINE
8
0
6
CONTINUOUS
10
259.5
20
-6
11
278.5
21
-6
0
LINE
8
0
6
CONTINUOUS
10
278.5
20
-6
11
278.5
21
-2.5
0
LINE
8
0
6
CONTINUOUS
10
278.5
20
89
11
259.5
21
89
0
LINE
8
0
6
CONTINUOUS
10
259.5
20
89
11
259.5
21
85.5
0
LINE
8
0
6
CONTINUOUS
10
278.5
20
-2.5
11
297.5
21
-2.5
0
LINE
8
0
6
CONTINUOUS
10
297.5
20
89
11
297.5
21
92.5
0
LINE
8
0
6
CONTINUOUS
10
297.5
20
92.5
11
278.5
21
92.5
0
LINE
8
0
6
CONTINUOUS
10
278.5
20
92.5
11
278.5
21
89
0
LINE
8
0
6
CONTINUOUS
10
297.5
20
-6
11
316.5
21
-6
0
LINE
8
0
6
CONTINUOUS
10
297.5
20
-2.5
11
297.5
21
-6
0
LINE
8
0
6
CONTINUOUS
10
316.5
20
85.5
11
316.5
21
89
0
LINE
8
0
6
CONTINUOUS
10
316.5
20
89
11
297.5
21
89
0
LINE
8
0
6
CONTINUOUS
10
316.5
20
-9.5
11
335.5
21
-9.5
0
LINE
8
0
6
CONTINUOUS
10
316.5
20
-6
11
316.5
21
-9.5
0
LINE
8
0
6
CONTINUOUS
10
335.5
20
82
11
335.5
21
85.5
0
LINE
8
0
6
CONTINUOUS
10
335.5
20
85.5
11
316.5
21
85.5
0
LINE
8
0
6
CONTINUOUS
10
335.5
20
-13
11
373.5
21
-13
0
LINE
8
0
6
CONTINUOUS
10
335.5
20
-9.5
11
335.5
21
-13
0
LINE
8
0
6
CONTINUOUS
10
354.5
20
6
11
354.5
21
44
0
LINE
8
0
6
CONTINUOUS
10
354.5
20
63
11
354.5
21
82
0
LINE
8
0
6
CONTINUOUS
10
354.5
20
82
11
335.5
21
82
0
LINE
8
0
6
CONTINUOUS
10
373.5
20
-13
11
373.5
21
6
0
LINE
8
0
6
CONTINUOUS
10
370.25
20
6
11
354.5
21
6
0
LINE
8
0
6
CONTINUOUS
10
373.5
20
6
11
389.25
21
6
0
LINE
8
0
6
CONTINUOUS
10
389.25
20
6
11
389.25
21
25
0
LINE
8
0
6
CONTINUOUS
10
389.25
20
25
11
384.75
21
25
0
LINE
8
0
6
CONTINUOUS
10
370.25
20
25
11
370.25
21
6
0
LINE
8
0
6
CONTINUOUS
10
365.75
20
25
11
370.25
21
25
0
LINE
8
0
6
CONTINUOUS
10
384.75
20
25
11
384.75
21
44
0
LINE
8
0
6
CONTINUOUS
10
378
20
44
11
373.5
21
44
0
LINE
8
0
6
CONTINUOUS
10
365.75
20
44
11
365.75
21
25
0
LINE
8
0
6
CONTINUOUS
10
354.5
20
44
11
365.75
21
44
0
LINE
8
0
6
CONTINUOUS
10
373.5
20
44
11
373.5
21
63
0
LINE
8
0
6
CONTINUOUS
10
363.5
20
63
11
354.5
21
63
0
LINE
8
0
6
CONTINUOUS
10
373.5
20
63
11
378
21
63
0
LINE
8
0
6
CONTINUOUS
10
382.5
20
63
11
382.5
21
82
0
LINE
8
0
6
CONTINUOUS
10
382.5
20
82
11
363.5
21
82
0
LINE
8
0
6
CONTINUOUS
10
363.5
20
82
11
363.5
21
63
0
LINE
8
0
6
CONTINUOUS
10
384.75
20
44
11
397
21
44
0
LINE
8
0
6
CONTINUOUS
10
397
20
44
11
397
21
63
0
LINE
8
0
6
CONTINUOUS
10
397
20
63
11
382.5
21
63
0
LINE
8
0
6
CONTINUOUS
10
378
20
63
11
378
21
44
0
LINE
8
0
6
CONTINUOUS
10
217.4649237
20
-8.4824856
11
222.3824856
21
-26.8350763
0
LINE
8
0
6
CONTINUOUS
10
222.3824856
20
-26.8350763
11
240.7350763
21
-21.9175144
0
LINE
8
0
6
CONTINUOUS
10
240.7350763
20
-21.9175144
11
235.8175144
21
-3.5649237
0
LINE
8
0
6
CONTINUOUS
10
235.8175144
20
-3.5649237
11
217.4649237
21
-8.4824856
0
ENDSEC
0
EOF