0
SECTION
2
HEADER
9
$INSUNITS
70
4
0
ENDSEC
0
SECTION
2
TABLES
0
TABLE
2
LTYPE
0
LTYPE
72
65
70
0
2
CONTINUOUS
3
______
73
0
40
0
0
LTYPE
72
65
70
0
2
DASHED
3
_ _ _ 
73
2
40
7.5
49
5
49
-2.5
0
LTYPE
72
65
70
0
2
DOTTED
3
. . . 
73
2
40
1.5
49
0.5
49
-1
0
ENDTAB
0
TABLE
2
LAYER
0
ENDTAB
0
ENDSEC
0
SECTION
2
ENTITIES
0
LINE
8
0
6
CONTINUOUS
10
20.25
20
-5.75
11
25.75
21
-5.75
0
LINE
8
0
6
CONTINUOUS
10
25.75
20
-5.75
11
25.75
21
5.75
0
LINE
8
0
6
CONTINUOUS
10
25.75
20
5.75
11
20.25
21
5.75
0
LINE
8
0
6
CONTINUOUS
10
20.25
20
5.75
11
20.25
21
-5.75
0
LINE
8
0
6
CONTINUOUS
10
147.4893115
20
-8.7141366
11
148.9128163
21
-3.4015446
0
LINE
8
0
6
CONTINUOUS
10
148.9128163
20
-3.4015446
11
137.8046693
21
-0.4251256
0
LINE
8
0
6
CONTINUOUS
10
137.8046693
20
-0.4251256
11
136.3811645
21
-5.7377176
0
LINE
8
0
6
CONTINUOUS
10
136.3811645
20
-5.7377176
11
147.4893115
21
-8.7141366
0
LINE
8
0
6
CONTINUOUS
10
392.25
20
9.75
11
397.75
21
9.75
0
LINE
8
0
6
CONTINUOUS
10
397.75
20
9.75
11
397.75
21
21.25
0
LINE
8
0
6
CONTINUOUS
10
397.75
20
21.25
11
392.25
21
21.25
0
LINE
8
0
6
CONTINUOUS
10
392.25
20
21.25
11
392.25
21
9.75
0
LINE
8
0
6
CONTINUOUS
10
387.75
20
28.75
11
393.25
21
28.75
0
LINE
8
0
6
CONTINUOUS
10
393.25
20
28.75
11
393.25
21
40.25
0
LINE
8
0
6
CONTINUOUS
10
393.25
20
40.25
11
387.75
21
40.25
0
LINE
8
0
6
CONTINUOUS
10
387.75
20
40.25
11
387.75
21
28.75
0
LINE
8
0
6
CONTINUOUS
10
385.5
20
66.75
11
391
21
66.75
0
LINE
8
0
6
CONTINUOUS
10
391
20
66.75
11
391
21
78.25
0
LINE
8
0
6
CONTINUOUS
10
391
20
78.25
11
385.5
21
78.25
0
LINE
8
0
6
CONTINUOUS
10
385.5
20
78.25
11
385.5
21
66.75
0
LINE
8
0
6
CONTINUOUS
10
226.7811645
20
-28.7622824
11
228.2046693
21
-34.0748744
0
LINE
8
0
6
CONTINUOUS
10
228.2046693
20
-34.0748744
11
239.3128163
21
-31.0984554
0
LINE
8
0
6
CONTINUOUS
10
239.3128163
20
-31.0984554
11
237.8893115
21
-25.7858634
0
LINE
8
0
6
CONTINUOUS
10
237.8893115
20
-25.7858634
11
226.7811645
21
-28.7622824
0
LINE
8
0
6
CONTINUOUS
10
-10.25
20
-5.75
11
-4.75
21
-5.75
0
LINE
8
0
6
CONTINUOUS
10
-4.75
20
-5.75
11
-4.75
21
5.75
0
LINE
8
0
6
CONTINUOUS
10
-4.75
20
5.75
11
-10.25
21
5.75
0
LINE
8
0
6
CONTINUOUS
10
-10.25
20
5.75
11
-10.25
21
-5.75
0
LINE
8
0
6
CONTINUOUS
10
139.5953307
20
-38.1748744
11
141.0188355
21
-32.8622824
0
LINE
8
0
6
CONTINUOUS
10
141.0188355
20
-32.8622824
11
129.9106885
21
-29.8858634
0
LINE
8
0
6
CONTINUOUS
10
129.9106885
20
-29.8858634
11
128.4871837
21
-35.1984554
0
LINE
8
0
6
CONTINUOUS
10
128.4871837
20
-35.1984554
11
139.5953307
21
-38.1748744
0
LINE
8
0
6
CONTINUOUS
10
361.75
20
9.75
11
367.25
21
9.75
0
LINE
8
0
6
CONTINUOUS
10
367.25
20
9.75
11
367.25
21
21.25
0
LINE
8
0
6
CONTINUOUS
10
367.25
20
21.25
11
361.75
21
21.25
0
LINE
8
0
6
CONTINUOUS
10
361.75
20
21.25
11
361.75
21
9.75
0
LINE
8
0
6
CONTINUOUS
10
357.25
20
28.75
11
362.75
21
28.75
0
LINE
8
0
6
CONTINUOUS
10
362.75
20
28.75
11
362.75
21
40.25
0
LINE
8
0
6
CONTINUOUS
10
362.75
20
40.25
11
357.25
21
40.25
0
LINE
8
0
6
CONTINUOUS
10
357.25
20
40.25
11
357.25
21
28.75
0
LINE
8
0
6
CONTINUOUS
10
355
20
66.75
11
360.5
21
66.75
0
LINE
8
0
6
CONTINUOUS
10
360.5
20
66.75
11
360.5
21
78.25
0
LINE
8
0
6
CONTINUOUS
10
360.5
20
78.25
11
355
21
78.25
0
LINE
8
0
6
CONTINUOUS
10
355
20
78.25
11
355
21
66.75
0
LINE
8
0
6
CONTINUOUS
10
218.8871837
20
0.6984554
11
220.3106885
21
-4.6141366
0
LINE
8
0
6
CONTINUOUS
10
220.3106885
20
-4.6141366
11
231.4188355
21
-1.6377176
0
LINE
8
0
6
CONTINUOUS
10
231.4188355
20
-1.6377176
11
229.9953307
21
3.6748744
0
LINE
8
0
6
CONTINUOUS
10
229.9953307
20
3.6748744
11
218.8871837
21
0.6984554
0
ENDSEC
0
EOF